<?xml version="1.0" standalone="yes"?><svg version="1.1" xmlns = 'http://www.w3.org/2000/svg'><defs><font id='web' horiz-adv-x="1000">
<font-face font-family="web" descent="-483" cap-height="1399" units-per-em="2048" bbox="-315,-481,2447,1926" x-height="936" ascent="1565" />
<missing-glyph horiz-adv-x="446" d="" /><glyph horiz-adv-x="1198" d="M 725 -29 C 654 -29 589 -17 529 5 C 469 27 417 61 373 105 C 328 149 291 203 263 268 C 234 332 215 407 207 492 L 55 492 L 55 522 L 205 522 C 203 551 202 580 202 609 C 202 637 203 664 205 690 L 55 690 L 55 721 L 211 721 C 221 797 241 868 272 935 C 302 1001 342 1059 391 1109 C 440 1159 498 1198 565 1227 C 631 1255 706 1270 788 1270 C 843 1270 893 1263 938 1250 C 982 1236 1020 1218 1052 1195 C 1083 1171 1107 1144 1124 1113 C 1140 1082 1149 1049 1149 1014 C 1149 986 1145 962 1139 942 C 1132 922 1123 906 1113 894 C 1103 882 1091 873 1078 867 C 1064 861 1051 858 1038 858 C 1002 858 974 868 955 890 C 935 911 926 937 926 967 C 926 984 929 999 936 1013 C 942 1027 950 1040 958 1053 C 966 1066 974 1079 981 1092 C 987 1105 991 1119 991 1135 C 988 1151 981 1166 970 1180 C 958 1194 943 1206 925 1216 C 907 1226 886 1235 862 1241 C 838 1247 812 1251 784 1251 C 736 1251 694 1238 658 1214 C 622 1189 590 1154 564 1108 C 538 1062 517 1006 501 941 C 485 875 475 802 469 721 L 918 721 L 918 690 L 467 690 C 467 661 467 631 467 601 C 467 571 467 544 469 522 L 852 522 L 852 492 L 471 492 C 475 430 484 373 500 319 C 515 265 536 217 564 177 C 592 137 625 105 665 82 C 705 58 751 47 803 47 C 845 47 883 53 917 66 C 951 78 982 96 1010 119 C 1038 141 1063 168 1085 199 C 1107 230 1127 264 1145 301 L 1165 289 C 1145 244 1122 202 1096 164 C 1070 125 1040 91 1005 63 C 970 34 930 11 884 -4 C 838 -20 785 -29 725 -29 Z" unicode="€" />
<glyph horiz-adv-x="1151" d="" unicode="−" />
<glyph horiz-adv-x="1114" d="M 102 596 L 1012 596 L 1012 442 L 102 442 L 102 596 Z" unicode="–" />
<glyph horiz-adv-x="1810" d="M 102 596 L 1708 596 L 1708 442 L 102 442 L 102 596 Z" unicode="—" />
<glyph horiz-adv-x="664" d="" unicode="∕" />
<glyph horiz-adv-x="408" d="M 45 1200 C 45 1246 55 1287 75 1324 C 95 1360 121 1393 152 1422 C 182 1450 215 1475 250 1495 C 285 1515 318 1532 348 1546 L 360 1526 C 332 1512 306 1496 280 1476 C 254 1456 230 1435 210 1411 C 189 1387 172 1361 159 1333 C 145 1305 138 1277 137 1249 L 209 1249 C 238 1249 262 1244 282 1235 C 301 1226 316 1215 328 1201 C 340 1187 348 1172 353 1156 C 357 1140 360 1124 360 1110 C 360 1096 357 1081 351 1066 C 345 1050 337 1036 326 1023 C 314 1009 300 998 283 990 C 265 981 245 977 223 977 C 189 977 161 982 139 994 C 116 1006 98 1022 84 1042 C 70 1062 60 1086 54 1113 C 48 1140 45 1169 45 1200 Z" unicode="‘" />
<glyph horiz-adv-x="408" d="M 385 1323 C 385 1277 374 1235 354 1198 C 334 1161 308 1128 278 1100 C 247 1071 214 1046 179 1026 C 144 1006 112 989 82 977 L 70 997 C 96 1010 123 1027 149 1047 C 175 1067 199 1089 220 1113 C 240 1137 257 1162 271 1190 C 284 1217 291 1245 293 1274 L 221 1274 C 191 1274 167 1278 148 1287 C 128 1296 113 1307 101 1321 C 89 1335 81 1350 77 1366 C 72 1382 70 1398 70 1413 C 70 1427 72 1441 78 1457 C 84 1472 92 1486 104 1500 C 115 1513 129 1524 146 1533 C 163 1541 183 1546 207 1546 C 240 1546 268 1540 291 1528 C 313 1516 332 1500 346 1480 C 360 1460 370 1436 376 1409 C 382 1382 385 1353 385 1323 Z" unicode="’" />
<glyph horiz-adv-x="408" d="M 362 41 C 362 -5 351 -46 331 -83 C 311 -120 285 -153 255 -182 C 224 -210 191 -235 156 -255 C 121 -275 89 -292 59 -305 L 47 -285 C 74 -271 101 -255 127 -235 C 153 -215 176 -193 197 -169 C 217 -145 234 -119 248 -92 C 261 -64 268 -36 270 -8 L 199 -8 C 169 -8 145 -3 126 5 C 106 14 91 25 79 39 C 67 53 59 68 54 84 C 49 100 47 116 47 131 C 47 145 49 159 55 175 C 61 190 69 204 81 218 C 92 231 106 242 123 251 C 140 259 160 264 184 264 C 217 264 245 258 268 246 C 290 234 309 218 323 198 C 337 178 347 154 353 127 C 359 100 362 71 362 41 Z" unicode="‚" />
<glyph horiz-adv-x="782" d="M 45 1200 C 45 1246 55 1287 75 1324 C 95 1360 121 1393 152 1422 C 182 1450 215 1475 250 1495 C 285 1515 318 1532 348 1546 L 360 1526 C 332 1512 306 1496 280 1476 C 254 1456 230 1435 210 1411 C 189 1387 172 1361 159 1333 C 145 1305 138 1277 137 1249 L 209 1249 C 238 1249 262 1244 282 1235 C 301 1226 316 1215 328 1201 C 340 1187 348 1172 353 1156 C 357 1140 360 1124 360 1110 C 360 1096 357 1081 351 1066 C 345 1050 337 1036 326 1023 C 314 1009 300 998 283 990 C 265 981 245 977 223 977 C 189 977 161 982 139 994 C 116 1006 98 1022 84 1042 C 70 1062 60 1086 54 1113 C 48 1140 45 1169 45 1200 Z M 422 1200 C 422 1246 432 1287 452 1324 C 472 1360 498 1393 529 1422 C 559 1450 592 1475 627 1495 C 662 1515 695 1532 725 1546 L 735 1526 C 707 1512 681 1496 655 1476 C 629 1456 606 1435 586 1411 C 565 1387 548 1361 535 1333 C 521 1305 514 1277 512 1249 L 586 1249 C 614 1249 638 1244 658 1235 C 677 1226 692 1215 704 1201 C 716 1187 724 1172 729 1156 C 734 1140 737 1124 737 1110 C 737 1096 734 1081 728 1066 C 722 1050 713 1036 702 1023 C 690 1009 676 998 659 990 C 642 981 622 977 600 977 C 566 977 538 982 516 994 C 493 1006 475 1022 461 1042 C 447 1062 437 1086 431 1113 C 425 1140 422 1169 422 1200 Z" unicode="“" />
<glyph horiz-adv-x="782" d="M 385 1323 C 385 1277 374 1235 354 1198 C 334 1161 308 1128 278 1100 C 247 1071 214 1046 179 1026 C 144 1006 112 989 82 977 L 70 997 C 96 1010 123 1027 149 1047 C 175 1067 199 1089 220 1113 C 240 1137 257 1162 271 1190 C 284 1217 291 1245 293 1274 L 221 1274 C 191 1274 167 1278 148 1287 C 128 1296 113 1307 101 1321 C 89 1335 81 1350 77 1366 C 72 1382 70 1398 70 1413 C 70 1427 72 1441 78 1457 C 84 1472 92 1486 104 1500 C 115 1513 129 1524 146 1533 C 163 1541 183 1546 207 1546 C 240 1546 268 1540 291 1528 C 313 1516 332 1500 346 1480 C 360 1460 370 1436 376 1409 C 382 1382 385 1353 385 1323 Z M 760 1323 C 760 1277 749 1235 729 1198 C 708 1161 682 1128 652 1100 C 622 1071 589 1046 554 1026 C 518 1006 486 989 457 977 L 444 997 C 471 1010 498 1027 524 1047 C 550 1067 573 1089 594 1113 C 615 1137 632 1162 646 1190 C 659 1217 666 1245 668 1274 L 596 1274 C 566 1274 542 1278 523 1287 C 503 1296 488 1307 476 1321 C 464 1335 456 1350 451 1366 C 446 1382 444 1398 444 1413 C 444 1427 447 1441 453 1457 C 459 1472 467 1486 479 1500 C 491 1513 505 1524 522 1533 C 539 1541 559 1546 582 1546 C 615 1546 643 1540 666 1528 C 688 1516 707 1500 721 1480 C 735 1460 745 1436 751 1409 C 757 1382 760 1353 760 1323 Z" unicode="”" />
<glyph horiz-adv-x="782" d="M 362 41 C 362 -5 351 -46 331 -83 C 311 -120 285 -153 255 -182 C 224 -210 191 -235 156 -255 C 121 -275 89 -292 59 -305 L 47 -285 C 74 -271 101 -255 127 -235 C 153 -215 176 -193 197 -169 C 217 -145 234 -119 248 -92 C 261 -64 268 -36 270 -8 L 199 -8 C 169 -8 145 -3 126 5 C 106 14 91 25 79 39 C 67 53 59 68 54 84 C 49 100 47 116 47 131 C 47 145 49 159 55 175 C 61 190 69 204 81 218 C 92 231 106 242 123 251 C 140 259 160 264 184 264 C 217 264 245 258 268 246 C 290 234 309 218 323 198 C 337 178 347 154 353 127 C 359 100 362 71 362 41 Z M 737 41 C 737 -5 726 -46 706 -83 C 686 -120 660 -153 630 -182 C 599 -210 566 -235 531 -255 C 496 -275 464 -292 434 -305 L 422 -285 C 448 -271 475 -255 501 -235 C 527 -215 551 -193 572 -169 C 592 -145 609 -119 623 -92 C 636 -64 643 -36 645 -8 L 573 -8 C 543 -8 519 -3 500 5 C 480 14 465 25 454 39 C 442 53 434 68 429 84 C 424 100 422 116 422 131 C 422 145 424 159 430 175 C 436 190 444 204 456 218 C 468 231 482 242 499 251 C 516 259 536 264 559 264 C 592 264 620 258 643 246 C 665 234 684 218 698 198 C 712 178 722 154 728 127 C 734 100 737 71 737 41 Z" unicode="„" />
<glyph horiz-adv-x="446" d="" unicode=" " />
<glyph horiz-adv-x="664" d="M 322 444 C 315 504 307 563 298 623 C 288 682 278 739 268 794 C 258 849 248 902 238 952 C 228 1002 220 1048 212 1090 C 204 1132 197 1169 193 1202 C 188 1234 186 1261 186 1282 C 186 1302 189 1322 196 1341 C 202 1359 212 1376 225 1390 C 237 1404 253 1416 271 1425 C 289 1433 309 1438 332 1438 C 354 1438 374 1433 392 1425 C 410 1416 425 1404 438 1390 C 450 1376 460 1359 467 1341 C 473 1322 477 1302 477 1282 C 477 1251 472 1207 462 1150 C 452 1093 439 1027 425 953 C 410 878 395 797 379 710 C 363 623 350 534 338 444 L 322 444 Z M 330 -18 C 308 -18 288 -14 270 -7 C 252 0 236 10 222 24 C 208 37 198 53 190 71 C 182 89 178 109 178 131 C 178 152 182 172 190 191 C 198 209 208 226 222 240 C 236 254 252 265 270 273 C 288 281 308 285 330 285 C 351 285 371 281 390 273 C 408 265 424 254 438 240 C 452 226 463 209 471 191 C 479 172 483 152 483 131 C 483 109 479 89 471 71 C 463 53 452 37 438 24 C 424 10 408 0 390 -7 C 371 -14 351 -18 330 -18 Z" unicode="!" />
<glyph horiz-adv-x="813" d="M 332 1386 C 332 1372 327 1351 319 1323 C 310 1295 299 1262 287 1225 C 275 1188 262 1147 248 1103 C 234 1059 223 1013 213 967 L 193 967 C 183 1014 172 1060 159 1104 C 146 1148 134 1188 122 1225 C 110 1261 100 1293 92 1321 C 84 1349 80 1370 80 1386 C 80 1402 82 1417 88 1432 C 94 1446 102 1459 112 1471 C 122 1483 135 1492 151 1499 C 167 1505 185 1509 205 1509 C 225 1509 242 1505 258 1499 C 274 1492 287 1483 298 1471 C 309 1459 317 1446 323 1432 C 329 1417 332 1402 332 1386 Z M 733 1386 C 733 1372 728 1351 720 1323 C 711 1295 700 1262 688 1225 C 676 1188 663 1147 649 1103 C 635 1059 624 1013 614 967 L 594 967 C 584 1014 573 1060 560 1104 C 547 1148 535 1188 523 1225 C 511 1261 501 1293 493 1321 C 485 1349 481 1370 481 1386 C 481 1402 483 1417 489 1432 C 495 1446 503 1459 513 1471 C 523 1483 536 1492 552 1499 C 568 1505 586 1509 606 1509 C 626 1509 643 1505 659 1499 C 675 1492 688 1483 699 1471 C 710 1459 718 1446 724 1432 C 730 1417 733 1402 733 1386 Z" unicode="&#x22;" />
<glyph horiz-adv-x="1061" d="M 375 307 L 145 250 L 145 440 L 375 496 L 375 735 L 145 678 L 145 864 L 375 922 L 375 1284 L 401 1284 L 401 930 L 659 995 L 659 1284 L 686 1284 L 686 1004 L 915 1061 L 915 872 L 686 815 L 686 575 L 915 633 L 915 446 L 686 389 L 686 -14 L 659 -14 L 659 381 L 401 315 L 401 -14 L 375 -14 L 375 307 Z M 659 569 L 659 809 L 401 741 L 401 502 L 659 569 Z" unicode="#" />
<glyph horiz-adv-x="1233" d="M 522 -10 C 463 -4 409 7 361 23 C 312 39 270 60 236 86 C 201 111 174 140 155 173 C 136 205 127 241 127 281 C 127 341 139 388 165 421 C 191 454 226 471 270 471 C 307 471 335 459 354 437 C 373 414 383 384 383 346 C 383 320 378 301 368 288 C 358 274 347 263 334 255 C 321 246 308 238 295 230 C 281 222 271 212 264 199 C 264 175 270 152 284 132 C 298 112 316 94 340 78 C 363 62 390 48 422 37 C 453 26 486 18 522 14 L 522 539 C 471 545 423 555 379 570 C 334 585 295 606 262 633 C 228 660 202 694 183 736 C 163 777 154 827 154 887 C 154 932 161 975 177 1016 C 193 1057 216 1094 247 1127 C 277 1159 316 1187 362 1210 C 408 1233 461 1250 522 1260 L 522 1460 L 553 1460 L 553 1264 C 557 1264 562 1265 569 1266 C 576 1266 584 1267 592 1268 C 600 1268 609 1269 617 1269 C 625 1269 633 1270 639 1270 C 651 1270 665 1269 681 1269 C 696 1269 709 1268 721 1266 L 721 1460 L 754 1460 L 754 1264 C 808 1257 855 1245 895 1229 C 935 1213 968 1193 995 1171 C 1021 1149 1041 1124 1055 1096 C 1068 1068 1075 1040 1075 1012 C 1075 988 1072 965 1066 944 C 1060 923 1052 905 1042 890 C 1032 875 1019 863 1004 855 C 988 846 971 842 952 842 C 938 842 924 844 910 848 C 896 852 884 859 874 868 C 864 877 855 888 849 902 C 843 916 840 932 840 950 C 840 972 844 991 853 1007 C 862 1022 873 1036 885 1048 C 897 1060 908 1072 920 1084 C 931 1096 939 1110 944 1126 C 940 1136 934 1146 924 1158 C 914 1170 900 1181 884 1192 C 868 1202 849 1212 827 1220 C 805 1228 780 1235 754 1239 L 754 754 C 802 745 849 733 893 719 C 937 705 976 684 1009 657 C 1042 629 1068 594 1088 550 C 1108 506 1118 451 1118 385 C 1118 348 1111 310 1099 270 C 1086 230 1065 192 1037 156 C 1008 120 970 88 924 60 C 878 32 821 11 754 -2 L 754 -291 L 721 -291 L 721 -6 C 703 -8 684 -9 664 -11 C 644 -13 624 -14 606 -14 C 598 -14 588 -14 578 -14 C 567 -14 559 -13 553 -12 L 553 -291 L 522 -291 L 522 -10 Z M 606 10 C 626 10 647 10 668 12 C 688 14 706 16 721 18 L 721 514 C 710 516 698 518 684 520 C 670 522 656 523 641 525 C 626 527 611 528 596 530 C 581 532 567 533 553 535 L 553 10 L 606 10 Z M 721 1243 C 711 1244 700 1245 687 1245 C 673 1245 662 1245 653 1245 C 641 1245 625 1244 605 1242 C 585 1240 567 1239 553 1237 L 553 778 L 721 758 L 721 1243 Z M 754 29 C 786 39 813 52 835 70 C 857 88 876 108 890 131 C 904 154 914 179 920 205 C 926 231 930 258 930 285 C 930 349 914 400 884 438 C 854 475 810 498 754 508 L 754 29 Z M 522 1231 C 494 1223 470 1212 448 1196 C 426 1180 407 1162 392 1141 C 377 1120 366 1097 358 1073 C 350 1049 346 1025 346 1001 C 346 966 350 936 359 911 C 367 885 379 864 395 847 C 411 830 429 816 451 806 C 473 796 496 788 522 784 L 522 1231 Z" unicode="$" />
<glyph horiz-adv-x="1755" d="M 451 600 C 405 600 361 607 320 621 C 278 635 242 655 211 683 C 180 711 156 745 138 786 C 120 826 111 874 111 928 C 111 978 120 1025 140 1067 C 159 1109 185 1145 217 1175 C 249 1205 285 1228 326 1245 C 366 1261 408 1270 451 1270 C 497 1270 541 1263 583 1250 C 625 1237 663 1217 696 1189 C 728 1161 754 1126 774 1084 C 793 1041 803 990 803 930 C 803 884 793 840 774 800 C 754 760 728 725 696 695 C 663 665 625 642 583 625 C 541 608 497 600 451 600 Z M 457 621 C 481 621 504 628 524 643 C 544 658 561 679 575 706 C 589 733 601 765 609 803 C 617 840 621 881 621 926 C 621 973 617 1017 611 1057 C 604 1097 594 1131 580 1160 C 566 1188 549 1211 528 1227 C 506 1243 481 1251 453 1251 C 423 1251 398 1242 378 1225 C 357 1208 340 1185 327 1156 C 313 1127 304 1094 298 1056 C 292 1018 289 978 289 936 C 289 893 292 853 298 815 C 304 777 313 743 327 715 C 340 686 357 663 379 646 C 400 629 426 621 457 621 Z M 1292 -29 C 1246 -29 1202 -22 1161 -8 C 1119 6 1083 26 1052 54 C 1021 82 997 116 979 157 C 961 197 952 245 952 299 C 952 349 961 394 981 436 C 1001 478 1027 514 1059 544 C 1091 574 1127 598 1168 615 C 1208 632 1250 641 1292 641 C 1338 641 1382 634 1424 621 C 1466 608 1504 588 1537 561 C 1569 533 1595 498 1615 455 C 1635 412 1645 361 1645 301 C 1645 254 1635 211 1616 171 C 1596 131 1570 96 1538 66 C 1505 36 1467 13 1425 -3 C 1382 -20 1338 -29 1292 -29 Z M 1300 -10 C 1323 -10 1344 -2 1364 13 C 1384 29 1401 50 1416 78 C 1430 105 1442 137 1450 175 C 1458 213 1462 253 1462 297 C 1462 343 1458 385 1452 425 C 1445 465 1435 499 1422 529 C 1408 558 1391 581 1370 598 C 1349 614 1324 623 1296 623 C 1266 623 1241 614 1220 596 C 1199 578 1182 555 1169 526 C 1155 497 1145 463 1139 425 C 1133 387 1130 347 1130 307 C 1130 264 1133 223 1139 185 C 1145 147 1154 113 1168 84 C 1182 55 1199 32 1221 15 C 1242 -1 1268 -10 1300 -10 Z M 416 -176 L 1292 1409 L 1335 1389 L 455 -197 L 416 -176 Z" unicode="%" />
<glyph horiz-adv-x="1532" d="M 1032 365 C 1054 395 1074 428 1094 466 C 1114 504 1131 541 1146 579 C 1161 617 1173 652 1182 686 C 1191 720 1196 748 1196 770 C 1196 792 1180 812 1148 828 C 1116 844 1064 858 993 870 L 993 883 L 1569 883 L 1569 870 C 1510 864 1459 854 1417 841 C 1374 827 1339 805 1311 774 C 1297 758 1280 734 1262 701 C 1244 667 1224 630 1202 589 C 1180 548 1156 506 1130 463 C 1104 419 1077 380 1049 344 C 1067 320 1088 295 1110 269 C 1132 243 1153 217 1175 193 C 1197 169 1217 147 1237 128 C 1257 108 1274 94 1288 86 C 1358 44 1436 20 1522 14 L 1522 0 L 1024 0 C 1019 4 1010 14 998 30 C 985 46 971 62 957 80 C 942 98 928 115 915 131 C 902 147 893 159 889 166 C 864 140 837 116 809 92 C 780 68 749 47 717 29 C 685 10 651 -4 615 -16 C 579 -27 541 -33 502 -33 C 449 -33 398 -26 349 -13 C 299 0 256 20 218 48 C 180 75 149 110 126 153 C 103 195 92 246 92 305 C 92 355 99 399 115 438 C 131 476 154 512 185 546 C 215 579 253 611 298 641 C 343 671 395 703 455 735 C 433 767 413 799 393 832 C 373 864 355 897 340 929 C 325 961 313 993 304 1024 C 295 1054 291 1084 291 1112 C 291 1158 300 1201 320 1240 C 339 1278 366 1311 400 1339 C 434 1367 474 1388 521 1404 C 567 1419 618 1427 674 1427 C 718 1427 756 1419 788 1405 C 820 1391 847 1371 869 1347 C 890 1323 906 1294 916 1262 C 926 1230 932 1195 932 1159 C 932 1098 910 1040 868 984 C 825 928 764 877 686 829 C 743 743 800 663 856 589 C 912 515 971 440 1032 365 Z M 674 850 C 706 870 732 891 753 915 C 774 939 791 964 803 990 C 815 1016 824 1044 830 1073 C 835 1102 838 1132 838 1163 C 838 1196 834 1227 828 1257 C 822 1286 812 1312 799 1334 C 786 1356 769 1373 749 1386 C 729 1398 705 1405 678 1405 C 651 1405 628 1399 609 1388 C 589 1376 573 1361 561 1341 C 549 1321 540 1298 534 1271 C 528 1244 526 1215 526 1184 C 526 1138 539 1087 566 1030 C 592 972 628 912 674 850 Z M 872 184 C 838 226 802 273 764 323 C 726 373 688 422 651 470 C 614 518 580 563 548 606 C 516 648 491 684 471 713 C 427 677 396 631 378 575 C 359 519 350 457 350 391 C 350 345 355 303 367 264 C 378 225 394 191 416 163 C 437 134 463 112 494 96 C 524 80 559 72 598 72 C 623 72 649 74 675 79 C 701 84 726 91 750 101 C 774 111 796 122 817 136 C 837 150 856 166 872 184 Z" unicode="&#x26;" />
<glyph horiz-adv-x="412" d="M 332 1386 C 332 1372 327 1351 319 1323 C 310 1295 299 1262 287 1225 C 275 1188 262 1147 248 1103 C 234 1059 223 1013 213 967 L 193 967 C 183 1014 172 1060 159 1104 C 146 1148 134 1188 122 1225 C 110 1261 100 1293 92 1321 C 84 1349 80 1370 80 1386 C 80 1402 82 1417 88 1432 C 94 1446 102 1459 112 1471 C 122 1483 135 1492 151 1499 C 167 1505 185 1509 205 1509 C 225 1509 242 1505 258 1499 C 274 1492 287 1483 298 1471 C 309 1459 317 1446 323 1432 C 329 1417 332 1402 332 1386 Z" unicode="'" />
<glyph horiz-adv-x="678" d="M 586 -328 C 517 -278 452 -221 392 -159 C 331 -96 278 -26 233 51 C 187 128 151 213 125 305 C 99 397 86 497 86 606 C 86 708 98 803 122 891 C 146 979 181 1061 225 1137 C 269 1213 321 1284 382 1350 C 443 1415 510 1476 584 1532 L 637 1501 C 564 1445 498 1385 440 1321 C 381 1257 331 1189 289 1116 C 247 1042 215 964 193 880 C 171 796 160 706 160 610 C 159 508 170 413 194 326 C 218 238 251 157 294 83 C 336 8 387 -60 447 -122 C 506 -184 571 -241 643 -293 L 586 -328 Z" unicode="(" />
<glyph horiz-adv-x="678" d="M 35 -293 C 105 -241 170 -184 230 -122 C 289 -60 340 8 383 83 C 425 157 458 238 482 326 C 506 413 518 508 518 610 C 517 706 505 796 483 880 C 460 964 428 1042 387 1116 C 345 1189 295 1257 236 1321 C 177 1385 111 1445 39 1501 L 94 1532 C 166 1476 233 1415 294 1350 C 355 1284 408 1213 452 1137 C 496 1061 530 979 555 891 C 579 803 592 708 592 606 C 592 497 578 397 552 305 C 526 213 490 128 444 51 C 398 -26 345 -96 285 -159 C 224 -221 160 -278 92 -328 L 35 -293 Z" unicode=")" />
<glyph horiz-adv-x="786" d="M 397 813 C 376 813 361 818 352 829 C 342 840 338 854 338 870 C 338 882 340 897 345 916 C 349 935 354 956 360 978 C 366 1000 371 1022 377 1045 C 382 1068 385 1090 387 1110 C 371 1099 355 1086 339 1072 C 323 1058 308 1043 294 1029 C 280 1014 266 1000 253 987 C 239 973 227 962 217 954 C 201 942 186 936 170 937 C 154 937 141 946 131 963 C 118 983 116 1001 125 1016 C 133 1030 146 1041 164 1049 C 192 1060 224 1070 262 1080 C 299 1089 339 1103 383 1122 C 339 1140 298 1155 259 1166 C 220 1176 186 1188 158 1200 C 137 1208 123 1220 117 1235 C 111 1250 113 1267 125 1286 C 138 1303 153 1311 169 1311 C 185 1311 200 1304 213 1292 C 224 1283 236 1272 250 1259 C 263 1245 277 1231 292 1216 C 307 1201 323 1186 339 1172 C 355 1158 371 1145 387 1135 C 385 1155 381 1177 376 1201 C 370 1225 365 1248 359 1270 C 353 1292 348 1312 344 1330 C 340 1348 338 1363 338 1374 C 338 1412 357 1432 397 1432 C 418 1432 433 1426 443 1415 C 452 1404 457 1391 457 1376 C 457 1365 454 1350 450 1332 C 445 1313 440 1293 434 1271 C 428 1249 422 1226 416 1202 C 410 1178 405 1155 403 1135 C 419 1147 436 1160 452 1176 C 468 1191 484 1206 499 1221 C 514 1235 528 1249 542 1262 C 555 1275 567 1286 578 1294 C 593 1306 608 1312 623 1310 C 637 1308 649 1298 659 1282 C 671 1261 674 1244 667 1231 C 659 1217 647 1207 631 1200 C 619 1194 605 1188 589 1183 C 572 1177 554 1172 534 1166 C 514 1160 494 1153 472 1146 C 450 1139 429 1131 408 1122 C 448 1106 487 1092 525 1082 C 563 1072 597 1061 627 1049 C 647 1040 661 1027 668 1011 C 674 995 671 978 659 961 C 647 942 633 933 617 934 C 601 934 587 940 575 950 C 563 959 551 970 538 984 C 525 997 511 1011 497 1026 C 482 1040 467 1055 451 1070 C 435 1084 419 1098 403 1110 C 405 1090 410 1069 416 1045 C 422 1021 428 998 434 976 C 440 953 445 932 450 913 C 454 894 457 880 457 870 C 457 854 451 841 441 830 C 431 818 416 813 397 813 Z" unicode="*" />
<glyph horiz-adv-x="1151" d="M 532 489 L 82 489 L 82 573 L 532 573 L 532 1026 L 618 1026 L 618 573 L 1069 573 L 1069 489 L 618 489 L 618 39 L 532 39 L 532 489 Z" unicode="+" />
<glyph horiz-adv-x="530" d="M 432 45 C 432 0 422 -42 403 -83 C 384 -124 360 -162 330 -197 C 300 -231 266 -262 230 -289 C 193 -316 157 -338 121 -354 L 111 -334 C 142 -317 171 -297 197 -273 C 223 -249 245 -223 265 -195 C 284 -166 299 -135 311 -102 C 323 -68 330 -34 334 2 L 264 2 C 231 2 204 6 182 15 C 160 24 143 36 131 50 C 118 64 109 80 104 98 C 98 116 96 134 96 152 C 96 168 99 184 105 201 C 111 217 121 232 133 246 C 145 259 159 270 177 278 C 195 286 215 291 238 291 C 272 291 301 284 326 272 C 350 260 370 243 386 221 C 402 199 413 174 421 144 C 428 114 432 81 432 45 Z" unicode="," />
<glyph horiz-adv-x="770" d="M 61 606 L 709 606 L 709 432 L 61 432 L 61 606 Z" unicode="-" />
<glyph horiz-adv-x="530" d="M 424 133 C 424 111 419 90 411 71 C 403 52 391 36 377 22 C 363 8 346 -3 327 -11 C 307 -19 287 -23 266 -23 C 244 -23 224 -19 205 -11 C 186 -3 169 8 155 22 C 141 36 129 52 121 71 C 113 90 109 111 109 133 C 109 155 113 175 121 195 C 129 214 141 231 155 245 C 169 259 186 270 205 278 C 224 286 244 291 266 291 C 287 291 307 286 327 278 C 346 270 363 259 377 245 C 391 231 403 214 411 195 C 419 175 424 155 424 133 Z" unicode="." />
<glyph horiz-adv-x="827" d="M 63 -410 L 702 1540 L 764 1522 L 123 -426 L 63 -410 Z" unicode="/" />
<glyph horiz-adv-x="1268" d="M 1188 649 C 1188 543 1172 449 1142 365 C 1111 281 1070 210 1018 151 C 966 92 906 47 838 16 C 770 -15 699 -31 625 -31 C 537 -31 459 -14 392 19 C 324 53 268 98 222 156 C 176 213 142 279 119 354 C 95 429 84 508 84 592 C 84 696 99 791 131 875 C 162 959 204 1030 256 1088 C 308 1146 367 1191 435 1223 C 503 1254 573 1270 647 1270 C 734 1270 811 1253 879 1220 C 946 1186 1002 1141 1048 1085 C 1094 1029 1128 963 1152 888 C 1176 812 1188 733 1188 649 Z M 911 623 C 911 677 909 731 905 783 C 901 835 895 884 887 931 C 879 977 868 1020 854 1059 C 840 1098 823 1132 803 1160 C 783 1188 759 1211 732 1227 C 705 1243 674 1251 639 1251 C 594 1251 554 1235 520 1204 C 485 1172 456 1129 432 1073 C 408 1017 390 950 378 872 C 366 794 360 710 360 618 C 360 533 364 453 373 377 C 381 301 396 234 417 177 C 437 119 465 74 500 40 C 535 6 579 -10 631 -10 C 675 -10 715 5 750 37 C 785 68 814 112 838 168 C 862 224 880 290 892 368 C 904 446 911 531 911 623 Z" unicode="0" />
<glyph horiz-adv-x="877" d="M 819 0 L 127 0 L 127 14 C 136 14 147 15 161 17 C 175 18 189 20 204 22 C 218 24 233 26 248 29 C 262 32 275 35 287 39 C 307 45 324 55 336 71 C 348 87 354 106 354 129 L 354 1120 L 88 1104 L 88 1120 C 114 1124 138 1127 160 1130 C 182 1133 203 1136 223 1140 C 243 1144 264 1148 286 1152 C 307 1156 331 1162 358 1169 C 416 1182 464 1196 502 1211 C 540 1226 574 1243 604 1262 L 623 1262 C 614 1215 609 1165 607 1111 C 605 1057 604 1000 604 938 L 604 139 C 604 111 609 89 620 75 C 630 60 645 49 664 41 C 671 37 682 34 696 31 C 710 28 724 25 740 23 C 755 20 770 18 784 17 C 798 15 810 14 819 14 L 819 0 Z" unicode="1" />
<glyph horiz-adv-x="1159" d="M 1108 391 L 985 0 L 90 0 L 90 84 C 140 122 187 157 231 191 C 275 225 316 258 356 291 C 396 323 434 356 471 389 C 507 421 544 456 582 492 C 626 534 663 576 693 617 C 723 657 747 698 765 739 C 783 779 797 821 805 863 C 813 905 817 950 817 997 C 817 1075 799 1136 765 1181 C 731 1226 680 1249 612 1249 C 577 1249 545 1242 517 1230 C 489 1218 463 1201 440 1181 C 417 1160 397 1136 380 1109 C 363 1082 349 1054 337 1024 C 325 994 317 963 311 933 C 305 903 303 874 303 848 C 303 824 305 803 310 783 C 314 763 321 745 331 731 C 341 717 353 706 369 698 C 384 690 402 686 424 686 C 450 686 473 690 494 698 C 514 706 533 716 549 728 C 565 740 579 752 591 766 C 603 780 613 793 623 805 L 635 795 C 619 769 601 744 581 720 C 560 696 537 675 512 657 C 486 639 458 624 428 614 C 397 603 364 598 328 598 C 296 598 266 602 239 612 C 211 622 188 636 168 655 C 148 674 132 697 121 725 C 109 752 104 783 104 819 C 104 870 117 922 144 976 C 171 1029 209 1077 258 1121 C 307 1165 365 1200 433 1228 C 501 1256 575 1270 657 1270 C 715 1270 770 1262 820 1248 C 870 1233 913 1212 949 1184 C 985 1156 1014 1123 1034 1083 C 1054 1043 1065 997 1065 946 C 1065 876 1049 812 1019 754 C 988 696 943 639 884 585 C 824 531 751 477 665 424 C 578 371 479 316 367 258 L 295 201 L 881 201 C 907 201 931 207 952 219 C 973 231 992 247 1009 266 C 1026 285 1041 306 1055 330 C 1068 353 1080 375 1090 397 L 1108 391 Z" unicode="2" />
<glyph horiz-adv-x="1149" d="M 1061 395 C 1061 323 1044 260 1012 205 C 979 149 935 102 880 64 C 824 26 760 -3 686 -23 C 612 -43 533 -53 451 -53 C 399 -53 348 -47 298 -36 C 248 -24 204 -7 166 15 C 128 38 97 67 74 103 C 50 138 39 179 39 227 C 39 258 44 286 54 310 C 64 334 77 355 94 371 C 111 387 131 400 153 409 C 175 417 198 422 223 422 C 263 422 293 411 314 389 C 335 367 346 341 346 309 C 346 291 342 275 336 263 C 329 250 321 239 311 229 C 301 219 291 210 279 202 C 267 194 257 185 247 177 C 237 168 229 159 223 150 C 216 140 213 129 213 117 C 213 99 217 81 226 63 C 235 45 249 28 267 14 C 285 0 309 -12 338 -21 C 366 -30 400 -35 440 -35 C 485 -35 529 -23 571 -1 C 613 21 651 52 683 92 C 715 132 741 179 761 233 C 781 287 791 346 791 410 C 791 447 788 480 783 510 C 777 540 769 565 757 585 C 745 605 729 621 710 632 C 691 643 668 649 641 649 C 621 649 602 645 583 637 C 564 629 545 618 527 606 C 508 593 490 579 473 564 C 455 549 439 534 424 520 L 393 559 C 447 595 497 630 543 662 C 589 694 630 727 664 761 C 698 795 724 832 743 872 C 762 912 772 958 772 1012 C 772 1046 768 1077 762 1106 C 755 1134 744 1159 730 1180 C 716 1201 697 1217 675 1229 C 653 1241 626 1247 594 1247 C 560 1247 527 1239 496 1224 C 465 1208 438 1188 415 1163 C 392 1137 374 1108 360 1074 C 346 1040 340 1005 340 969 C 340 927 348 894 366 869 C 383 843 410 831 446 831 C 459 831 472 833 485 837 C 498 841 510 847 522 854 C 534 861 545 869 555 877 C 565 885 574 893 582 901 L 592 891 C 580 875 565 858 546 840 C 527 822 506 805 484 790 C 462 774 439 762 416 752 C 393 742 372 737 354 737 C 320 737 289 741 263 751 C 237 760 215 773 198 789 C 180 805 167 824 158 846 C 149 868 145 892 145 918 C 145 965 158 1010 186 1053 C 213 1095 250 1133 297 1165 C 344 1197 399 1222 461 1241 C 523 1260 589 1270 659 1270 C 725 1270 781 1261 829 1245 C 877 1228 916 1207 947 1181 C 977 1155 1000 1126 1014 1094 C 1028 1062 1036 1030 1036 999 C 1036 965 1028 932 1013 900 C 998 868 974 838 942 811 C 909 784 867 760 815 740 C 763 720 701 704 629 694 L 596 666 C 598 666 605 667 615 668 C 625 669 636 670 648 671 C 660 672 671 673 681 674 C 691 675 698 676 702 676 C 726 676 752 674 780 670 C 808 666 835 660 862 652 C 888 643 914 632 938 618 C 962 604 983 586 1001 566 C 1019 545 1034 520 1045 492 C 1055 464 1061 431 1061 395 Z" unicode="3" />
<glyph horiz-adv-x="1190" d="M 1096 231 L 1079 231 C 1078 243 1077 257 1075 271 C 1073 285 1070 299 1067 313 C 1063 327 1059 340 1054 352 C 1048 364 1042 375 1036 383 C 1026 396 1010 406 989 413 C 967 420 943 424 915 424 L 823 424 L 823 137 C 823 115 828 96 838 78 C 848 60 862 47 881 39 C 888 35 897 32 909 29 C 921 26 933 24 946 22 C 959 20 972 18 985 17 C 997 15 1008 14 1018 14 L 1018 0 L 373 0 L 373 14 C 382 14 393 15 407 16 C 420 17 433 18 447 20 C 461 22 474 24 486 26 C 498 28 508 30 516 33 C 534 39 549 50 561 68 C 572 86 578 106 578 129 L 578 424 L 37 424 L 37 451 L 725 1288 L 823 1288 L 823 475 L 909 475 C 938 475 963 478 984 484 C 1005 490 1022 501 1034 516 C 1040 524 1046 533 1052 544 C 1057 555 1062 567 1066 580 C 1070 592 1073 605 1075 618 C 1077 631 1078 643 1079 655 L 1096 655 L 1096 231 Z M 578 475 L 578 1051 L 100 475 L 578 475 Z" unicode="4" />
<glyph horiz-adv-x="1081" d="M 1026 1266 C 990 1204 948 1153 898 1115 C 848 1077 796 1047 742 1025 C 688 1003 636 989 585 982 C 534 974 490 971 453 971 C 441 971 425 971 407 971 C 389 971 371 972 353 973 C 335 973 318 974 304 975 C 290 975 281 976 279 977 L 201 647 C 217 661 235 677 255 694 C 275 710 298 725 325 739 C 351 752 382 763 418 772 C 453 781 495 786 543 786 C 602 786 658 778 712 763 C 765 747 812 724 852 692 C 892 660 923 620 947 572 C 971 524 983 467 983 401 C 983 333 968 273 940 220 C 912 166 873 121 824 84 C 775 47 718 19 653 0 C 588 -19 519 -29 446 -29 C 389 -29 336 -23 288 -11 C 240 0 198 17 163 39 C 128 61 101 87 81 118 C 61 149 51 184 51 223 C 51 251 55 274 65 294 C 74 313 86 329 100 341 C 114 353 130 361 148 367 C 165 372 181 375 197 375 C 233 375 261 364 283 343 C 304 321 315 295 315 264 C 315 244 312 226 307 212 C 302 197 296 183 290 171 C 283 158 276 145 270 133 C 263 120 258 106 256 90 C 258 77 263 64 272 52 C 281 40 294 29 310 20 C 326 10 345 3 367 -3 C 389 -9 415 -12 444 -12 C 490 -12 530 1 564 28 C 598 55 626 90 648 134 C 670 178 686 227 697 283 C 707 338 713 394 713 451 C 713 548 692 623 652 676 C 611 729 553 756 479 756 C 452 756 424 751 395 742 C 366 733 338 720 311 704 C 284 688 259 668 237 645 C 214 621 196 595 182 567 L 156 573 L 311 1264 L 334 1264 C 340 1256 354 1247 374 1238 C 394 1228 419 1220 448 1212 C 477 1204 510 1197 547 1192 C 583 1186 622 1184 662 1184 C 734 1184 799 1190 859 1203 C 918 1216 970 1240 1016 1276 L 1026 1266 Z" unicode="5" />
<glyph horiz-adv-x="1169" d="M 1094 1210 C 1094 1170 1083 1138 1063 1116 C 1043 1094 1012 1083 971 1083 C 941 1083 917 1089 899 1101 C 881 1113 868 1130 858 1151 C 848 1172 840 1196 834 1224 C 828 1252 823 1281 817 1311 C 809 1344 798 1368 784 1382 C 770 1396 748 1403 719 1403 C 675 1403 634 1384 596 1347 C 557 1310 522 1260 491 1196 C 459 1132 432 1058 409 973 C 386 887 369 796 358 700 L 369 696 C 409 758 456 804 512 834 C 567 864 630 879 700 879 C 748 879 794 869 839 849 C 884 829 924 800 959 762 C 993 724 1021 679 1042 626 C 1062 572 1073 512 1073 446 C 1073 412 1069 377 1062 341 C 1055 304 1044 268 1028 233 C 1012 197 991 164 965 132 C 939 100 908 72 870 48 C 832 24 788 4 738 -9 C 688 -23 630 -31 565 -31 C 501 -31 440 -17 384 8 C 327 34 277 73 235 124 C 193 174 159 237 135 311 C 110 385 98 469 98 565 C 98 645 106 722 124 796 C 142 870 166 940 198 1004 C 229 1068 266 1127 310 1180 C 354 1232 402 1277 454 1315 C 506 1353 561 1382 619 1403 C 677 1423 737 1434 799 1434 C 855 1434 901 1426 939 1411 C 977 1395 1007 1376 1030 1354 C 1053 1331 1069 1307 1079 1281 C 1089 1255 1094 1231 1094 1210 Z M 803 444 C 803 498 799 549 791 595 C 783 641 770 680 752 714 C 734 747 712 773 685 792 C 657 811 624 821 586 821 C 554 821 524 812 496 795 C 468 777 443 751 422 716 C 400 681 383 638 371 586 C 358 534 352 473 352 403 C 352 341 357 285 367 235 C 377 184 391 140 410 104 C 428 68 451 40 479 20 C 506 0 537 -10 571 -10 C 605 -10 635 -2 660 12 C 684 27 705 47 723 71 C 740 95 754 123 764 155 C 774 187 782 219 788 253 C 794 287 798 320 800 353 C 802 386 803 416 803 444 Z" unicode="6" />
<glyph horiz-adv-x="1018" d="M 1055 1198 C 1017 1146 984 1098 956 1055 C 927 1012 901 969 877 926 C 853 883 830 838 808 792 C 786 745 763 693 739 635 C 720 588 702 540 686 491 C 670 442 655 390 643 336 C 630 281 619 223 611 161 C 602 99 596 31 592 -41 C 588 -104 573 -154 549 -191 C 524 -227 487 -246 438 -246 C 398 -246 367 -234 345 -210 C 322 -186 311 -146 311 -90 C 311 -62 317 -27 329 14 C 341 56 357 101 378 151 C 399 201 424 253 453 308 C 481 362 512 417 545 471 C 575 521 604 568 631 610 C 657 652 684 694 711 735 C 738 776 766 818 796 861 C 826 904 859 952 897 1004 L 305 1004 C 276 1004 250 998 228 986 C 206 974 186 957 168 936 C 150 915 134 890 120 862 C 106 833 94 802 82 770 L 61 776 L 190 1333 L 205 1333 L 229 1219 L 1055 1219 L 1055 1198 Z" unicode="7" />
<glyph horiz-adv-x="1149" d="M 1057 379 C 1057 315 1042 258 1014 208 C 986 157 948 114 900 78 C 852 42 796 15 734 -4 C 671 -23 605 -33 537 -33 C 473 -33 414 -25 360 -10 C 306 5 259 26 220 54 C 181 82 151 114 129 152 C 107 190 96 231 96 276 C 96 315 104 351 122 384 C 140 416 163 445 191 471 C 219 497 250 519 284 538 C 318 557 353 573 387 586 C 343 606 305 628 274 650 C 242 672 217 695 197 721 C 177 747 162 775 153 806 C 143 836 139 871 139 909 C 139 961 151 1010 177 1056 C 202 1101 235 1140 277 1174 C 319 1208 367 1234 421 1253 C 475 1272 532 1282 590 1282 C 651 1282 707 1275 757 1261 C 807 1247 850 1227 886 1201 C 922 1175 949 1145 969 1109 C 989 1073 999 1034 999 991 C 999 963 993 937 981 911 C 969 885 952 861 930 838 C 908 814 881 793 851 773 C 820 753 786 735 750 719 C 792 700 832 680 870 660 C 908 639 940 615 968 589 C 995 563 1017 532 1033 498 C 1049 464 1057 424 1057 379 Z M 860 264 C 860 294 854 320 843 344 C 831 368 815 389 794 409 C 772 429 746 446 716 462 C 685 478 650 492 612 506 L 414 575 C 374 545 341 505 316 455 C 291 405 279 347 279 279 C 279 242 284 206 296 172 C 307 138 324 107 348 81 C 371 54 401 32 437 16 C 473 0 517 -8 567 -8 C 611 -8 652 0 688 14 C 724 28 754 48 780 73 C 805 98 825 127 839 160 C 853 193 860 228 860 264 Z M 838 993 C 838 1027 832 1060 822 1092 C 812 1124 796 1153 775 1178 C 754 1202 727 1222 695 1237 C 663 1252 625 1260 582 1260 C 536 1260 498 1252 466 1238 C 434 1224 407 1205 387 1182 C 366 1159 351 1134 342 1106 C 332 1078 328 1050 328 1022 C 328 972 344 929 378 894 C 412 858 460 828 522 803 C 552 789 584 776 620 764 C 655 751 689 740 723 731 C 763 755 792 790 810 834 C 828 878 838 931 838 993 Z" unicode="8" />
<glyph horiz-adv-x="1169" d="M 1069 666 C 1069 587 1061 511 1045 437 C 1029 363 1007 294 978 229 C 948 164 913 105 871 51 C 829 -3 781 -49 728 -88 C 674 -126 616 -156 553 -178 C 490 -200 423 -211 352 -211 C 300 -211 254 -204 216 -192 C 178 -179 146 -162 121 -142 C 95 -122 76 -99 64 -73 C 51 -47 45 -20 45 6 C 45 47 56 79 80 102 C 103 125 136 137 180 137 C 208 137 231 129 247 115 C 263 101 275 83 284 61 C 292 39 299 16 303 -10 C 307 -36 313 -60 319 -84 C 330 -120 344 -145 362 -160 C 379 -174 402 -182 430 -182 C 466 -182 499 -172 530 -153 C 561 -134 590 -108 616 -75 C 642 -41 666 -2 688 43 C 709 89 728 138 744 192 C 760 245 774 301 785 360 C 796 418 805 477 811 537 L 801 539 C 782 513 761 489 739 467 C 716 445 691 427 663 411 C 635 395 606 383 574 375 C 542 366 507 362 471 362 C 421 362 374 371 329 390 C 283 409 243 437 209 474 C 175 510 147 555 127 609 C 106 663 96 724 96 793 C 96 829 100 865 108 903 C 116 940 128 976 145 1012 C 162 1047 184 1080 211 1112 C 237 1143 269 1170 305 1194 C 341 1217 383 1235 431 1249 C 478 1263 531 1270 590 1270 C 650 1270 709 1258 767 1236 C 825 1213 876 1177 921 1129 C 965 1080 1001 1017 1028 941 C 1055 865 1069 773 1069 666 Z M 819 825 C 819 889 813 948 801 1000 C 789 1052 773 1096 753 1133 C 732 1170 707 1199 679 1219 C 651 1239 620 1249 588 1249 C 554 1249 526 1242 502 1228 C 478 1214 458 1196 442 1174 C 426 1151 413 1125 403 1095 C 393 1065 385 1035 380 1003 C 374 971 371 938 369 906 C 367 874 367 844 367 817 C 367 757 371 704 380 656 C 388 608 401 567 419 533 C 437 499 459 472 487 454 C 515 435 548 426 586 426 C 614 426 642 433 670 448 C 698 462 723 485 745 517 C 767 549 784 590 798 641 C 812 691 819 753 819 825 Z" unicode="9" />
<glyph horiz-adv-x="590" d="M 295 -18 C 273 -18 253 -14 235 -7 C 216 0 200 10 186 24 C 172 37 161 53 153 71 C 145 89 141 109 141 131 C 141 152 145 172 153 191 C 161 209 172 226 186 240 C 200 254 216 265 235 273 C 253 281 273 285 295 285 C 315 285 335 281 353 273 C 371 265 387 254 401 240 C 415 226 426 209 434 191 C 442 172 446 152 446 131 C 446 109 442 89 434 71 C 426 53 415 37 401 24 C 387 10 371 0 353 -7 C 335 -14 315 -18 295 -18 Z M 295 635 C 273 635 253 639 235 647 C 216 655 200 665 186 679 C 172 692 161 708 153 726 C 145 744 141 764 141 786 C 141 807 145 827 153 846 C 161 864 172 881 186 895 C 200 909 216 920 235 928 C 253 936 273 940 295 940 C 315 940 335 936 353 928 C 371 920 387 909 401 895 C 415 881 426 864 434 846 C 442 827 446 807 446 786 C 446 764 442 744 434 726 C 426 708 415 692 401 679 C 387 665 371 655 353 647 C 335 639 315 635 295 635 Z" unicode=":" />
<glyph horiz-adv-x="590" d="M 143 -344 C 205 -308 256 -260 294 -199 C 332 -138 354 -70 360 4 L 293 4 C 262 4 236 8 216 16 C 195 24 178 35 166 49 C 154 63 145 78 140 95 C 135 112 133 129 133 147 C 133 163 136 179 142 195 C 148 211 158 225 170 238 C 182 251 196 262 214 270 C 231 278 250 283 272 283 C 304 283 332 277 356 266 C 380 254 399 238 415 218 C 430 197 441 172 449 144 C 457 115 461 83 461 49 C 461 15 456 -16 446 -46 C 436 -76 424 -105 408 -132 C 392 -159 373 -184 352 -208 C 330 -231 308 -252 285 -272 C 262 -291 239 -308 216 -323 C 192 -337 170 -350 150 -360 L 143 -344 Z M 295 635 C 273 635 253 639 235 647 C 216 655 200 665 186 679 C 172 692 161 708 153 726 C 145 744 141 764 141 786 C 141 807 145 827 153 846 C 161 864 172 881 186 895 C 200 909 216 920 235 928 C 253 936 273 940 295 940 C 315 940 335 936 353 928 C 371 920 387 909 401 895 C 415 881 426 864 434 846 C 442 827 446 807 446 786 C 446 764 442 744 434 726 C 426 708 415 692 401 679 C 387 665 371 655 353 647 C 335 639 315 635 295 635 Z" unicode=";" />
<glyph horiz-adv-x="1151" d="M 115 500 L 115 565 L 1020 997 L 1020 909 L 223 532 L 1020 156 L 1020 68 L 115 500 Z" unicode="&#x3C;" />
<glyph horiz-adv-x="1151" d="M 123 401 L 1028 401 L 1028 317 L 123 317 L 123 401 Z M 123 748 L 1028 748 L 1028 664 L 123 664 L 123 748 Z" unicode="=" />
<glyph horiz-adv-x="1151" d="M 131 156 L 926 532 L 131 909 L 131 997 L 1036 565 L 1036 500 L 131 68 L 131 156 Z" unicode="&#x3E;" />
<glyph horiz-adv-x="1008" d="M 915 1026 C 915 964 903 906 880 854 C 857 802 824 756 781 717 C 738 678 686 647 625 623 C 564 599 496 584 420 580 L 408 395 L 385 395 L 383 776 C 429 782 471 791 509 805 C 547 818 579 837 605 861 C 631 885 651 916 665 953 C 679 989 686 1033 686 1085 C 686 1193 666 1274 627 1328 C 588 1382 533 1409 463 1409 C 431 1409 401 1403 373 1392 C 344 1380 323 1367 311 1352 C 315 1342 319 1331 324 1320 C 329 1309 334 1297 339 1284 C 343 1271 347 1257 351 1241 C 354 1225 356 1208 356 1190 C 356 1168 352 1149 344 1132 C 336 1115 325 1101 313 1090 C 300 1078 286 1070 270 1064 C 254 1058 237 1055 221 1055 C 198 1055 178 1058 162 1066 C 146 1073 132 1083 122 1095 C 111 1107 103 1122 98 1140 C 92 1157 90 1176 90 1196 C 90 1226 99 1255 118 1283 C 136 1311 162 1337 196 1359 C 229 1381 269 1398 316 1412 C 363 1425 415 1432 471 1432 C 541 1432 603 1422 658 1402 C 713 1382 760 1355 798 1319 C 836 1283 865 1241 885 1191 C 905 1141 915 1086 915 1026 Z M 561 129 C 561 107 557 87 549 69 C 541 50 530 34 516 20 C 502 6 485 -5 466 -13 C 447 -21 427 -25 406 -25 C 384 -25 363 -21 344 -13 C 325 -5 309 6 295 20 C 281 34 270 50 262 69 C 254 87 250 107 250 129 C 250 150 254 170 262 189 C 270 208 281 225 295 239 C 309 253 325 264 344 272 C 363 280 384 285 406 285 C 427 285 447 280 466 272 C 485 264 502 253 516 239 C 530 225 541 208 549 189 C 557 170 561 150 561 129 Z" unicode="?" />
<glyph horiz-adv-x="2068" d="M 1047 -440 C 972 -440 899 -432 828 -416 C 756 -400 689 -377 625 -346 C 561 -315 502 -277 448 -231 C 394 -185 348 -133 309 -73 C 270 -13 240 52 218 126 C 196 200 186 280 186 367 C 186 459 198 548 223 632 C 247 716 282 794 326 866 C 370 938 423 1004 485 1063 C 547 1121 614 1171 688 1213 C 762 1254 840 1286 924 1309 C 1008 1331 1094 1343 1182 1343 C 1284 1343 1376 1326 1458 1294 C 1540 1261 1611 1215 1669 1157 C 1727 1099 1771 1029 1803 949 C 1835 868 1851 780 1851 684 C 1851 628 1845 574 1833 522 C 1821 470 1805 421 1784 375 C 1762 329 1737 288 1707 250 C 1677 212 1645 180 1610 153 C 1574 126 1536 105 1496 90 C 1456 75 1414 68 1372 68 C 1343 68 1316 71 1291 78 C 1266 85 1244 96 1226 110 C 1207 124 1192 142 1182 164 C 1171 186 1165 211 1165 240 L 1159 242 C 1145 218 1129 196 1112 176 C 1094 156 1075 138 1055 122 C 1035 106 1013 94 991 85 C 969 76 946 72 924 72 C 900 72 876 76 851 85 C 825 93 802 108 781 129 C 759 150 742 178 728 213 C 714 248 707 292 707 344 C 707 376 711 411 721 449 C 731 487 745 526 764 565 C 782 604 805 642 831 679 C 857 716 888 749 922 777 C 956 805 993 828 1033 846 C 1073 863 1117 872 1163 872 C 1200 872 1233 860 1261 838 C 1289 816 1306 785 1313 745 L 1319 745 L 1362 860 L 1518 860 L 1325 309 C 1319 292 1313 273 1308 251 C 1302 229 1300 210 1300 193 C 1300 163 1306 139 1320 119 C 1334 99 1357 90 1389 90 C 1421 90 1453 96 1487 109 C 1520 122 1552 141 1583 166 C 1614 190 1643 220 1671 256 C 1699 292 1723 332 1743 377 C 1763 421 1780 470 1792 524 C 1804 578 1810 635 1810 696 C 1810 784 1794 865 1763 939 C 1732 1012 1689 1075 1634 1128 C 1578 1180 1512 1221 1436 1250 C 1359 1279 1275 1294 1184 1294 C 1121 1294 1058 1284 995 1266 C 932 1248 872 1221 814 1185 C 756 1149 701 1104 651 1052 C 600 1000 556 940 519 872 C 481 804 452 728 431 646 C 409 563 399 473 399 377 C 399 253 417 144 453 50 C 489 -44 539 -122 602 -186 C 664 -249 738 -297 822 -329 C 906 -361 995 -377 1090 -377 C 1184 -377 1275 -364 1362 -339 C 1448 -313 1528 -275 1601 -223 C 1674 -171 1739 -107 1796 -29 C 1852 48 1899 139 1935 244 L 1954 238 C 1920 124 1872 24 1810 -60 C 1748 -144 1678 -215 1598 -271 C 1518 -327 1430 -370 1336 -398 C 1242 -426 1145 -440 1047 -440 Z M 954 113 C 978 113 1000 118 1020 128 C 1040 138 1060 152 1078 170 C 1096 188 1112 208 1128 232 C 1144 255 1159 279 1174 305 L 1305 698 C 1300 726 1293 749 1284 768 C 1275 787 1265 802 1253 814 C 1241 826 1227 834 1212 839 C 1196 843 1180 846 1163 846 C 1135 846 1109 836 1084 818 C 1058 800 1034 775 1012 745 C 990 715 969 680 951 641 C 933 601 917 561 904 519 C 891 477 881 435 873 393 C 865 351 862 313 862 279 C 862 243 865 215 871 193 C 877 171 884 155 893 143 C 902 131 912 123 923 119 C 933 115 944 113 954 113 Z" unicode="@" />
<glyph horiz-adv-x="1395" d="M 1454 0 L 758 0 L 758 14 C 776 14 797 16 821 19 C 845 21 868 25 890 31 C 912 36 932 43 948 52 C 964 60 973 71 975 84 C 976 92 976 100 974 110 C 972 119 970 127 967 133 L 825 508 L 340 508 C 333 490 324 468 314 441 C 303 413 292 385 282 357 C 271 328 261 301 252 277 C 243 252 237 234 233 223 C 225 198 219 174 213 152 C 207 129 205 111 205 98 C 205 80 214 65 233 55 C 252 44 275 36 302 30 C 328 24 356 20 384 18 C 412 16 435 14 453 14 L 453 0 L -59 0 L -59 14 C -41 15 -21 18 1 22 C 23 26 43 33 61 45 C 86 60 108 82 127 110 C 145 138 162 171 178 207 C 196 251 219 304 245 368 C 271 431 300 499 330 573 C 360 647 392 723 424 802 C 456 881 488 958 519 1034 C 550 1109 579 1180 606 1247 C 633 1313 656 1371 676 1421 L 748 1421 C 774 1354 804 1280 836 1198 C 868 1116 902 1031 936 945 C 970 858 1004 772 1038 687 C 1071 601 1102 522 1131 450 C 1159 378 1184 314 1206 260 C 1227 206 1243 167 1253 143 C 1261 122 1271 103 1282 86 C 1292 69 1310 54 1335 41 C 1352 31 1371 25 1393 21 C 1414 17 1434 15 1454 14 L 1454 0 Z M 811 541 L 586 1118 L 352 541 L 811 541 Z" unicode="A" />
<glyph horiz-adv-x="1376" d="M 1303 375 C 1303 307 1288 249 1258 201 C 1228 153 1189 115 1140 85 C 1090 55 1033 33 968 20 C 903 6 836 0 766 0 L 59 0 L 59 14 C 68 14 80 15 95 17 C 109 18 124 20 140 22 C 155 24 169 27 183 29 C 196 31 206 34 213 37 C 237 46 254 59 263 77 C 271 94 276 114 276 137 L 276 1253 C 276 1275 271 1296 263 1314 C 254 1332 237 1347 213 1358 C 203 1362 191 1365 177 1368 C 163 1371 150 1374 136 1376 C 122 1378 108 1379 95 1381 C 82 1382 71 1383 63 1384 L 63 1399 L 778 1399 C 834 1399 890 1394 944 1384 C 998 1374 1047 1358 1089 1335 C 1131 1312 1164 1282 1190 1244 C 1216 1206 1229 1160 1229 1104 C 1229 1050 1219 1003 1199 965 C 1179 926 1151 893 1117 867 C 1083 840 1042 818 996 802 C 949 785 899 772 846 762 L 846 743 C 878 741 911 737 947 730 C 982 723 1016 713 1050 700 C 1084 687 1116 671 1147 652 C 1177 632 1204 609 1227 582 C 1250 555 1268 524 1282 490 C 1296 456 1303 417 1303 375 Z M 934 1073 C 934 1121 927 1163 913 1201 C 899 1238 880 1269 856 1295 C 832 1321 805 1340 775 1354 C 744 1367 712 1374 678 1374 C 670 1374 660 1374 650 1374 C 639 1374 628 1374 616 1374 C 604 1374 592 1373 580 1373 C 568 1373 558 1372 549 1372 L 549 754 L 635 754 C 689 754 734 762 772 779 C 810 796 841 819 865 849 C 889 878 906 912 917 950 C 928 988 934 1029 934 1073 Z M 999 401 C 999 446 992 488 978 528 C 964 568 944 602 917 632 C 890 662 857 685 817 703 C 777 720 732 729 680 729 C 672 729 662 728 650 728 C 638 728 625 727 612 727 C 599 726 587 725 576 725 C 564 724 555 723 549 723 L 549 131 C 555 93 570 66 596 49 C 622 31 663 23 721 23 C 754 23 784 28 811 38 C 838 48 862 63 882 81 C 902 99 920 120 935 144 C 949 168 961 195 971 223 C 981 251 988 280 992 310 C 996 340 999 371 999 401 Z" unicode="B" />
<glyph horiz-adv-x="1337" d="M 1317 360 C 1295 309 1267 260 1234 213 C 1200 166 1160 124 1114 88 C 1068 52 1014 23 954 1 C 894 -20 826 -31 750 -31 C 650 -31 558 -14 474 18 C 390 51 317 98 256 160 C 194 222 146 297 112 385 C 78 473 61 572 61 682 C 61 790 79 889 115 981 C 151 1072 202 1151 267 1218 C 331 1284 408 1336 497 1374 C 585 1411 682 1430 786 1430 C 827 1430 866 1426 904 1420 C 942 1414 977 1406 1009 1396 C 1041 1386 1071 1374 1097 1362 C 1123 1349 1146 1336 1165 1323 L 1233 1419 L 1253 1419 L 1262 905 L 1241 905 C 1218 977 1191 1043 1160 1104 C 1128 1164 1093 1217 1053 1261 C 1013 1305 968 1339 920 1364 C 871 1388 818 1401 762 1401 C 698 1401 642 1385 593 1353 C 544 1321 503 1276 470 1216 C 436 1156 411 1084 394 998 C 377 912 369 816 369 709 C 369 609 378 519 397 437 C 416 355 444 286 482 228 C 520 170 566 125 622 93 C 678 61 743 45 817 45 C 875 45 928 53 976 69 C 1024 85 1067 108 1106 138 C 1144 167 1179 202 1209 242 C 1239 282 1266 325 1290 373 L 1317 360 Z" unicode="C" />
<glyph horiz-adv-x="1577" d="M 66 0 L 66 14 C 78 14 91 15 105 17 C 119 18 133 19 147 21 C 161 23 173 25 185 27 C 197 29 206 32 213 35 C 237 43 254 55 263 72 C 271 88 276 108 276 131 L 276 1255 C 276 1277 271 1298 263 1317 C 254 1336 237 1350 213 1360 C 192 1368 169 1373 143 1377 C 117 1380 92 1382 70 1384 L 70 1399 L 748 1399 C 795 1399 847 1394 904 1385 C 960 1376 1017 1361 1074 1340 C 1131 1318 1186 1290 1240 1255 C 1293 1219 1340 1175 1382 1123 C 1423 1070 1456 1008 1481 937 C 1505 865 1518 783 1518 690 C 1518 610 1507 538 1486 473 C 1465 408 1436 350 1399 299 C 1361 247 1317 203 1266 166 C 1215 128 1160 97 1100 73 C 1040 48 978 30 912 18 C 846 6 780 0 713 0 L 66 0 Z M 549 170 C 552 122 569 85 599 61 C 629 37 678 25 745 25 C 825 25 895 41 953 73 C 1011 105 1058 151 1096 209 C 1133 267 1161 338 1179 420 C 1197 502 1206 592 1206 692 C 1206 792 1194 885 1171 969 C 1147 1053 1114 1125 1070 1185 C 1026 1245 974 1292 912 1326 C 850 1359 781 1376 705 1376 C 694 1376 682 1375 668 1375 C 654 1375 640 1374 626 1374 C 612 1374 598 1373 584 1373 C 570 1373 559 1372 549 1372 L 549 170 Z" unicode="D" />
<glyph horiz-adv-x="1354" d="M 59 0 L 59 14 C 71 14 84 15 99 17 C 113 18 128 20 142 22 C 156 24 170 27 183 29 C 195 31 205 34 213 37 C 237 45 254 57 263 74 C 271 90 276 110 276 133 L 276 1255 C 276 1277 271 1298 263 1316 C 255 1334 238 1348 213 1358 C 203 1361 192 1364 179 1367 C 166 1370 153 1373 139 1375 C 125 1377 111 1379 97 1381 C 83 1382 70 1383 59 1384 L 59 1399 L 1217 1399 L 1217 1059 L 1196 1059 C 1191 1074 1184 1092 1174 1113 C 1164 1133 1153 1155 1139 1177 C 1125 1199 1110 1220 1094 1242 C 1078 1264 1061 1283 1044 1301 C 1027 1319 1010 1333 992 1345 C 974 1357 958 1364 942 1366 C 930 1367 916 1368 900 1370 C 884 1371 868 1372 851 1373 C 834 1374 817 1375 800 1375 C 782 1375 766 1376 750 1376 L 549 1376 L 549 737 L 721 737 C 749 737 773 739 793 743 C 813 747 829 752 843 758 C 856 764 867 771 875 779 C 883 787 891 794 897 801 C 906 809 915 822 925 840 C 934 858 943 877 951 897 C 959 917 965 938 971 958 C 977 978 981 994 983 1008 L 1004 1008 L 1004 432 L 983 432 C 981 447 977 465 971 487 C 964 509 956 530 948 552 C 940 573 931 592 922 610 C 912 628 904 641 897 649 C 890 657 882 664 873 672 C 864 680 853 687 840 693 C 826 699 810 703 791 707 C 771 711 748 713 721 713 L 549 713 L 549 205 C 549 165 551 133 557 109 C 563 85 574 67 591 55 C 607 42 631 34 661 30 C 691 26 730 25 780 25 C 812 25 844 25 876 25 C 908 25 939 27 968 30 C 996 32 1022 37 1044 44 C 1066 50 1084 60 1096 72 C 1108 84 1120 99 1134 117 C 1148 135 1161 155 1175 177 C 1189 198 1202 220 1216 243 C 1230 265 1242 287 1254 308 C 1266 329 1276 348 1285 366 C 1294 384 1301 398 1307 410 L 1325 410 L 1298 0 L 59 0 Z" unicode="E" />
<glyph horiz-adv-x="1249" d="M 1231 1049 L 1212 1049 C 1207 1064 1200 1082 1190 1102 C 1180 1122 1169 1144 1156 1166 C 1142 1188 1128 1210 1112 1232 C 1096 1254 1079 1274 1062 1292 C 1045 1310 1028 1326 1011 1339 C 993 1351 977 1360 961 1364 C 949 1366 935 1368 919 1370 C 903 1371 887 1372 870 1373 C 852 1374 835 1375 818 1375 C 800 1375 784 1376 768 1376 L 549 1376 L 549 731 L 721 731 C 747 731 771 733 791 737 C 811 741 828 746 842 752 C 856 758 868 764 878 771 C 888 778 896 785 903 791 C 911 799 920 812 930 829 C 939 845 948 864 956 884 C 964 904 972 924 978 945 C 984 965 988 984 991 1001 L 1012 1001 L 1012 420 L 991 420 C 988 435 984 453 978 475 C 972 496 966 518 958 540 C 950 562 941 582 932 601 C 922 620 913 635 903 645 C 895 652 886 659 876 667 C 866 674 853 681 839 687 C 825 693 808 697 788 701 C 768 705 746 707 721 707 L 549 707 L 549 137 C 549 114 553 94 563 77 C 572 60 588 47 612 37 C 618 34 627 31 641 29 C 654 27 668 24 683 22 C 698 20 713 18 728 17 C 742 15 754 14 764 14 L 764 0 L 53 0 L 53 14 C 62 14 74 15 90 17 C 105 18 121 19 137 21 C 153 23 168 25 182 27 C 196 29 206 32 213 35 C 237 44 254 57 263 75 C 271 92 276 112 276 135 L 276 1255 C 276 1277 271 1297 263 1315 C 255 1333 238 1347 213 1358 C 203 1362 190 1365 176 1368 C 162 1371 147 1374 132 1376 C 116 1378 102 1379 88 1381 C 74 1382 62 1383 53 1384 L 53 1399 L 1231 1399 L 1231 1049 Z" unicode="F" />
<glyph horiz-adv-x="1520" d="M 1538 604 C 1528 602 1517 601 1506 600 C 1494 598 1483 597 1471 595 C 1459 593 1447 591 1436 589 C 1424 587 1414 584 1405 580 C 1380 569 1363 554 1355 536 C 1347 518 1343 497 1343 475 L 1343 -31 L 1327 -37 L 1204 92 C 1131 57 1053 28 971 4 C 888 -19 802 -31 713 -31 C 630 -31 550 -16 472 13 C 394 43 324 87 263 146 C 202 205 153 279 116 367 C 79 455 61 557 61 674 C 61 782 80 883 118 976 C 156 1068 208 1148 276 1215 C 344 1282 424 1335 517 1373 C 610 1411 711 1430 821 1430 C 861 1430 901 1426 941 1420 C 980 1414 1017 1405 1052 1395 C 1086 1385 1118 1373 1147 1360 C 1175 1347 1199 1334 1219 1321 L 1288 1419 L 1309 1419 L 1317 915 L 1296 915 C 1274 981 1247 1043 1215 1102 C 1183 1161 1145 1213 1103 1257 C 1061 1301 1014 1336 962 1362 C 910 1388 853 1401 791 1401 C 721 1401 659 1384 607 1351 C 554 1317 510 1270 475 1209 C 440 1147 414 1073 397 987 C 379 901 371 804 371 698 C 371 595 379 501 397 415 C 415 329 441 256 476 195 C 510 133 553 85 604 51 C 654 17 712 0 778 0 C 824 0 865 5 901 17 C 937 28 967 44 993 64 C 1018 84 1038 107 1054 134 C 1069 160 1080 189 1087 219 L 1087 459 C 1087 485 1082 509 1073 529 C 1064 549 1046 565 1020 575 C 1008 579 993 583 977 587 C 961 590 944 593 927 595 C 910 597 894 599 879 601 C 864 602 852 603 844 604 L 844 621 L 1538 621 L 1538 604 Z" unicode="G" />
<glyph horiz-adv-x="1729" d="M 1659 0 L 973 0 L 973 14 C 982 14 993 15 1007 17 C 1021 18 1035 19 1049 21 C 1063 23 1077 25 1089 27 C 1101 29 1111 32 1118 35 C 1142 43 1159 55 1168 72 C 1177 88 1182 108 1182 131 L 1182 711 L 549 711 L 549 139 C 549 116 553 96 563 78 C 572 60 588 46 612 37 C 618 34 627 31 639 29 C 651 27 664 24 678 22 C 692 20 706 18 720 17 C 734 15 747 14 758 14 L 758 0 L 70 0 L 70 14 C 82 14 94 15 108 17 C 122 18 135 19 149 21 C 162 23 174 25 186 27 C 197 29 206 32 213 35 C 237 43 254 55 263 72 C 271 88 276 108 276 131 L 276 1255 C 276 1277 271 1298 263 1316 C 254 1334 237 1348 213 1358 C 204 1360 194 1363 182 1366 C 170 1369 158 1372 145 1374 C 132 1376 119 1378 106 1380 C 93 1382 81 1383 70 1384 L 70 1399 L 758 1399 L 758 1384 C 748 1383 737 1382 724 1381 C 711 1379 698 1378 684 1376 C 670 1374 657 1371 644 1369 C 631 1367 620 1364 612 1362 C 586 1354 569 1341 561 1323 C 553 1305 549 1284 549 1262 L 549 743 L 1182 743 L 1182 1255 C 1182 1277 1177 1298 1167 1316 C 1157 1334 1141 1348 1118 1358 C 1109 1361 1098 1364 1086 1367 C 1073 1370 1060 1373 1046 1375 C 1032 1377 1019 1379 1006 1381 C 993 1382 982 1383 973 1384 L 973 1399 L 1659 1399 L 1659 1384 C 1648 1383 1636 1382 1623 1381 C 1610 1379 1597 1378 1585 1376 C 1572 1374 1560 1371 1548 1369 C 1536 1367 1526 1364 1518 1362 C 1492 1354 1474 1341 1466 1323 C 1458 1305 1454 1284 1454 1262 L 1454 139 C 1454 116 1458 96 1467 78 C 1475 60 1492 46 1518 37 C 1524 34 1532 31 1544 29 C 1555 27 1567 24 1581 22 C 1595 20 1608 18 1622 17 C 1636 15 1648 14 1659 14 L 1659 0 Z" unicode="H" />
<glyph horiz-adv-x="831" d="M 553 139 C 553 116 557 96 567 78 C 576 60 592 46 616 37 C 622 34 631 31 643 29 C 655 27 669 24 683 22 C 697 20 712 18 726 17 C 740 15 753 14 764 14 L 764 0 L 70 0 L 70 14 C 81 14 94 15 108 17 C 122 18 136 19 150 21 C 164 23 177 25 189 27 C 201 29 210 32 217 35 C 241 43 258 55 267 72 C 276 88 281 108 281 131 L 281 1255 C 281 1277 276 1298 267 1316 C 258 1334 241 1348 217 1358 C 208 1360 197 1363 185 1366 C 173 1369 160 1372 146 1374 C 132 1376 119 1378 106 1380 C 92 1382 80 1383 70 1384 L 70 1399 L 764 1399 L 764 1384 C 754 1383 743 1382 730 1381 C 716 1379 703 1378 689 1376 C 675 1374 661 1371 648 1369 C 635 1367 624 1364 616 1362 C 590 1354 573 1341 565 1323 C 557 1305 553 1284 553 1262 L 553 139 Z" unicode="I" />
<glyph horiz-adv-x="1040" d="M 1008 1384 C 998 1383 987 1382 974 1381 C 960 1380 947 1379 933 1377 C 919 1375 905 1372 892 1370 C 878 1367 867 1364 858 1362 C 832 1354 815 1341 807 1323 C 799 1305 795 1284 795 1262 L 795 401 C 795 347 783 294 760 242 C 737 190 705 143 663 102 C 621 61 570 28 511 3 C 452 -22 387 -35 315 -35 C 256 -35 206 -28 165 -16 C 124 -3 91 13 65 33 C 39 53 21 77 9 104 C -2 130 -8 158 -8 186 C -8 210 -4 233 3 253 C 11 273 22 291 37 306 C 51 320 69 332 89 340 C 109 348 132 352 158 352 C 206 352 243 337 270 309 C 297 280 311 242 311 195 C 311 153 298 117 274 87 C 250 56 218 33 178 18 L 178 8 C 183 5 190 3 198 1 C 206 -1 214 -2 222 -4 C 230 -6 238 -7 246 -8 C 254 -9 260 -10 266 -10 C 321 -10 365 0 399 18 C 433 36 459 63 477 97 C 495 131 507 173 513 222 C 519 270 522 325 522 385 L 522 1253 C 522 1275 517 1295 509 1313 C 500 1330 483 1344 459 1356 C 449 1360 436 1364 422 1368 C 408 1371 393 1374 378 1376 C 362 1378 347 1379 333 1381 C 319 1382 307 1383 297 1384 L 297 1399 L 1008 1399 L 1008 1384 Z" unicode="J" />
<glyph horiz-adv-x="1538" d="M 1597 0 L 842 0 L 842 14 C 862 15 883 17 903 20 C 923 22 940 27 956 33 C 972 39 984 47 994 58 C 1003 68 1008 82 1008 100 C 1008 111 1001 129 988 153 C 975 177 958 206 936 238 C 914 270 888 306 859 344 C 830 382 800 421 769 461 C 737 501 705 540 673 579 C 641 617 610 653 582 686 L 549 686 L 549 141 C 549 118 553 98 562 80 C 571 62 587 49 610 39 C 616 36 624 33 636 31 C 648 28 660 25 674 23 C 688 21 701 19 715 17 C 728 15 740 14 750 14 L 750 0 L 70 0 L 70 14 C 78 14 89 15 103 17 C 117 18 131 19 145 21 C 159 23 172 25 184 27 C 196 29 206 32 213 35 C 237 44 254 56 263 72 C 271 87 276 106 276 129 L 276 1255 C 276 1277 271 1297 263 1315 C 254 1333 237 1347 213 1358 C 204 1361 193 1364 181 1367 C 168 1370 155 1373 142 1375 C 128 1377 115 1379 102 1381 C 89 1382 78 1383 70 1384 L 70 1399 L 756 1399 L 756 1384 C 747 1383 736 1382 723 1381 C 710 1379 697 1378 684 1376 C 670 1374 657 1371 644 1369 C 631 1367 620 1364 612 1362 C 586 1354 569 1341 561 1323 C 553 1305 549 1284 549 1262 L 549 713 L 575 713 C 619 749 663 787 707 827 C 751 867 794 906 835 946 C 875 985 913 1023 949 1061 C 984 1099 1015 1134 1041 1166 C 1067 1198 1088 1227 1103 1252 C 1118 1277 1126 1297 1126 1313 C 1126 1326 1119 1337 1105 1345 C 1091 1353 1074 1360 1054 1366 C 1034 1371 1013 1375 991 1378 C 969 1380 951 1382 936 1384 L 936 1399 L 1489 1399 L 1489 1384 C 1467 1382 1444 1380 1419 1377 C 1394 1373 1369 1368 1344 1360 C 1318 1352 1293 1342 1268 1328 C 1242 1314 1218 1296 1196 1274 C 1154 1231 1116 1192 1082 1157 C 1048 1122 1015 1089 983 1057 C 951 1025 918 993 885 961 C 851 929 814 896 774 860 C 820 808 864 755 908 701 C 952 647 995 593 1038 537 C 1081 481 1124 424 1167 367 C 1209 309 1253 251 1298 193 C 1307 180 1317 167 1329 153 C 1340 139 1352 126 1366 112 C 1380 98 1395 86 1411 74 C 1427 62 1444 51 1462 43 C 1471 39 1481 35 1493 32 C 1505 28 1517 25 1529 23 C 1541 20 1553 18 1565 17 C 1577 15 1587 14 1597 14 L 1597 0 Z" unicode="K" />
<glyph horiz-adv-x="1280" d="M 1292 418 L 1266 0 L 61 0 L 61 14 C 69 14 81 15 95 17 C 109 18 124 20 139 22 C 154 24 168 26 182 28 C 195 30 205 33 213 37 C 237 46 254 59 263 77 C 271 94 276 114 276 137 L 276 1255 C 276 1277 271 1297 263 1315 C 255 1332 238 1346 213 1358 C 203 1362 192 1365 179 1368 C 165 1371 151 1374 137 1376 C 122 1378 108 1379 95 1381 C 81 1382 70 1383 61 1384 L 61 1399 L 760 1399 L 760 1384 C 750 1383 739 1382 726 1382 C 713 1381 700 1380 686 1379 C 672 1378 658 1377 645 1375 C 632 1373 621 1370 612 1368 C 586 1360 569 1346 561 1328 C 553 1309 549 1288 549 1266 L 549 207 C 549 165 552 133 558 109 C 564 85 575 66 592 54 C 608 42 632 34 662 30 C 692 26 731 25 780 25 C 811 25 841 25 870 26 C 899 27 926 29 951 33 C 976 36 998 41 1017 47 C 1036 53 1051 62 1063 74 C 1073 84 1085 98 1098 116 C 1111 134 1124 153 1138 174 C 1152 195 1166 217 1180 240 C 1194 263 1207 286 1219 308 C 1231 330 1242 350 1252 369 C 1262 388 1270 404 1276 418 L 1292 418 Z" unicode="L" />
<glyph horiz-adv-x="1925" d="M 1860 0 L 1139 0 L 1139 14 C 1147 14 1160 15 1176 17 C 1192 18 1208 20 1226 22 C 1243 24 1259 26 1275 29 C 1290 32 1301 35 1309 39 C 1332 51 1349 65 1359 82 C 1369 99 1374 119 1374 143 L 1374 1284 L 858 23 L 821 23 C 815 39 808 59 800 83 C 792 107 783 133 773 160 C 763 187 754 214 744 240 C 734 266 725 288 717 307 L 303 1253 L 303 326 C 303 286 304 252 307 222 C 310 192 314 167 320 146 C 326 124 333 106 341 92 C 349 77 359 65 371 55 C 379 47 393 41 413 37 C 432 32 452 28 474 25 C 495 21 515 19 535 17 C 554 15 568 14 578 14 L 578 0 L 16 0 L 16 14 C 24 14 37 15 53 16 C 69 17 87 19 105 22 C 123 24 142 28 160 33 C 178 37 193 44 205 53 C 228 70 245 100 255 143 C 265 185 270 246 270 324 L 270 1163 C 270 1247 249 1305 209 1337 C 197 1347 183 1354 168 1360 C 152 1366 136 1370 120 1374 C 104 1377 88 1379 72 1381 C 56 1382 41 1383 27 1384 L 27 1399 L 524 1399 L 973 391 L 1315 1225 C 1323 1243 1329 1261 1335 1279 C 1340 1297 1344 1314 1348 1330 C 1352 1346 1354 1360 1356 1372 C 1358 1384 1359 1393 1360 1399 L 1858 1399 L 1858 1384 C 1848 1383 1837 1382 1824 1381 C 1810 1379 1797 1378 1783 1376 C 1769 1374 1755 1371 1742 1368 C 1728 1365 1717 1362 1708 1360 C 1682 1351 1665 1338 1657 1320 C 1649 1302 1645 1282 1645 1260 L 1645 143 C 1645 120 1649 100 1659 84 C 1668 68 1684 54 1708 43 C 1714 39 1723 36 1736 33 C 1748 30 1762 27 1778 25 C 1793 22 1808 20 1823 18 C 1837 16 1850 14 1860 14 L 1860 0 Z" unicode="M" />
<glyph horiz-adv-x="1544" d="M 1561 1384 C 1552 1382 1539 1381 1523 1380 C 1507 1378 1489 1376 1471 1373 C 1452 1369 1434 1365 1416 1360 C 1398 1354 1384 1347 1372 1339 C 1360 1330 1349 1316 1341 1298 C 1333 1280 1326 1258 1321 1233 C 1316 1207 1312 1179 1310 1147 C 1308 1115 1307 1082 1307 1047 L 1307 -10 L 1245 -10 L 303 1186 L 303 346 C 303 303 304 266 307 235 C 310 203 314 176 320 154 C 326 131 333 112 341 98 C 349 83 359 71 371 63 C 381 55 395 49 414 43 C 432 37 452 32 473 28 C 493 24 513 20 531 18 C 549 16 562 14 571 14 L 571 0 L 16 0 L 16 14 C 24 14 37 16 54 18 C 71 20 89 23 108 27 C 127 31 145 35 163 40 C 181 45 195 51 205 59 C 228 77 245 109 255 154 C 265 198 270 260 270 340 L 270 1149 C 270 1164 268 1180 265 1196 C 262 1212 258 1227 252 1242 C 246 1257 238 1271 230 1284 C 221 1297 211 1309 201 1319 C 189 1329 175 1337 159 1345 C 143 1352 126 1358 108 1363 C 90 1367 71 1371 53 1374 C 34 1377 16 1380 0 1382 L 0 1399 L 467 1399 L 1274 379 L 1274 1044 C 1274 1120 1268 1184 1256 1234 C 1244 1284 1227 1319 1204 1339 C 1194 1347 1179 1353 1161 1359 C 1143 1365 1124 1369 1104 1373 C 1084 1376 1065 1378 1047 1380 C 1029 1382 1014 1383 1004 1384 L 1004 1399 L 1561 1399 L 1561 1384 Z" unicode="N" />
<glyph horiz-adv-x="1573" d="M 1509 709 C 1509 598 1491 496 1456 402 C 1420 308 1364 226 1288 156 C 1223 94 1149 47 1065 15 C 981 -17 885 -33 778 -33 C 682 -33 592 -16 507 16 C 421 49 345 97 279 160 C 211 222 158 297 119 385 C 80 472 61 572 61 684 C 61 802 79 906 117 997 C 154 1088 207 1167 276 1233 C 345 1299 423 1348 509 1382 C 595 1415 687 1432 786 1432 C 883 1432 975 1416 1062 1384 C 1148 1352 1228 1301 1300 1233 C 1365 1171 1416 1095 1453 1006 C 1490 917 1509 818 1509 709 Z M 1200 702 C 1200 761 1197 820 1191 878 C 1185 936 1175 991 1161 1043 C 1147 1095 1130 1144 1109 1188 C 1087 1232 1061 1271 1031 1303 C 1000 1335 964 1361 924 1379 C 883 1397 837 1407 786 1407 C 720 1407 661 1390 610 1358 C 558 1326 515 1279 480 1218 C 445 1156 418 1082 400 994 C 382 906 373 806 373 694 C 373 596 380 505 396 420 C 412 334 436 260 470 197 C 504 133 547 83 599 47 C 651 10 713 -8 786 -8 C 858 -8 920 10 972 46 C 1024 82 1067 132 1101 196 C 1135 259 1160 334 1176 421 C 1192 507 1200 601 1200 702 Z" unicode="O" />
<glyph horiz-adv-x="1280" d="M 1243 1059 C 1243 986 1227 923 1195 869 C 1163 815 1120 770 1068 735 C 1015 699 955 673 887 655 C 819 637 750 629 678 629 L 549 629 L 549 139 C 549 116 553 96 562 78 C 570 60 587 46 612 37 C 618 34 627 31 639 29 C 651 27 665 24 680 22 C 694 20 709 18 725 17 C 741 15 755 14 768 14 L 768 0 L 61 0 L 61 14 C 70 14 82 15 96 17 C 110 18 125 20 140 22 C 155 24 169 27 183 29 C 196 31 206 34 213 37 C 237 46 254 59 263 77 C 271 94 276 114 276 137 L 276 1255 C 276 1277 271 1298 263 1316 C 255 1334 238 1348 213 1358 C 201 1362 189 1365 175 1368 C 161 1371 146 1374 132 1376 C 117 1378 103 1379 90 1381 C 77 1382 66 1383 57 1384 L 57 1399 L 768 1399 C 840 1399 905 1391 964 1377 C 1022 1362 1072 1340 1114 1312 C 1155 1284 1187 1248 1209 1206 C 1231 1164 1243 1115 1243 1059 Z M 938 1010 C 938 1054 933 1098 924 1142 C 915 1185 900 1224 878 1258 C 856 1292 827 1319 791 1340 C 755 1361 709 1372 655 1372 L 549 1372 L 549 657 L 621 657 C 664 657 702 662 735 673 C 767 684 795 699 819 718 C 843 736 862 758 878 782 C 893 806 905 831 914 857 C 922 883 928 909 932 935 C 936 961 938 986 938 1010 Z" unicode="P" />
<glyph horiz-adv-x="1581" d="M 1700 -27 C 1690 -55 1673 -88 1650 -124 C 1626 -160 1597 -195 1563 -227 C 1528 -259 1488 -287 1442 -309 C 1396 -331 1346 -342 1290 -342 C 1244 -342 1201 -336 1160 -324 C 1119 -312 1082 -293 1049 -267 C 1015 -241 986 -207 962 -165 C 938 -123 920 -73 909 -14 C 865 -25 821 -31 778 -31 C 683 -31 593 -15 508 16 C 423 48 347 95 281 158 C 212 222 158 297 119 385 C 80 472 61 572 61 684 C 61 798 78 900 114 990 C 150 1080 201 1158 268 1225 C 336 1293 414 1345 502 1380 C 590 1414 685 1432 786 1432 C 884 1432 976 1415 1064 1383 C 1151 1350 1231 1299 1305 1229 C 1369 1168 1419 1093 1455 1004 C 1491 914 1509 816 1509 709 C 1509 641 1501 576 1486 514 C 1471 452 1449 394 1419 340 C 1389 286 1351 236 1305 191 C 1259 145 1206 106 1145 72 C 1157 23 1173 -17 1195 -50 C 1217 -83 1241 -110 1268 -130 C 1294 -150 1322 -164 1352 -173 C 1382 -181 1411 -186 1440 -186 C 1470 -186 1498 -181 1524 -172 C 1550 -162 1574 -150 1595 -134 C 1615 -118 1633 -100 1648 -80 C 1663 -60 1675 -39 1683 -18 L 1700 -27 Z M 1200 702 C 1200 762 1196 821 1190 879 C 1184 937 1174 993 1161 1045 C 1147 1097 1130 1146 1108 1190 C 1086 1234 1060 1272 1030 1304 C 999 1336 963 1362 923 1380 C 883 1398 837 1407 786 1407 C 720 1407 661 1390 610 1357 C 558 1324 515 1277 480 1216 C 445 1154 418 1079 400 991 C 382 903 373 804 373 694 C 373 648 374 603 378 558 C 382 513 388 470 396 428 C 404 386 414 346 426 308 C 438 270 453 237 471 207 C 487 249 507 286 531 316 C 555 346 580 371 607 391 C 633 411 661 425 690 435 C 719 444 748 449 776 449 C 812 449 847 442 881 430 C 915 417 946 398 975 374 C 1003 349 1029 319 1051 284 C 1073 248 1090 208 1104 164 C 1122 196 1138 233 1150 275 C 1162 316 1172 360 1180 407 C 1187 453 1192 502 1195 552 C 1198 602 1200 652 1200 702 Z M 903 10 C 895 72 885 125 875 171 C 864 217 851 254 835 284 C 819 314 800 336 778 351 C 756 365 730 373 700 373 C 684 373 666 369 647 363 C 627 357 608 346 588 332 C 568 317 548 297 530 273 C 512 249 496 218 483 182 C 561 58 662 -4 786 -4 C 807 -4 828 -2 848 0 C 868 3 886 6 903 10 Z" unicode="Q" />
<glyph horiz-adv-x="1503" d="M 1513 279 C 1513 233 1508 192 1498 155 C 1488 118 1472 86 1450 60 C 1428 33 1399 12 1363 -1 C 1327 -15 1284 -23 1233 -23 C 1189 -23 1151 -16 1119 -3 C 1087 9 1059 29 1035 57 C 1011 84 992 119 978 163 C 963 206 952 258 944 319 C 938 367 931 413 921 457 C 911 501 897 541 877 576 C 857 610 831 638 798 659 C 764 679 721 690 668 690 L 549 690 L 549 137 C 549 114 553 94 562 77 C 570 59 587 46 612 37 C 618 34 627 31 640 29 C 652 27 666 24 680 22 C 694 20 709 18 723 17 C 737 15 748 14 758 14 L 758 0 L 61 0 L 61 14 C 70 14 82 15 96 17 C 110 18 125 20 140 22 C 155 24 169 27 183 29 C 196 31 206 34 213 37 C 237 46 254 59 263 76 C 271 93 276 113 276 137 L 276 1255 C 276 1277 271 1298 263 1316 C 255 1334 238 1348 213 1358 C 203 1361 192 1364 179 1367 C 165 1370 151 1373 137 1375 C 122 1377 108 1379 95 1381 C 81 1382 70 1383 61 1384 L 61 1399 L 793 1399 C 857 1399 919 1393 977 1381 C 1035 1369 1085 1350 1129 1324 C 1173 1298 1207 1265 1233 1225 C 1259 1185 1272 1137 1272 1081 C 1272 1025 1260 976 1236 935 C 1212 894 1181 859 1143 831 C 1105 802 1062 779 1015 761 C 967 743 920 729 874 719 L 874 702 C 906 698 940 692 974 684 C 1008 676 1039 663 1069 647 C 1099 630 1125 609 1148 583 C 1171 557 1188 526 1198 489 C 1213 433 1225 380 1234 330 C 1242 280 1253 231 1266 182 C 1270 162 1277 145 1285 133 C 1293 121 1301 111 1310 105 C 1319 98 1328 93 1338 91 C 1347 89 1356 88 1364 88 C 1380 88 1395 92 1410 100 C 1424 108 1437 121 1449 137 C 1460 153 1469 173 1476 197 C 1483 221 1487 249 1487 281 L 1487 324 L 1513 324 L 1513 279 Z M 967 1042 C 967 1098 959 1146 945 1188 C 931 1229 911 1263 886 1291 C 860 1318 830 1338 795 1352 C 759 1365 720 1372 678 1372 L 549 1372 L 549 719 L 633 719 C 677 719 720 724 761 736 C 801 748 837 766 867 792 C 897 818 922 851 940 892 C 958 933 967 983 967 1042 Z" unicode="R" />
<glyph horiz-adv-x="1143" d="M 1079 403 C 1079 341 1066 283 1042 230 C 1017 177 983 131 939 93 C 895 55 843 25 783 3 C 722 -18 656 -29 584 -29 C 532 -29 484 -25 441 -18 C 398 -10 359 -1 325 9 C 291 20 261 32 235 45 C 209 58 188 70 172 82 L 104 -18 L 84 -18 L 72 477 L 90 477 C 114 411 142 349 174 291 C 206 233 241 182 281 139 C 320 95 364 61 413 36 C 461 10 515 -2 575 -2 C 623 -2 665 5 700 21 C 735 37 764 58 786 85 C 808 111 825 142 836 176 C 846 210 852 245 852 283 C 852 345 832 398 794 443 C 755 488 701 523 633 549 C 607 559 582 568 558 577 C 534 585 510 594 488 602 C 466 610 443 619 421 627 C 399 635 376 645 354 655 C 270 691 209 740 169 804 C 129 868 109 944 109 1034 C 109 1088 119 1140 141 1188 C 163 1236 193 1278 232 1314 C 271 1350 318 1378 373 1399 C 427 1419 488 1430 555 1430 C 595 1430 634 1427 671 1421 C 707 1415 741 1407 773 1397 C 804 1387 832 1376 858 1364 C 883 1352 904 1339 922 1327 L 985 1419 L 1006 1419 L 1014 944 L 995 944 C 975 1004 953 1061 927 1117 C 901 1172 871 1221 836 1263 C 801 1305 761 1339 715 1365 C 669 1390 617 1403 559 1403 C 527 1403 496 1397 467 1385 C 438 1373 413 1357 392 1336 C 370 1314 353 1289 341 1259 C 328 1229 322 1195 322 1159 C 322 1097 339 1045 373 1003 C 407 961 459 925 530 893 C 576 871 623 853 671 837 C 719 821 763 805 803 788 C 845 769 883 749 917 727 C 951 705 980 679 1004 649 C 1028 619 1046 584 1059 544 C 1072 504 1079 457 1079 403 Z" unicode="S" />
<glyph horiz-adv-x="1292" d="M 1286 1032 L 1268 1032 C 1264 1046 1257 1065 1248 1087 C 1238 1109 1227 1132 1215 1156 C 1202 1180 1188 1204 1173 1228 C 1157 1252 1141 1274 1125 1294 C 1109 1314 1092 1330 1076 1343 C 1060 1356 1044 1364 1030 1366 C 1006 1369 981 1371 953 1372 C 925 1373 898 1374 872 1374 L 782 1374 L 782 143 C 782 120 786 100 796 82 C 806 64 822 51 846 41 C 852 38 862 35 877 32 C 891 29 907 26 924 24 C 941 22 958 20 974 18 C 990 16 1002 14 1012 14 L 1012 0 L 281 0 L 281 14 C 289 14 302 15 318 17 C 334 18 350 20 367 22 C 383 24 399 27 414 29 C 428 31 439 34 446 37 C 471 46 488 60 497 78 C 505 96 510 116 510 139 L 510 1374 L 422 1374 C 410 1374 397 1373 383 1373 C 369 1373 356 1372 342 1372 C 328 1371 314 1370 301 1369 C 287 1368 275 1367 264 1366 C 249 1364 233 1356 217 1343 C 201 1330 184 1314 168 1294 C 152 1274 136 1252 120 1228 C 104 1204 90 1180 78 1156 C 65 1132 54 1109 45 1087 C 35 1065 29 1046 25 1032 L 6 1032 L 6 1399 L 1286 1399 L 1286 1032 Z" unicode="T" />
<glyph horiz-adv-x="1585" d="M 1587 1384 C 1576 1383 1562 1382 1545 1380 C 1528 1378 1511 1376 1493 1372 C 1475 1368 1457 1364 1440 1359 C 1423 1353 1409 1347 1399 1339 C 1373 1321 1356 1290 1347 1244 C 1337 1198 1333 1139 1333 1067 L 1333 434 C 1333 378 1325 328 1311 283 C 1296 238 1276 198 1251 164 C 1226 130 1197 100 1163 75 C 1129 50 1092 30 1054 14 C 1015 -2 975 -13 933 -21 C 891 -29 851 -33 811 -33 C 719 -33 638 -21 568 1 C 498 24 439 56 392 96 C 345 136 310 183 286 237 C 262 291 250 350 250 414 L 250 1257 C 250 1280 245 1300 235 1316 C 225 1332 209 1347 186 1360 C 176 1364 165 1368 153 1371 C 140 1373 127 1376 113 1378 C 99 1380 87 1381 75 1382 C 63 1382 53 1383 45 1384 L 45 1399 L 733 1399 L 733 1384 C 723 1383 712 1382 699 1381 C 686 1379 673 1378 659 1376 C 645 1374 632 1371 620 1369 C 607 1367 596 1364 588 1362 C 562 1354 545 1341 537 1323 C 528 1305 524 1284 524 1262 L 524 418 C 524 366 529 317 540 272 C 550 226 569 187 596 153 C 622 119 658 93 703 74 C 748 54 805 45 874 45 C 943 45 1004 55 1057 76 C 1110 96 1155 124 1191 160 C 1227 196 1254 238 1272 286 C 1290 334 1300 386 1300 442 L 1300 1059 C 1300 1139 1294 1201 1282 1245 C 1270 1289 1253 1319 1231 1335 C 1217 1344 1201 1352 1183 1358 C 1164 1364 1145 1368 1126 1372 C 1107 1376 1089 1378 1072 1380 C 1055 1382 1042 1383 1032 1384 L 1032 1399 L 1587 1399 L 1587 1384 Z" unicode="U" />
<glyph horiz-adv-x="1378" d="M 1440 1384 C 1419 1382 1400 1379 1382 1375 C 1364 1370 1345 1364 1327 1356 C 1313 1348 1300 1339 1289 1327 C 1277 1315 1267 1302 1258 1288 C 1248 1274 1240 1258 1232 1242 C 1224 1225 1217 1208 1210 1192 C 1202 1173 1190 1146 1175 1110 C 1160 1074 1143 1031 1123 983 C 1103 935 1081 882 1057 825 C 1033 767 1009 708 984 647 C 958 585 933 523 907 461 C 881 399 857 339 833 281 C 809 223 787 168 767 117 C 746 66 728 22 713 -16 L 643 -16 C 616 56 587 133 556 215 C 525 297 493 379 461 461 C 429 543 397 625 366 705 C 334 785 305 859 278 928 C 250 997 226 1059 204 1113 C 182 1167 166 1211 154 1243 C 142 1273 130 1296 118 1314 C 105 1332 87 1346 63 1358 C 28 1371 -11 1380 -57 1384 L -57 1399 L 629 1399 L 629 1384 C 564 1378 514 1371 478 1362 C 442 1352 424 1338 424 1319 C 422 1311 423 1303 425 1294 C 427 1284 430 1276 434 1268 C 442 1244 453 1212 469 1172 C 484 1131 502 1084 522 1032 C 542 980 565 923 589 862 C 613 801 637 739 662 675 C 686 611 711 547 736 483 C 760 419 783 359 805 301 C 821 339 839 382 859 430 C 879 478 900 528 921 580 C 942 632 963 684 985 736 C 1006 788 1026 838 1045 885 C 1063 931 1080 973 1095 1011 C 1109 1048 1121 1078 1130 1100 C 1147 1143 1160 1181 1169 1215 C 1177 1249 1182 1274 1182 1292 C 1182 1308 1175 1321 1163 1332 C 1151 1342 1134 1351 1112 1358 C 1090 1365 1065 1370 1036 1374 C 1007 1378 976 1381 942 1384 L 942 1399 L 1440 1399 L 1440 1384 Z" unicode="V" />
<glyph horiz-adv-x="2032" d="M 2091 1384 C 2071 1382 2051 1379 2031 1374 C 2011 1369 1990 1361 1970 1350 C 1956 1342 1944 1331 1933 1319 C 1922 1306 1912 1292 1902 1276 C 1892 1260 1884 1242 1876 1224 C 1868 1206 1860 1187 1853 1169 C 1844 1145 1833 1115 1819 1077 C 1805 1039 1790 996 1773 948 C 1755 900 1737 849 1717 793 C 1697 737 1676 680 1655 622 C 1634 564 1613 505 1592 446 C 1570 386 1550 329 1530 274 C 1510 218 1492 166 1474 116 C 1456 66 1441 22 1427 -16 L 1341 -16 C 1324 36 1306 93 1287 155 C 1267 217 1247 280 1227 345 C 1206 409 1185 474 1165 538 C 1144 602 1124 662 1106 720 C 1087 777 1070 830 1054 878 C 1038 926 1024 966 1014 999 L 641 -16 L 557 -16 C 536 50 513 123 487 205 C 461 286 435 369 407 455 C 379 541 352 625 325 709 C 298 793 273 870 250 942 C 227 1013 207 1075 190 1128 C 173 1181 161 1219 154 1243 C 147 1264 138 1284 127 1303 C 115 1322 99 1338 78 1352 C 59 1363 39 1371 18 1375 C -3 1379 -23 1382 -43 1384 L -43 1399 L 618 1399 L 618 1384 C 600 1382 579 1380 557 1378 C 534 1375 513 1371 493 1365 C 473 1359 456 1353 442 1345 C 428 1337 422 1327 422 1315 C 422 1311 422 1307 423 1302 C 423 1297 424 1292 425 1286 C 426 1280 427 1274 428 1269 C 429 1263 430 1259 432 1255 C 435 1243 442 1220 453 1186 C 464 1151 478 1109 494 1059 C 510 1009 528 954 548 893 C 568 831 588 768 609 703 C 630 637 651 572 672 507 C 692 442 712 381 731 324 L 999 1055 C 993 1075 986 1100 978 1130 C 969 1159 959 1188 948 1218 C 936 1247 924 1274 910 1298 C 896 1322 880 1340 864 1350 C 855 1355 845 1360 834 1364 C 822 1368 811 1371 799 1374 C 787 1377 775 1379 763 1381 C 751 1382 741 1383 731 1384 L 731 1399 L 1399 1399 L 1399 1384 C 1381 1382 1361 1380 1337 1378 C 1313 1375 1291 1371 1270 1366 C 1248 1360 1230 1353 1216 1345 C 1201 1337 1194 1327 1194 1315 C 1194 1307 1194 1298 1196 1286 C 1198 1274 1200 1263 1204 1255 C 1207 1244 1214 1221 1226 1187 C 1238 1152 1252 1110 1269 1060 C 1285 1010 1304 954 1325 892 C 1345 830 1367 767 1389 702 C 1411 636 1432 571 1454 506 C 1476 441 1496 380 1516 324 C 1530 364 1546 407 1563 455 C 1580 502 1597 550 1615 600 C 1633 649 1650 698 1667 747 C 1684 796 1700 842 1715 885 C 1729 928 1742 967 1754 1002 C 1765 1036 1774 1064 1780 1085 C 1795 1135 1806 1177 1814 1209 C 1821 1241 1825 1266 1825 1284 C 1825 1302 1816 1317 1800 1329 C 1784 1341 1764 1350 1740 1358 C 1716 1366 1690 1372 1662 1376 C 1634 1380 1608 1382 1585 1384 L 1585 1399 L 2091 1399 L 2091 1384 Z" unicode="W" />
<glyph horiz-adv-x="1544" d="M 1569 0 L 766 0 L 766 14 C 796 15 824 17 852 21 C 880 24 904 29 925 35 C 946 41 963 50 976 60 C 988 70 995 82 995 96 C 995 104 992 115 986 129 C 980 143 973 159 963 178 C 953 197 940 218 926 242 C 912 265 896 290 879 317 C 866 335 851 358 834 384 C 816 410 798 436 780 463 C 762 490 744 516 727 541 C 710 566 696 587 684 604 C 666 582 646 558 626 534 C 606 509 585 484 564 458 C 543 432 522 407 502 381 C 482 355 462 331 444 307 C 426 283 409 260 393 238 C 377 216 362 195 349 176 C 336 156 326 139 318 125 C 310 110 307 99 307 92 C 307 78 313 66 326 57 C 338 47 355 40 376 35 C 396 29 420 25 447 22 C 473 18 500 16 528 14 L 528 0 L -18 0 L -18 14 C 4 15 27 18 50 22 C 72 26 93 33 113 41 C 132 49 150 59 168 71 C 186 83 202 95 218 109 C 234 123 248 137 262 151 C 276 165 288 179 299 193 C 325 223 353 257 384 294 C 415 331 447 369 479 408 C 511 447 542 486 574 525 C 606 563 636 600 664 635 C 646 659 625 688 603 721 C 581 753 557 788 533 824 C 508 860 483 896 458 934 C 432 971 408 1007 385 1041 C 361 1075 339 1106 319 1135 C 299 1164 282 1188 268 1208 C 259 1220 249 1234 239 1249 C 228 1263 216 1277 203 1291 C 190 1304 176 1316 162 1328 C 147 1340 131 1350 115 1358 C 99 1365 80 1371 58 1375 C 35 1379 11 1382 -14 1384 L -14 1399 L 788 1399 L 788 1384 C 758 1382 729 1380 701 1378 C 673 1375 649 1371 627 1366 C 605 1360 588 1353 576 1345 C 563 1336 557 1325 557 1311 C 557 1301 560 1288 568 1270 C 575 1252 585 1231 598 1207 C 610 1183 625 1158 642 1131 C 658 1103 676 1076 694 1049 C 703 1035 714 1019 728 999 C 741 979 755 958 770 937 C 784 915 798 895 812 875 C 826 855 838 838 848 825 C 888 875 926 922 963 968 C 999 1013 1033 1056 1063 1098 C 1101 1149 1131 1193 1154 1229 C 1176 1265 1188 1292 1188 1309 C 1188 1323 1181 1334 1168 1343 C 1155 1352 1138 1359 1117 1365 C 1096 1370 1072 1374 1046 1377 C 1019 1379 992 1382 965 1384 L 965 1399 L 1513 1399 L 1513 1384 C 1489 1382 1465 1379 1441 1375 C 1417 1371 1397 1365 1382 1358 C 1345 1341 1311 1319 1280 1291 C 1248 1263 1221 1235 1198 1206 C 1178 1182 1154 1154 1128 1122 C 1101 1089 1073 1054 1044 1018 C 1014 982 984 945 954 907 C 924 869 895 833 868 799 C 890 767 914 733 940 695 C 966 657 993 619 1021 579 C 1048 539 1075 500 1102 461 C 1129 421 1154 384 1178 349 C 1202 314 1223 283 1243 255 C 1262 227 1278 206 1290 190 C 1309 162 1331 134 1355 106 C 1379 78 1408 55 1442 39 C 1457 31 1476 26 1498 22 C 1520 18 1544 16 1569 14 L 1569 0 Z" unicode="X" />
<glyph horiz-adv-x="1346" d="M 1399 1384 C 1381 1382 1364 1378 1346 1374 C 1328 1369 1312 1363 1300 1356 C 1272 1340 1250 1323 1232 1303 C 1214 1283 1196 1258 1178 1229 C 1129 1153 1079 1071 1028 983 C 977 895 924 801 870 702 C 855 674 843 650 835 630 C 826 609 819 589 815 569 C 811 549 808 529 807 509 C 805 488 805 464 805 436 L 805 141 C 805 118 809 98 818 80 C 827 62 843 49 866 39 C 872 36 882 33 897 31 C 912 28 928 25 945 23 C 962 21 979 19 995 17 C 1011 15 1023 14 1032 14 L 1032 0 L 301 0 L 301 14 C 310 14 323 15 339 17 C 355 18 371 19 388 21 C 404 23 420 25 435 27 C 449 29 460 32 467 35 C 491 44 508 58 517 76 C 525 94 530 114 530 137 L 530 494 C 530 510 529 524 527 538 C 525 552 521 566 517 580 C 512 594 506 609 499 625 C 491 641 483 658 473 678 C 454 714 431 756 405 805 C 379 854 352 904 324 955 C 296 1005 270 1053 244 1099 C 218 1144 196 1181 180 1210 C 161 1241 141 1269 121 1294 C 100 1319 77 1339 53 1354 C 34 1364 14 1371 -8 1375 C -30 1379 -50 1382 -70 1384 L -70 1399 L 653 1399 L 653 1384 C 635 1382 613 1380 589 1378 C 565 1376 542 1372 520 1368 C 498 1363 479 1357 463 1349 C 447 1341 440 1332 440 1321 C 440 1313 448 1291 465 1254 C 482 1217 505 1172 535 1118 C 547 1096 563 1066 584 1028 C 604 990 627 948 651 904 C 675 860 700 815 726 769 C 751 723 775 681 797 643 C 817 677 839 714 861 753 C 883 792 906 831 928 870 C 950 909 972 948 994 986 C 1015 1024 1035 1059 1053 1092 C 1083 1148 1107 1194 1123 1229 C 1139 1263 1147 1286 1147 1298 C 1147 1313 1139 1326 1124 1336 C 1109 1346 1090 1355 1068 1362 C 1045 1368 1020 1373 994 1377 C 967 1380 942 1382 920 1384 L 920 1399 L 1399 1399 L 1399 1384 Z" unicode="Y" />
<glyph horiz-adv-x="1282" d="M 1274 436 L 1227 0 L 0 0 L 0 23 L 936 1374 L 582 1374 C 538 1374 501 1372 472 1370 C 442 1368 417 1363 397 1356 C 375 1350 350 1334 323 1310 C 296 1286 269 1257 242 1223 C 214 1189 188 1153 163 1115 C 138 1076 117 1040 100 1006 L 80 1006 L 123 1399 L 1249 1399 L 1249 1376 L 313 25 L 705 25 C 789 25 856 29 908 37 C 959 45 995 60 1016 82 C 1036 103 1058 129 1082 159 C 1105 189 1127 221 1149 254 C 1170 287 1190 319 1208 351 C 1226 383 1241 411 1253 436 L 1274 436 Z" unicode="Z" />
<glyph horiz-adv-x="1141" d="M 979 -403 C 987 -393 995 -380 1003 -363 C 1011 -345 1016 -328 1016 -311 C 1016 -301 1014 -290 1011 -279 C 1008 -268 1000 -258 988 -248 C 976 -238 957 -230 932 -224 C 906 -218 871 -215 827 -215 C 777 -215 728 -217 681 -221 C 634 -225 586 -232 537 -240 C 487 -248 435 -257 381 -269 C 326 -281 266 -294 201 -309 L 154 -326 L 154 1489 L 201 1473 C 266 1457 326 1444 381 1432 C 435 1420 487 1411 537 1403 C 586 1395 634 1388 681 1384 C 728 1380 777 1378 827 1378 C 871 1378 906 1380 932 1386 C 957 1392 976 1399 988 1408 C 1000 1417 1008 1427 1011 1439 C 1014 1451 1016 1463 1016 1475 C 1016 1492 1012 1508 1005 1524 C 998 1540 991 1553 983 1565 L 993 1571 C 999 1567 1005 1560 1011 1551 C 1017 1542 1023 1532 1029 1520 C 1035 1508 1039 1496 1043 1482 C 1047 1468 1049 1454 1049 1440 C 1049 1404 1043 1371 1033 1341 C 1022 1311 1005 1285 983 1264 C 961 1242 933 1226 899 1214 C 865 1202 824 1196 778 1196 C 726 1196 677 1203 632 1217 C 587 1231 543 1249 499 1273 C 455 1296 410 1323 364 1353 C 318 1383 269 1414 215 1446 L 215 -283 C 269 -251 318 -220 364 -190 C 410 -160 455 -133 499 -110 C 543 -86 587 -68 632 -54 C 677 -40 726 -33 778 -33 C 824 -33 865 -39 899 -51 C 933 -63 961 -79 983 -101 C 1005 -122 1022 -147 1033 -177 C 1043 -207 1049 -240 1049 -276 C 1049 -291 1046 -306 1042 -320 C 1038 -334 1032 -347 1026 -359 C 1020 -370 1013 -380 1006 -389 C 999 -397 993 -404 989 -408 L 979 -403 Z" unicode="[" />
<glyph horiz-adv-x="827" d="M 63 1522 L 123 1540 L 764 -410 L 705 -426 L 63 1522 Z" unicode="\" />
<glyph horiz-adv-x="1141" d="M 164 -408 C 158 -404 152 -397 145 -389 C 138 -380 132 -370 126 -359 C 120 -347 114 -334 110 -320 C 106 -306 104 -291 104 -276 C 104 -240 109 -207 119 -177 C 129 -147 146 -122 168 -101 C 190 -79 217 -63 251 -51 C 285 -39 325 -33 371 -33 C 423 -33 471 -40 517 -54 C 562 -68 607 -86 651 -110 C 695 -133 740 -160 786 -190 C 832 -220 882 -251 936 -283 L 936 1446 C 882 1414 832 1383 786 1353 C 740 1323 695 1296 651 1273 C 607 1249 562 1231 517 1217 C 471 1203 423 1196 371 1196 C 325 1196 285 1202 251 1214 C 217 1226 190 1242 168 1264 C 146 1285 129 1311 119 1341 C 109 1371 104 1404 104 1440 C 104 1454 105 1468 109 1482 C 112 1496 116 1508 122 1520 C 127 1532 133 1542 139 1551 C 145 1560 152 1567 158 1571 L 168 1565 C 160 1553 152 1540 145 1524 C 138 1508 135 1492 135 1475 C 135 1463 136 1451 139 1439 C 142 1427 150 1417 162 1408 C 174 1399 193 1392 219 1386 C 244 1380 279 1378 324 1378 C 374 1378 423 1380 470 1384 C 517 1388 565 1395 614 1403 C 663 1411 715 1420 770 1432 C 824 1444 884 1457 950 1473 L 997 1489 L 997 -326 L 950 -309 C 884 -294 823 -281 769 -269 C 714 -257 662 -248 613 -240 C 564 -232 516 -225 470 -221 C 423 -217 374 -215 324 -215 C 279 -215 244 -218 219 -224 C 193 -230 174 -238 162 -248 C 150 -258 142 -268 139 -279 C 136 -290 135 -301 135 -311 C 135 -319 136 -328 139 -337 C 141 -346 144 -355 148 -363 C 152 -371 156 -379 161 -386 C 165 -392 170 -398 174 -403 L 164 -408 L 164 -408 Z" unicode="]" />
<glyph horiz-adv-x="893" d="M 104 807 L 92 813 C 116 851 137 885 155 914 C 173 942 188 967 202 989 C 215 1010 227 1029 237 1046 C 247 1062 257 1078 267 1094 C 276 1110 286 1126 296 1142 C 306 1158 318 1177 332 1198 C 342 1213 350 1225 358 1235 C 365 1245 373 1252 381 1257 C 389 1262 398 1265 408 1267 C 418 1269 430 1270 446 1270 C 461 1270 474 1269 484 1267 C 494 1265 504 1262 512 1257 C 520 1252 527 1245 535 1235 C 542 1225 551 1213 561 1198 C 574 1177 586 1158 596 1142 C 606 1126 616 1110 626 1094 C 635 1078 645 1062 655 1046 C 665 1029 677 1010 691 989 C 704 967 719 942 737 914 C 755 885 776 851 801 813 L 788 807 L 449 1085 L 104 807 Z" unicode="^" />
<glyph horiz-adv-x="1225" d="M -14 -221 L 1235 -221 L 1235 -305 L -14 -305 L -14 -221 Z" unicode="_" />
<glyph horiz-adv-x="1024" d="M 692 1081 C 654 1109 619 1133 588 1155 C 556 1177 528 1196 503 1213 C 478 1229 455 1244 435 1257 C 415 1270 397 1282 381 1294 C 364 1305 349 1315 337 1325 C 325 1335 314 1345 306 1355 C 298 1365 291 1377 287 1389 C 283 1401 281 1414 281 1430 C 281 1441 283 1452 288 1463 C 292 1473 299 1483 308 1492 C 316 1500 327 1507 339 1512 C 351 1517 365 1520 381 1520 C 410 1520 435 1511 456 1494 C 477 1477 498 1451 520 1415 C 532 1395 544 1375 556 1353 C 568 1331 581 1308 595 1282 C 609 1256 625 1227 643 1196 C 660 1164 680 1130 702 1092 L 692 1081 Z" unicode="`" />
<glyph horiz-adv-x="1016" d="M 1044 256 C 1040 164 1019 95 983 48 C 946 0 889 -23 813 -23 C 756 -23 712 -11 681 12 C 649 36 624 69 606 113 L 600 113 C 582 93 563 74 543 57 C 523 40 501 25 477 13 C 453 0 426 -9 398 -16 C 369 -23 337 -27 303 -27 C 267 -27 235 -21 205 -11 C 175 0 150 14 128 34 C 106 54 89 77 77 105 C 65 133 59 163 59 197 C 59 239 64 275 76 305 C 87 334 102 358 121 378 C 139 397 161 413 185 425 C 209 437 234 449 260 459 C 290 470 321 481 354 491 C 387 501 419 510 450 520 C 480 529 509 538 536 548 C 562 558 584 568 602 578 L 602 719 C 602 727 601 739 601 753 C 600 767 598 783 596 799 C 593 815 589 832 583 849 C 577 866 568 881 557 895 C 546 909 532 920 516 929 C 499 937 479 942 455 942 C 421 942 394 936 375 925 C 355 913 342 903 334 893 C 334 881 336 869 340 855 C 343 841 347 826 351 811 C 355 795 358 780 362 765 C 365 750 367 736 367 723 C 367 711 363 700 357 688 C 350 676 341 665 329 655 C 317 645 302 636 284 630 C 266 624 247 621 225 621 C 203 621 185 624 171 632 C 156 639 144 648 135 660 C 126 671 119 684 115 699 C 111 713 109 728 109 743 C 109 774 120 803 142 830 C 164 856 192 879 226 899 C 260 919 299 934 341 946 C 383 957 425 963 467 963 C 519 963 568 959 614 953 C 660 947 699 933 733 912 C 767 891 793 860 813 820 C 832 779 842 725 842 657 C 842 611 841 563 840 513 C 838 463 837 416 835 372 C 833 327 832 287 831 252 C 829 216 829 190 829 174 C 829 166 830 156 834 145 C 837 133 842 122 849 112 C 856 102 865 93 876 85 C 887 77 900 74 915 74 C 931 74 946 79 959 89 C 971 99 982 112 991 129 C 1000 145 1007 165 1012 187 C 1017 209 1020 232 1022 256 L 1044 256 Z M 604 547 C 558 531 516 514 480 497 C 444 479 413 459 387 436 C 361 412 342 385 329 354 C 315 322 309 284 309 240 C 309 179 320 134 342 105 C 364 75 394 61 432 61 C 469 61 501 68 527 82 C 553 96 576 117 596 145 L 604 547 Z" unicode="a" />
<glyph horiz-adv-x="1128" d="M 1073 463 C 1073 391 1060 326 1036 266 C 1011 206 977 154 935 110 C 892 66 842 32 786 8 C 730 -16 670 -29 608 -29 C 565 -29 526 -25 492 -17 C 457 -9 426 0 398 11 C 370 22 345 34 325 47 C 304 60 286 72 272 82 L 152 -37 L 135 -33 C 136 -12 137 11 139 39 C 140 67 141 97 142 130 C 143 162 144 197 144 233 C 144 269 145 305 145 342 L 145 1354 C 143 1382 138 1405 130 1423 C 122 1440 108 1454 90 1466 C 84 1470 75 1473 65 1476 C 55 1479 43 1482 31 1484 C 19 1486 6 1487 -6 1488 C -19 1489 -31 1490 -43 1491 L -43 1505 L 375 1528 L 383 1520 L 383 836 L 389 834 C 401 846 415 860 433 875 C 450 890 470 904 493 917 C 515 930 540 941 568 950 C 595 958 625 963 657 963 C 715 963 770 951 821 929 C 872 907 916 874 953 832 C 990 790 1019 738 1041 676 C 1062 614 1073 543 1073 463 Z M 811 457 C 811 513 806 566 798 618 C 790 670 776 715 757 755 C 738 795 713 826 682 850 C 651 873 613 885 567 885 C 525 885 490 877 461 861 C 431 845 405 823 383 795 L 383 164 C 387 148 394 130 404 110 C 414 90 426 71 442 54 C 458 36 477 22 499 10 C 521 -2 548 -8 578 -8 C 614 -8 647 3 676 26 C 705 49 730 81 750 122 C 770 163 785 212 795 269 C 805 326 811 389 811 457 Z" unicode="b" />
<glyph horiz-adv-x="901" d="M 901 238 C 883 200 861 166 835 134 C 809 102 779 74 746 50 C 712 26 676 7 637 -6 C 597 -20 556 -27 514 -27 C 436 -27 368 -14 310 10 C 252 35 205 70 167 115 C 129 159 100 212 81 273 C 62 333 53 399 53 471 C 53 535 63 596 85 656 C 106 715 137 767 177 813 C 217 858 267 894 326 922 C 384 949 451 963 526 963 C 581 963 629 956 671 944 C 712 931 746 914 774 892 C 801 870 821 844 835 815 C 849 786 856 755 856 723 C 856 685 844 654 820 630 C 796 606 763 594 721 594 C 704 594 688 596 673 601 C 657 606 644 614 632 624 C 620 634 610 646 603 661 C 595 676 592 694 592 715 C 592 731 594 746 599 762 C 604 778 610 793 616 807 C 622 821 627 834 633 846 C 638 858 641 868 643 877 C 639 896 626 911 605 923 C 583 934 557 940 526 940 C 495 940 466 930 440 912 C 414 894 391 866 372 829 C 353 791 338 744 327 688 C 316 632 311 565 311 489 C 311 421 317 361 330 308 C 342 255 360 210 384 173 C 407 136 435 108 468 88 C 500 68 537 59 578 59 C 650 59 710 75 759 109 C 807 142 847 190 879 252 L 901 238 Z" unicode="c" />
<glyph horiz-adv-x="1157" d="M 1159 18 L 764 -6 L 754 6 L 754 96 L 745 98 C 733 86 719 72 702 58 C 684 44 664 30 642 18 C 619 5 594 -5 566 -14 C 538 -22 509 -27 477 -27 C 417 -27 362 -15 310 8 C 258 32 214 66 176 110 C 138 154 108 207 86 269 C 64 331 53 401 53 479 C 53 550 65 615 91 675 C 116 734 150 785 192 828 C 234 870 283 903 338 927 C 393 951 450 963 510 963 C 540 963 568 960 594 956 C 620 952 644 947 665 941 C 685 935 703 929 718 923 C 732 917 744 912 752 909 L 752 1350 C 750 1378 744 1401 736 1418 C 727 1434 714 1448 698 1460 C 690 1464 679 1468 665 1472 C 650 1476 634 1479 617 1482 C 600 1484 583 1486 566 1488 C 548 1490 533 1491 520 1493 L 520 1505 L 975 1528 L 985 1518 L 985 160 C 989 115 1006 81 1038 59 C 1044 55 1052 51 1062 48 C 1072 44 1082 41 1094 39 C 1105 37 1116 35 1128 34 C 1139 32 1149 31 1159 31 L 1159 18 Z M 752 772 C 746 788 739 806 729 825 C 719 844 707 862 691 878 C 675 894 655 908 633 919 C 610 930 583 936 553 936 C 515 936 481 924 451 900 C 421 876 397 843 377 801 C 357 758 341 707 331 649 C 320 591 315 527 315 459 C 315 406 319 355 327 305 C 335 255 349 211 369 173 C 389 134 415 103 447 80 C 479 56 519 45 567 45 C 609 45 644 53 672 69 C 700 85 726 108 752 137 L 752 772 Z" unicode="d" />
<glyph horiz-adv-x="946" d="M 926 236 C 907 198 884 163 858 131 C 831 99 800 71 766 48 C 732 24 694 6 653 -7 C 612 -20 568 -27 522 -27 C 442 -27 372 -13 313 12 C 254 38 205 74 167 120 C 128 165 99 218 81 279 C 62 339 53 404 53 473 C 53 536 63 597 83 656 C 103 715 132 767 170 813 C 208 858 256 894 312 922 C 368 949 432 963 504 963 C 578 963 640 952 691 930 C 742 908 783 879 815 843 C 847 806 870 764 884 717 C 898 669 905 620 905 569 L 905 553 L 307 553 L 307 508 C 307 444 312 385 322 330 C 332 274 348 226 371 185 C 394 144 424 112 462 88 C 499 64 545 53 600 53 C 636 53 668 57 698 65 C 727 73 754 85 779 101 C 803 117 826 137 847 161 C 867 185 887 214 907 248 L 926 236 Z M 653 580 C 653 620 651 661 648 704 C 644 746 637 785 626 820 C 615 855 599 884 579 906 C 558 928 530 940 496 940 C 468 940 442 930 420 912 C 397 894 377 868 361 836 C 345 804 332 765 323 721 C 313 676 308 627 307 575 L 653 580 Z" unicode="e" />
<glyph horiz-adv-x="659" d="M 899 1335 C 899 1321 896 1307 890 1293 C 884 1279 876 1266 865 1254 C 854 1242 841 1232 825 1224 C 809 1216 790 1212 770 1212 C 755 1212 740 1214 724 1219 C 708 1223 694 1230 682 1240 C 669 1249 659 1261 651 1276 C 643 1290 639 1307 639 1327 C 639 1341 640 1353 643 1365 C 645 1377 648 1388 652 1399 C 655 1410 658 1421 661 1432 C 664 1443 666 1455 668 1468 C 666 1480 659 1490 648 1496 C 636 1502 624 1505 612 1505 C 582 1505 557 1496 535 1480 C 513 1464 495 1439 480 1405 C 465 1371 454 1327 446 1274 C 438 1221 432 1158 430 1085 C 429 1076 428 1064 428 1050 C 428 1035 428 1020 428 1004 C 428 988 428 974 428 962 C 428 949 428 940 428 936 L 682 936 L 682 903 L 428 903 L 428 129 C 428 107 432 88 441 72 C 450 56 464 44 483 37 C 491 33 500 30 512 28 C 523 26 535 24 547 22 C 559 20 572 18 584 17 C 596 15 606 14 616 14 L 616 0 L 49 0 L 49 14 C 67 15 83 17 97 19 C 111 21 125 24 139 29 C 157 36 171 47 180 63 C 188 79 193 98 193 121 L 193 903 L -10 903 L -10 936 L 193 936 L 193 987 C 193 1071 203 1147 224 1215 C 245 1282 281 1343 332 1397 C 375 1442 424 1475 478 1497 C 532 1519 590 1530 653 1530 C 699 1530 737 1524 769 1512 C 801 1500 826 1485 845 1467 C 864 1448 878 1427 886 1404 C 894 1380 899 1357 899 1335 Z" unicode="f" />
<glyph horiz-adv-x="1034" d="M 1053 934 C 1053 902 1044 876 1027 856 C 1010 836 987 827 958 827 C 925 827 900 837 884 857 C 868 877 857 908 852 950 C 827 948 806 941 790 930 C 773 918 760 905 750 891 L 750 881 C 784 851 811 817 831 778 C 850 738 860 694 860 645 C 860 599 849 559 828 523 C 807 487 779 456 744 431 C 709 405 669 386 625 372 C 580 358 534 352 487 352 L 340 352 C 324 342 311 332 299 320 C 287 308 281 292 281 274 C 281 250 287 233 300 221 C 312 209 329 201 350 196 C 370 190 394 187 420 186 C 446 185 472 184 498 184 L 743 172 C 773 170 805 163 837 150 C 869 137 899 119 925 95 C 951 71 973 41 990 6 C 1007 -28 1016 -69 1016 -115 C 1016 -164 1005 -210 984 -252 C 963 -294 931 -331 887 -363 C 843 -395 788 -420 721 -438 C 654 -456 575 -465 483 -465 C 399 -465 328 -459 270 -447 C 211 -435 163 -419 126 -397 C 89 -375 62 -349 45 -318 C 28 -287 20 -252 20 -213 C 20 -185 27 -158 42 -134 C 56 -110 78 -89 106 -71 C 134 -53 170 -38 212 -28 C 254 -17 302 -11 356 -10 L 356 2 C 331 8 305 16 278 26 C 251 36 226 49 204 65 C 182 80 163 98 149 120 C 134 141 127 166 127 195 C 127 221 133 244 147 263 C 160 282 176 298 196 312 C 216 325 237 336 261 345 C 284 353 306 361 326 367 L 326 377 C 246 405 185 442 142 490 C 99 537 78 592 78 655 C 78 705 89 750 111 788 C 133 826 163 859 200 885 C 237 911 279 930 327 943 C 374 956 423 963 473 963 C 507 963 538 960 568 955 C 597 950 623 944 646 938 C 669 931 689 925 705 919 C 721 913 733 909 741 907 C 757 927 772 946 788 962 C 803 978 819 992 835 1003 C 851 1013 869 1021 888 1027 C 906 1033 927 1036 950 1036 C 962 1036 975 1033 987 1028 C 999 1023 1010 1016 1020 1007 C 1030 998 1038 987 1044 975 C 1050 962 1053 948 1053 934 Z M 834 -180 C 834 -168 832 -155 829 -141 C 826 -127 821 -114 813 -100 C 805 -86 794 -74 780 -63 C 766 -51 748 -42 727 -35 C 717 -33 701 -32 679 -30 C 657 -28 630 -27 600 -26 C 569 -25 535 -24 498 -24 C 460 -23 421 -23 381 -23 C 355 -29 333 -38 313 -48 C 293 -58 275 -72 261 -88 C 247 -104 236 -122 228 -144 C 220 -166 217 -191 217 -221 C 217 -247 222 -273 233 -299 C 243 -325 261 -349 285 -370 C 309 -391 341 -408 380 -422 C 419 -435 467 -442 524 -442 C 572 -442 616 -435 654 -422 C 692 -409 725 -391 752 -368 C 778 -345 799 -318 813 -286 C 827 -254 834 -218 834 -180 Z M 625 653 C 625 688 622 723 617 757 C 611 791 602 822 590 849 C 578 876 562 898 542 915 C 522 931 497 940 467 940 C 437 940 413 932 394 917 C 375 901 360 881 349 855 C 337 829 329 799 325 765 C 321 731 319 695 319 659 C 319 616 322 577 328 542 C 334 506 343 476 355 451 C 367 425 383 406 402 392 C 421 378 443 371 469 371 C 497 371 520 378 540 392 C 560 406 576 426 588 452 C 600 477 610 507 616 541 C 622 575 625 613 625 653 Z" unicode="g" />
<glyph horiz-adv-x="1184" d="M 412 1520 L 412 795 L 416 795 C 434 813 454 833 474 853 C 494 873 516 891 541 907 C 565 923 594 937 626 947 C 658 957 695 963 739 963 C 787 963 829 955 865 940 C 900 924 929 902 952 874 C 975 846 992 812 1003 772 C 1014 732 1020 687 1020 639 L 1020 123 C 1020 100 1023 81 1029 66 C 1035 50 1048 39 1067 31 C 1081 24 1096 20 1110 18 C 1124 16 1140 15 1159 14 L 1159 0 L 649 0 L 649 14 C 665 15 681 17 695 19 C 709 21 723 24 735 29 C 752 35 764 46 770 62 C 776 78 780 98 780 121 L 780 657 C 780 692 775 723 767 749 C 759 775 748 796 734 813 C 720 829 704 842 686 850 C 668 858 649 862 629 862 C 598 862 570 858 546 850 C 522 842 501 833 483 822 C 465 810 450 798 438 785 C 426 771 417 759 412 748 L 412 125 C 412 102 415 83 422 67 C 428 51 439 40 455 33 C 469 25 483 21 499 19 C 514 17 529 15 545 14 L 545 0 L 35 0 L 35 14 C 52 15 68 17 82 19 C 96 21 109 24 123 29 C 142 35 156 45 164 59 C 172 73 176 92 176 115 L 176 1354 C 174 1377 169 1398 161 1418 C 152 1437 140 1452 125 1464 C 119 1468 109 1471 97 1475 C 85 1478 72 1481 58 1484 C 44 1486 30 1488 17 1490 C 3 1491 -7 1492 -16 1493 L -16 1505 L 403 1528 L 412 1520 Z" unicode="h" />
<glyph horiz-adv-x="596" d="M 442 1343 C 442 1322 438 1302 430 1284 C 422 1266 412 1250 398 1236 C 384 1222 368 1212 350 1204 C 332 1196 312 1192 291 1192 C 270 1192 251 1195 233 1203 C 215 1211 199 1221 185 1235 C 171 1248 161 1263 153 1281 C 145 1299 141 1318 141 1339 C 141 1359 145 1379 153 1397 C 161 1415 171 1431 185 1445 C 199 1459 215 1469 233 1477 C 251 1485 270 1489 291 1489 C 312 1489 332 1485 350 1477 C 368 1469 384 1459 398 1446 C 412 1433 422 1418 430 1400 C 438 1382 442 1363 442 1343 Z M 578 0 L 49 0 L 49 14 C 67 15 83 16 97 18 C 111 20 125 23 139 29 C 157 35 171 46 180 62 C 188 78 193 97 193 119 L 193 780 C 191 801 186 821 177 841 C 168 860 155 875 139 887 C 133 891 125 894 115 897 C 105 900 94 903 83 905 C 71 907 60 908 49 910 C 37 911 27 912 18 913 L 18 926 L 420 948 L 428 940 L 428 123 C 428 101 431 83 439 68 C 447 52 460 40 479 31 C 494 23 510 19 527 18 C 544 16 561 15 578 14 L 578 0 Z" unicode="i" />
<glyph horiz-adv-x="600" d="M 465 1343 C 465 1322 461 1302 453 1284 C 445 1266 435 1250 421 1236 C 407 1222 391 1212 373 1204 C 355 1196 335 1192 315 1192 C 294 1192 275 1195 257 1203 C 239 1211 223 1221 209 1235 C 195 1248 185 1263 177 1281 C 169 1299 166 1318 166 1339 C 166 1359 169 1379 177 1397 C 185 1415 195 1431 209 1445 C 223 1459 239 1469 257 1477 C 275 1485 294 1489 315 1489 C 336 1489 356 1485 374 1477 C 392 1469 408 1459 422 1446 C 435 1433 445 1418 453 1400 C 461 1382 465 1363 465 1343 Z M 455 940 L 455 88 C 455 2 446 -74 428 -144 C 410 -214 376 -275 326 -328 C 284 -372 240 -405 194 -429 C 147 -453 93 -465 33 -465 C -10 -465 -47 -460 -77 -451 C -107 -441 -131 -429 -149 -413 C -167 -397 -181 -378 -189 -358 C -197 -338 -201 -317 -201 -295 C -201 -282 -198 -268 -192 -254 C -186 -240 -178 -226 -168 -214 C -157 -202 -144 -192 -128 -184 C -112 -176 -95 -172 -76 -172 C -61 -172 -46 -174 -31 -178 C -16 -182 -2 -188 9 -197 C 21 -206 31 -218 39 -232 C 47 -246 51 -263 51 -283 C 51 -293 49 -305 47 -319 C 45 -333 42 -347 39 -361 C 36 -375 33 -388 30 -402 C 26 -416 24 -428 23 -438 C 27 -439 33 -440 43 -441 C 53 -441 59 -442 63 -442 C 93 -442 117 -433 137 -416 C 157 -398 172 -372 184 -336 C 196 -300 204 -255 209 -201 C 214 -146 217 -81 217 -6 L 217 772 C 215 793 210 814 202 834 C 193 854 180 869 164 881 C 156 885 146 889 133 893 C 119 896 105 899 89 901 C 73 903 56 905 40 907 C 23 908 8 909 -6 911 L -6 926 L 446 948 L 455 940 Z" unicode="j" />
<glyph horiz-adv-x="1106" d="M 412 1520 L 412 463 C 433 483 459 509 491 539 C 522 569 554 600 587 633 C 620 665 652 698 684 730 C 715 762 742 791 764 817 C 771 825 777 834 781 843 C 785 852 788 860 788 868 C 788 876 783 882 774 888 C 764 894 752 899 738 903 C 723 907 707 911 689 914 C 671 917 653 920 637 922 L 637 936 L 1053 936 L 1053 924 C 1025 918 999 911 977 904 C 954 896 933 888 913 878 C 893 868 873 856 854 843 C 835 829 815 814 795 797 C 769 775 742 751 714 723 C 685 695 655 665 625 633 C 676 608 721 575 759 534 C 797 493 831 448 861 399 C 891 349 917 298 941 245 C 964 192 986 142 1008 94 C 1015 78 1024 65 1034 55 C 1044 45 1057 37 1075 31 C 1091 24 1107 19 1121 16 C 1135 13 1145 12 1151 12 L 1151 0 L 774 0 C 767 26 758 56 746 89 C 734 122 720 156 705 191 C 689 225 672 259 654 292 C 636 325 617 355 597 381 C 577 407 556 427 536 443 C 515 459 495 467 475 467 C 463 467 451 463 440 457 C 428 450 419 443 412 436 L 412 125 C 412 102 415 83 422 67 C 428 51 439 40 455 33 C 469 25 483 21 499 19 C 514 17 529 15 545 14 L 545 0 L 35 0 L 35 14 C 52 15 68 17 82 19 C 96 21 109 24 123 29 C 142 35 156 45 164 59 C 172 73 176 92 176 115 L 176 1354 C 174 1377 169 1398 161 1418 C 152 1437 140 1452 125 1464 C 119 1468 109 1471 97 1475 C 85 1478 72 1481 58 1484 C 44 1486 30 1488 17 1490 C 3 1491 -7 1492 -16 1493 L -16 1505 L 403 1528 L 412 1520 Z" unicode="k" />
<glyph horiz-adv-x="580" d="M 553 0 L 31 0 L 31 14 C 48 15 64 16 78 18 C 92 19 105 22 119 27 C 138 34 152 45 161 61 C 169 77 174 96 174 119 L 174 1352 C 172 1375 167 1397 158 1417 C 148 1437 135 1452 119 1464 C 113 1468 103 1471 91 1475 C 79 1478 66 1481 52 1484 C 38 1486 25 1488 11 1490 C -2 1491 -13 1492 -23 1493 L -23 1505 L 401 1528 L 410 1520 L 410 127 C 410 104 414 84 422 68 C 430 51 444 39 463 31 C 478 24 492 20 505 18 C 518 16 534 15 553 14 L 553 0 Z" unicode="l" />
<glyph horiz-adv-x="1784" d="M 426 940 L 426 795 L 432 795 C 451 814 471 834 491 854 C 511 874 533 892 557 908 C 581 924 609 937 641 947 C 672 957 709 963 752 963 C 816 963 870 947 914 915 C 958 883 991 840 1014 786 L 1020 786 C 1039 808 1060 830 1082 852 C 1104 873 1128 892 1154 908 C 1180 924 1210 938 1242 948 C 1274 958 1311 963 1352 963 C 1398 963 1438 954 1472 938 C 1506 922 1534 899 1556 870 C 1578 841 1594 807 1604 767 C 1614 727 1620 683 1620 637 L 1620 123 C 1620 100 1623 81 1630 66 C 1637 50 1650 39 1669 31 C 1683 24 1698 20 1712 18 C 1726 16 1741 15 1759 14 L 1759 0 L 1255 0 L 1255 14 C 1272 15 1287 17 1301 19 C 1314 21 1327 24 1339 29 C 1355 36 1367 47 1373 63 C 1379 79 1382 98 1382 121 L 1382 653 C 1382 722 1368 774 1341 810 C 1313 846 1278 864 1235 864 C 1205 864 1178 860 1155 853 C 1131 845 1111 836 1093 825 C 1075 814 1061 802 1050 789 C 1038 776 1030 764 1024 754 L 1024 127 C 1024 104 1027 85 1034 69 C 1040 53 1052 41 1069 33 C 1081 26 1094 21 1107 19 C 1119 17 1134 15 1151 14 L 1151 0 L 664 0 L 664 14 C 679 15 693 17 706 19 C 718 21 731 24 743 29 C 759 36 771 47 777 63 C 783 79 786 98 786 121 L 786 657 C 786 691 782 722 775 748 C 767 774 757 795 744 812 C 731 828 716 841 698 849 C 680 857 661 862 641 862 C 611 862 584 858 560 850 C 536 842 515 832 497 821 C 479 809 464 797 452 784 C 440 770 432 758 426 748 L 426 125 C 426 102 429 83 436 67 C 442 51 454 40 471 33 C 485 25 499 21 513 19 C 527 17 542 15 559 14 L 559 0 L 49 0 L 49 14 C 66 15 82 17 96 19 C 110 21 123 24 137 29 C 156 35 170 45 178 59 C 186 73 190 92 190 115 L 190 776 C 188 799 183 820 175 840 C 166 859 154 874 139 885 C 127 893 111 899 92 904 C 72 908 54 911 37 913 L 37 926 L 418 948 L 426 940 Z" unicode="m" />
<glyph horiz-adv-x="1198" d="M 1174 0 L 664 0 L 664 14 C 680 15 695 17 710 19 C 725 21 739 24 752 29 C 769 35 781 46 787 62 C 793 78 797 98 797 121 L 797 657 C 797 692 792 723 784 749 C 776 775 765 796 751 813 C 737 829 720 842 702 850 C 684 858 665 862 645 862 C 614 862 586 858 562 850 C 537 842 516 833 498 822 C 480 810 465 798 453 785 C 441 771 432 759 426 748 L 426 125 C 426 102 429 83 436 67 C 442 51 454 40 471 33 C 485 25 500 21 514 19 C 528 17 544 15 561 14 L 561 0 L 49 0 L 49 14 C 66 15 82 17 96 19 C 110 21 123 24 137 29 C 156 35 170 45 178 59 C 186 73 190 92 190 115 L 190 776 C 188 799 183 820 175 840 C 166 859 154 874 139 885 C 127 893 111 899 92 904 C 72 908 54 911 37 913 L 37 926 L 418 948 L 426 940 L 426 795 L 432 795 C 450 813 470 833 490 853 C 510 873 532 891 557 907 C 582 923 611 937 643 947 C 675 957 712 963 756 963 C 804 963 846 955 881 940 C 916 924 945 902 968 874 C 990 846 1007 812 1018 772 C 1028 732 1034 687 1034 639 L 1034 123 C 1034 100 1037 81 1045 66 C 1052 50 1065 39 1083 31 C 1097 24 1111 20 1125 18 C 1139 16 1155 15 1174 14 L 1174 0 Z" unicode="n" />
<glyph horiz-adv-x="1081" d="M 1030 475 C 1030 405 1019 340 997 279 C 975 218 944 165 902 119 C 860 73 808 37 746 11 C 684 -15 612 -29 532 -29 C 466 -29 405 -17 347 5 C 289 27 238 60 194 103 C 150 145 115 197 89 258 C 63 319 51 388 51 465 C 51 538 62 605 86 666 C 109 727 142 780 185 824 C 228 868 280 902 341 926 C 402 950 470 963 545 963 C 620 963 688 950 748 926 C 808 902 858 868 900 824 C 942 780 974 729 996 669 C 1018 609 1030 545 1030 475 Z M 768 475 C 768 533 764 591 758 647 C 751 703 739 752 722 796 C 705 839 682 874 654 900 C 625 926 589 940 545 940 C 497 940 458 926 428 898 C 398 870 375 835 358 791 C 341 747 330 697 324 642 C 318 587 315 533 315 479 C 315 415 318 353 325 295 C 331 236 343 184 361 139 C 378 94 401 58 431 32 C 460 5 497 -8 543 -8 C 585 -8 621 5 650 31 C 679 57 702 92 720 136 C 737 180 749 232 757 290 C 764 348 768 410 768 475 Z" unicode="o" />
<glyph horiz-adv-x="1159" d="M 6 -463 L 6 -449 C 25 -447 45 -445 67 -442 C 88 -439 105 -436 119 -432 C 138 -426 152 -414 160 -396 C 168 -378 172 -359 172 -338 L 172 778 C 170 801 166 822 158 840 C 150 858 137 873 121 885 C 115 889 107 892 98 896 C 89 899 80 902 70 904 C 60 906 50 908 40 910 C 30 911 20 912 12 913 L 12 926 L 397 948 L 406 938 L 406 831 L 414 829 C 426 841 440 855 458 871 C 475 887 495 901 518 915 C 541 929 567 940 595 949 C 623 958 653 963 686 963 C 744 963 799 951 849 927 C 899 903 942 870 979 827 C 1016 784 1045 732 1066 671 C 1087 610 1098 543 1098 469 C 1098 396 1085 329 1061 269 C 1037 208 1004 156 962 113 C 920 69 872 35 817 11 C 762 -12 704 -25 643 -25 C 585 -25 539 -18 504 -6 C 468 6 439 21 416 39 L 408 39 L 408 -326 C 408 -375 427 -407 465 -422 C 475 -425 486 -428 498 -431 C 510 -434 522 -437 535 -439 C 548 -441 561 -443 574 -445 C 586 -447 598 -448 608 -449 L 608 -463 L 6 -463 Z M 408 156 C 412 139 420 121 430 103 C 440 85 452 68 468 53 C 484 37 503 25 525 15 C 547 5 574 0 604 0 C 643 0 677 11 707 33 C 736 55 760 87 780 127 C 799 167 813 216 823 272 C 833 328 838 391 838 459 C 838 513 833 566 825 617 C 816 667 802 712 783 751 C 763 789 738 820 707 844 C 675 867 637 879 592 879 C 548 879 512 871 484 855 C 456 839 430 817 408 791 L 408 156 Z" unicode="p" />
<glyph horiz-adv-x="1128" d="M 1163 -463 L 580 -463 L 580 -449 C 588 -448 598 -447 608 -446 C 618 -445 629 -444 640 -442 C 650 -440 660 -439 670 -437 C 680 -435 688 -434 696 -432 C 716 -424 731 -412 739 -395 C 747 -378 752 -358 752 -336 L 752 94 L 743 96 C 731 84 717 71 700 57 C 683 43 663 30 641 18 C 619 6 594 -4 566 -12 C 538 -20 509 -25 477 -25 C 417 -25 361 -13 309 10 C 257 34 213 67 175 111 C 137 155 107 208 85 270 C 63 332 53 401 53 479 C 53 550 66 615 92 675 C 118 734 153 785 197 828 C 241 870 292 903 351 927 C 409 951 471 963 537 963 C 577 963 613 959 646 953 C 679 946 709 938 736 928 C 763 918 787 908 808 897 C 829 886 848 876 864 868 L 989 985 L 1001 983 C 999 962 998 937 996 908 C 994 878 993 848 991 816 C 989 784 988 753 987 722 C 985 691 985 664 985 641 L 985 -332 C 985 -354 989 -374 999 -391 C 1008 -407 1022 -420 1040 -428 C 1056 -435 1076 -440 1100 -442 C 1123 -444 1144 -446 1163 -449 L 1163 -463 Z M 752 776 C 746 792 739 810 729 829 C 719 848 707 866 691 882 C 675 898 656 911 634 922 C 612 932 585 938 555 938 C 515 938 481 925 451 901 C 421 877 396 843 376 801 C 356 759 340 708 330 650 C 320 592 315 529 315 461 C 315 409 319 358 327 309 C 335 259 348 215 367 176 C 386 137 412 106 444 82 C 476 58 515 47 563 47 C 605 47 640 55 670 71 C 699 87 726 110 752 139 L 752 776 Z" unicode="q" />
<glyph horiz-adv-x="848" d="M 854 805 C 854 783 851 764 845 746 C 839 728 830 712 818 698 C 806 684 793 674 777 666 C 761 658 743 655 723 655 C 685 655 654 665 630 685 C 606 705 594 734 594 774 C 594 792 597 811 604 830 C 611 848 617 865 623 881 C 599 880 577 875 556 865 C 534 855 515 844 498 831 C 480 817 465 804 453 790 C 441 776 432 764 426 754 L 426 125 C 426 78 444 47 481 33 C 489 29 500 26 512 24 C 524 22 536 20 549 19 C 561 17 573 16 585 16 C 597 15 607 14 616 14 L 616 0 L 49 0 L 49 14 C 66 15 81 16 95 18 C 109 20 123 23 137 29 C 156 35 170 45 178 61 C 186 77 190 96 190 119 L 190 778 C 188 798 183 819 174 839 C 164 859 152 875 137 887 C 125 895 109 901 91 905 C 72 909 53 911 35 913 L 35 926 L 418 948 L 426 940 L 426 795 L 430 795 C 473 850 518 891 564 918 C 610 944 656 958 702 958 C 724 958 744 954 763 946 C 781 938 797 928 811 914 C 825 900 835 884 843 866 C 850 847 854 827 854 805 Z" unicode="r" />
<glyph horiz-adv-x="831" d="M 780 274 C 780 226 770 183 751 145 C 732 107 706 76 673 50 C 640 24 601 5 557 -8 C 512 -22 464 -29 414 -29 C 381 -29 349 -26 318 -20 C 286 -14 258 -6 232 2 C 206 11 183 21 163 31 C 143 41 129 50 119 59 L 78 -10 L 59 -10 L 49 324 L 66 324 C 72 305 82 284 94 260 C 106 236 120 212 136 188 C 152 164 171 140 191 116 C 211 92 233 71 257 53 C 281 35 305 20 331 9 C 357 -2 384 -8 412 -8 C 444 -8 471 -3 495 6 C 518 16 537 29 553 45 C 569 61 580 80 588 102 C 596 124 600 147 600 172 C 600 198 596 221 588 241 C 580 261 566 279 547 295 C 527 311 502 326 470 340 C 438 354 398 368 350 383 C 316 393 283 405 251 421 C 218 437 189 456 163 480 C 137 504 116 532 100 566 C 84 599 76 638 76 684 C 76 722 83 758 99 792 C 114 826 136 855 165 881 C 193 906 228 926 270 941 C 311 955 358 963 410 963 C 462 963 510 957 555 946 C 600 935 636 922 664 907 L 702 965 L 721 965 L 733 664 L 717 664 C 703 697 687 730 667 763 C 647 796 624 826 599 853 C 574 879 547 901 517 917 C 487 933 455 942 422 942 C 394 942 369 937 349 927 C 328 917 311 904 298 888 C 285 872 275 855 269 835 C 263 815 260 796 260 778 C 260 750 264 726 273 708 C 282 689 296 672 316 658 C 335 644 360 631 391 619 C 421 607 458 594 502 580 C 543 566 581 551 615 533 C 649 515 679 493 703 469 C 727 445 746 417 760 385 C 773 353 780 316 780 274 Z" unicode="s" />
<glyph horiz-adv-x="705" d="M 715 268 C 711 229 703 192 691 157 C 678 121 660 90 637 64 C 614 37 586 16 552 0 C 518 -15 478 -23 434 -23 C 345 -23 279 2 236 52 C 193 102 172 172 172 264 L 172 903 L -14 903 L -14 936 L 176 936 L 176 1239 L 406 1239 L 406 936 L 676 936 L 676 903 L 406 903 L 406 274 C 406 248 408 224 412 202 C 416 179 424 159 435 142 C 445 125 460 111 478 101 C 496 91 519 86 547 86 C 569 86 589 91 607 103 C 624 114 639 128 651 146 C 663 164 672 183 679 205 C 685 226 690 247 692 268 L 715 268 Z" unicode="t" />
<glyph horiz-adv-x="1165" d="M 1145 18 L 772 -6 L 758 8 L 758 135 L 752 135 C 733 115 714 96 694 77 C 674 57 652 40 627 25 C 602 10 573 -1 541 -11 C 509 -20 471 -25 428 -25 C 380 -25 340 -16 307 0 C 273 16 246 40 225 70 C 204 100 189 135 179 176 C 169 216 164 261 164 309 L 164 780 C 162 801 157 821 149 840 C 141 859 128 874 111 885 C 98 892 82 898 64 902 C 45 906 26 909 8 911 L 8 924 L 391 948 L 401 936 L 401 262 C 401 192 414 141 442 107 C 469 73 503 57 543 57 C 575 57 603 61 627 70 C 651 79 672 90 689 103 C 706 115 720 129 731 143 C 741 157 750 170 756 180 L 756 784 C 754 805 750 825 742 843 C 734 861 723 876 707 887 C 695 894 678 899 654 902 C 630 905 605 907 580 909 L 580 924 L 981 948 L 991 936 L 991 156 C 992 133 996 113 1004 96 C 1012 79 1024 65 1040 55 C 1052 47 1069 41 1089 38 C 1109 34 1127 32 1145 31 L 1145 18 Z" unicode="u" />
<glyph horiz-adv-x="946" d="M 997 924 C 982 921 968 917 955 913 C 942 909 930 903 918 895 C 906 887 895 876 885 862 C 875 848 865 831 856 811 C 840 776 821 734 800 684 C 778 634 756 581 734 527 C 711 472 688 418 666 364 C 644 310 624 263 608 221 C 594 183 580 146 566 109 C 552 72 539 31 526 -14 L 459 -14 L 94 821 C 82 850 66 873 46 890 C 26 906 -3 917 -41 922 L -41 936 L 465 936 L 465 918 C 451 917 436 916 422 914 C 407 912 393 910 381 907 C 368 903 358 899 350 894 C 342 888 338 882 338 874 C 338 872 339 867 341 859 C 343 851 346 842 350 831 C 356 815 365 794 376 768 C 387 741 399 711 413 678 C 427 645 441 610 457 572 C 473 534 489 497 505 460 C 521 422 536 386 551 351 C 566 316 580 285 594 258 C 608 292 624 331 643 376 C 661 421 680 467 699 515 C 718 563 737 610 756 656 C 774 702 791 744 805 780 C 809 789 812 801 816 815 C 819 829 820 841 819 852 C 817 863 811 872 801 880 C 791 888 778 894 762 900 C 746 906 728 910 709 914 C 690 918 672 921 655 924 L 655 936 L 997 936 L 997 924 Z" unicode="v" />
<glyph horiz-adv-x="1458" d="M 1522 924 C 1507 922 1492 918 1477 912 C 1462 906 1448 899 1434 889 C 1420 879 1408 866 1397 852 C 1385 838 1376 821 1368 801 C 1359 780 1348 754 1336 724 C 1324 693 1311 660 1297 624 C 1283 588 1268 550 1253 512 C 1238 473 1224 435 1210 399 C 1196 363 1182 329 1170 298 C 1158 266 1147 240 1139 219 C 1131 199 1123 180 1116 162 C 1109 144 1102 125 1096 107 C 1089 88 1082 69 1076 49 C 1070 29 1063 8 1057 -14 L 983 -14 C 965 34 946 86 926 143 C 905 200 884 257 863 315 C 842 373 822 429 802 483 C 782 537 764 585 748 627 C 738 606 727 578 713 544 C 699 509 684 472 669 433 C 654 394 639 355 625 317 C 610 279 598 246 588 219 C 573 181 559 143 547 107 C 534 70 521 30 508 -14 L 432 -14 C 404 54 376 126 347 200 C 318 274 289 348 260 421 C 231 494 203 565 176 633 C 148 701 123 763 100 819 C 88 851 71 875 51 891 C 31 907 2 917 -35 922 L -35 936 L 449 936 L 449 918 C 438 917 426 916 413 914 C 400 912 388 910 377 907 C 366 903 357 899 349 894 C 341 888 338 882 338 874 C 338 872 339 867 341 859 C 343 851 346 842 350 831 C 355 818 362 799 372 773 C 382 747 393 718 406 685 C 418 651 432 615 446 577 C 460 539 475 501 490 463 C 504 425 519 388 533 353 C 547 317 559 286 571 260 C 583 288 595 320 609 356 C 623 392 637 428 651 464 C 665 500 679 536 693 571 C 707 605 719 636 731 662 C 727 670 723 682 717 698 C 711 714 704 730 698 746 C 692 762 686 778 680 792 C 674 806 669 817 666 825 C 653 858 637 881 619 895 C 601 908 577 917 547 922 L 547 936 L 1020 936 L 1020 920 C 1008 919 995 918 981 917 C 967 915 954 913 942 910 C 930 906 919 902 911 896 C 903 890 899 883 899 874 C 899 872 899 868 901 860 C 902 852 905 842 911 831 C 915 818 922 798 932 772 C 941 746 952 716 964 682 C 976 648 990 611 1004 572 C 1018 533 1032 494 1046 456 C 1060 418 1074 381 1088 346 C 1101 311 1113 281 1124 256 C 1138 292 1155 334 1173 381 C 1191 428 1209 476 1227 524 C 1245 572 1263 619 1279 663 C 1295 707 1309 746 1321 778 C 1325 789 1328 802 1331 817 C 1333 831 1335 842 1335 850 C 1335 862 1329 872 1317 880 C 1305 888 1291 895 1275 901 C 1259 907 1242 911 1224 915 C 1206 919 1190 922 1178 924 L 1178 936 L 1522 936 L 1522 924 Z" unicode="w" />
<glyph horiz-adv-x="983" d="M 999 0 L 502 0 L 502 16 C 514 16 527 18 542 20 C 556 22 570 25 583 29 C 595 33 606 37 614 42 C 622 46 627 51 627 57 C 627 62 624 69 620 78 C 616 86 609 98 600 113 C 595 122 585 138 571 162 C 557 185 541 211 523 239 C 505 267 486 296 467 325 C 448 353 432 378 418 399 C 406 385 390 366 371 342 C 351 318 331 293 310 267 C 289 241 269 215 250 191 C 231 166 216 145 205 129 C 199 119 193 110 188 101 C 182 91 180 83 180 76 C 180 66 184 58 194 51 C 203 44 215 38 229 33 C 243 28 258 24 275 21 C 292 17 308 15 324 14 L 324 0 L -12 0 L -12 12 C 10 17 29 23 46 31 C 63 39 78 48 92 58 C 106 68 118 80 130 93 C 142 105 154 119 166 135 C 176 147 190 164 210 188 C 229 211 250 236 273 264 C 296 291 319 319 343 347 C 366 375 386 400 403 422 C 394 434 383 450 369 472 C 355 494 339 518 322 544 C 305 570 288 597 270 625 C 252 653 234 681 217 707 C 200 733 185 756 171 778 C 157 799 145 816 137 829 C 124 847 112 863 101 875 C 89 887 78 896 68 903 C 57 909 46 914 36 917 C 26 919 15 921 4 922 L 4 936 L 483 936 L 483 922 C 471 922 458 921 445 919 C 432 917 420 915 409 913 C 398 911 389 908 382 904 C 375 900 371 897 371 893 C 369 885 370 878 374 871 C 377 863 381 856 387 848 C 390 842 395 833 403 821 C 411 808 420 793 431 777 C 441 760 453 742 465 722 C 477 702 490 683 502 665 C 514 646 525 628 536 612 C 546 595 555 581 563 571 C 575 587 589 605 605 627 C 621 649 637 671 655 694 C 672 717 689 740 705 762 C 721 784 736 803 748 821 C 760 840 766 855 764 866 C 762 880 749 891 723 899 C 697 906 665 914 625 924 L 625 936 L 973 936 L 973 924 C 946 918 923 911 905 904 C 886 896 870 888 856 879 C 842 869 829 859 817 847 C 805 835 794 823 782 809 C 774 799 762 785 747 766 C 731 747 714 726 695 702 C 676 678 656 652 636 626 C 615 600 596 575 578 551 C 588 536 600 517 616 493 C 632 469 649 443 667 415 C 685 387 704 358 724 328 C 743 298 761 269 779 242 C 797 214 813 190 827 168 C 841 146 852 130 860 119 C 870 103 879 90 889 78 C 898 66 908 55 918 47 C 928 38 940 31 953 26 C 965 21 981 18 999 16 L 999 0 Z" unicode="x" />
<glyph horiz-adv-x="940" d="M 995 924 C 978 920 963 916 949 911 C 935 905 922 898 911 890 C 899 881 889 870 880 858 C 870 845 862 829 854 811 C 842 783 827 747 809 703 C 791 659 772 611 751 559 C 730 506 708 451 686 394 C 664 337 642 282 621 229 C 599 175 579 125 561 79 C 543 33 528 -5 516 -37 C 481 -123 448 -194 417 -250 C 386 -305 355 -349 325 -381 C 294 -413 263 -435 232 -447 C 200 -459 167 -465 131 -465 C 115 -465 98 -462 79 -457 C 60 -451 42 -442 25 -430 C 8 -418 -5 -402 -17 -382 C -29 -362 -35 -337 -35 -309 C -35 -293 -32 -277 -26 -261 C -20 -245 -11 -231 0 -219 C 12 -206 26 -196 42 -188 C 58 -180 76 -176 96 -176 C 110 -176 124 -178 139 -182 C 154 -186 168 -192 180 -202 C 192 -212 203 -224 211 -239 C 219 -254 223 -273 223 -295 C 223 -302 222 -312 220 -324 C 218 -336 217 -349 215 -362 C 213 -375 211 -387 209 -399 C 207 -410 205 -418 205 -424 C 226 -420 247 -410 267 -394 C 287 -378 307 -358 326 -334 C 345 -310 363 -284 380 -256 C 396 -227 411 -199 425 -171 C 439 -143 451 -117 461 -93 C 471 -69 479 -49 485 -33 C 468 6 448 51 426 102 C 403 152 379 205 354 260 C 329 315 303 370 277 426 C 251 482 226 535 203 585 C 179 635 158 680 139 721 C 120 762 105 795 94 821 C 82 849 65 871 45 887 C 24 903 -5 915 -45 922 L -45 936 L 455 936 L 455 918 C 443 917 430 916 416 914 C 402 912 388 910 376 907 C 364 903 353 899 345 894 C 336 888 332 882 332 874 C 332 872 333 867 336 859 C 338 851 342 841 346 831 C 351 816 360 795 372 769 C 384 742 397 712 413 678 C 428 644 444 608 462 570 C 480 532 497 494 515 457 C 532 419 548 384 564 350 C 579 316 592 288 604 264 C 618 297 633 336 651 380 C 668 424 686 469 704 516 C 722 563 740 610 758 656 C 775 702 791 743 805 780 C 809 792 812 805 816 818 C 819 831 821 842 821 852 C 821 862 816 871 806 879 C 796 887 784 893 769 899 C 754 904 737 909 718 913 C 699 917 680 920 662 924 L 662 936 L 995 936 L 995 924 Z" unicode="y" />
<glyph horiz-adv-x="887" d="M 854 0 L 31 0 L 31 20 L 582 911 L 442 911 C 396 911 355 909 320 906 C 284 902 258 897 240 889 C 228 884 216 873 202 855 C 188 837 173 817 159 793 C 145 769 131 745 118 719 C 105 693 94 669 84 649 L 68 649 L 68 936 L 844 936 L 844 915 L 293 23 C 323 21 351 20 377 20 C 403 20 429 20 455 20 C 485 20 515 21 543 23 C 571 25 599 27 629 29 C 641 29 653 33 664 39 C 675 45 685 52 694 61 C 703 70 711 80 719 91 C 726 102 733 113 739 125 C 747 139 755 156 765 174 C 774 192 783 211 792 229 C 801 247 809 265 817 283 C 825 301 832 316 838 330 L 854 330 L 854 0 Z" unicode="z" />
<glyph horiz-adv-x="858" d="M 799 -346 C 727 -346 663 -341 607 -333 C 551 -324 503 -307 464 -282 C 425 -256 395 -221 375 -175 C 354 -129 344 -70 344 4 C 344 24 345 46 349 68 C 352 90 356 113 360 135 C 364 157 368 180 372 202 C 375 224 377 246 377 268 C 377 322 369 365 355 399 C 340 432 319 458 292 477 C 265 496 232 509 193 517 C 154 525 111 531 63 535 L 63 643 C 111 647 155 653 194 661 C 233 669 266 682 293 701 C 320 719 341 745 355 778 C 369 811 377 855 377 909 C 377 930 375 952 372 974 C 368 996 364 1019 360 1042 C 356 1064 352 1087 349 1109 C 345 1131 344 1152 344 1174 C 344 1247 354 1306 375 1352 C 395 1398 425 1433 464 1459 C 503 1484 551 1501 607 1510 C 663 1519 727 1524 799 1524 L 799 1509 C 769 1507 740 1504 712 1498 C 684 1492 660 1481 639 1463 C 617 1445 600 1419 588 1385 C 575 1351 569 1305 569 1247 C 569 1205 572 1164 578 1124 C 584 1083 588 1042 588 1001 C 588 929 577 872 557 829 C 537 785 509 751 474 726 C 439 700 398 682 352 670 C 306 658 257 647 205 639 L 205 539 C 256 530 305 520 351 508 C 397 496 438 477 473 452 C 508 426 536 392 557 349 C 577 305 588 248 588 176 C 588 134 584 93 578 53 C 572 12 569 -28 569 -70 C 569 -128 575 -174 588 -208 C 600 -242 617 -268 639 -286 C 660 -304 684 -315 712 -321 C 740 -327 769 -330 799 -332 L 799 -346 L 799 -346 Z" unicode="{" />
<glyph horiz-adv-x="567" d="M 250 1528 L 319 1528 L 319 -424 L 250 -424 L 250 1528 Z" unicode="|" />
<glyph horiz-adv-x="858" d="M 57 -332 C 87 -330 115 -327 143 -321 C 171 -315 195 -304 217 -286 C 238 -268 255 -242 268 -208 C 280 -174 287 -128 287 -70 C 287 -28 283 12 277 53 C 271 93 268 134 268 176 C 268 248 278 305 299 349 C 319 392 347 426 382 452 C 417 477 458 496 504 508 C 550 520 599 530 651 539 L 651 639 C 599 647 549 658 503 670 C 457 682 416 700 381 726 C 346 751 318 785 298 829 C 278 872 268 929 268 1001 C 268 1042 271 1083 277 1124 C 283 1164 287 1205 287 1247 C 287 1305 280 1351 268 1385 C 255 1419 238 1445 217 1463 C 195 1481 171 1492 143 1498 C 115 1504 87 1507 57 1509 L 57 1524 C 128 1524 192 1519 248 1510 C 304 1501 352 1484 392 1459 C 431 1433 461 1398 482 1352 C 503 1306 514 1247 514 1174 C 514 1152 512 1131 509 1109 C 505 1087 501 1064 497 1042 C 493 1019 489 996 486 974 C 482 952 481 930 481 909 C 481 855 488 811 502 778 C 516 745 537 719 564 701 C 590 682 623 669 662 661 C 700 653 744 647 793 643 L 793 535 C 745 531 701 525 663 517 C 624 509 591 496 564 477 C 537 458 516 432 502 399 C 488 365 481 322 481 268 C 481 246 482 224 486 202 C 489 180 493 157 497 135 C 501 113 505 90 509 68 C 512 46 514 24 514 4 C 514 -70 503 -129 482 -175 C 461 -221 431 -256 392 -282 C 352 -307 304 -324 248 -333 C 192 -341 128 -346 57 -346 L 57 -332 Z" unicode="}" />
<glyph horiz-adv-x="1083" d="M 109 397 C 117 431 130 465 148 499 C 165 532 186 562 210 588 C 234 614 262 636 292 652 C 322 668 355 676 391 676 C 429 676 465 671 498 661 C 530 651 561 641 591 629 C 620 617 648 606 675 596 C 701 586 728 582 754 582 C 806 582 847 592 878 612 C 909 632 937 665 961 709 L 973 705 C 963 669 949 635 933 601 C 917 567 897 536 875 510 C 853 483 827 462 799 446 C 770 430 739 422 705 422 C 663 422 626 426 593 436 C 560 446 529 456 501 468 C 472 479 445 489 419 499 C 393 509 368 514 342 514 C 290 514 246 504 211 486 C 175 468 146 437 123 393 L 109 397 Z" unicode="~" />
<glyph horiz-adv-x="856" d="M 430 10 C 416 10 405 12 395 17 C 385 22 376 29 370 38 C 363 46 358 56 355 67 C 351 77 350 88 350 100 C 350 118 353 135 359 153 C 365 170 373 187 381 203 C 389 219 396 234 404 249 C 412 263 417 277 420 289 C 409 279 394 271 374 264 C 354 257 337 254 322 254 C 298 254 279 256 265 261 C 251 266 237 270 225 274 C 221 251 211 233 197 220 C 183 207 166 201 147 201 C 129 201 114 208 104 222 C 93 236 88 252 88 270 C 88 292 94 311 107 327 C 119 342 139 350 166 350 C 183 350 198 346 210 338 C 222 330 234 321 245 311 C 256 301 267 292 279 284 C 290 276 303 272 319 272 C 332 272 342 279 349 294 C 355 308 361 326 367 348 C 369 360 372 380 377 408 C 382 436 387 466 393 500 C 399 534 404 568 409 602 C 414 636 418 664 420 688 L 434 688 C 436 664 440 635 446 601 C 452 567 458 533 464 499 C 470 465 475 435 481 407 C 486 379 490 359 492 348 C 497 326 503 308 509 294 C 515 279 525 272 539 272 C 554 272 567 276 578 284 C 588 292 599 301 609 311 C 619 321 630 330 642 338 C 654 346 668 350 686 350 C 714 350 735 342 749 327 C 763 311 770 292 770 270 C 770 252 764 236 752 222 C 740 208 724 201 705 201 C 666 201 641 225 631 274 C 619 270 606 266 592 261 C 577 256 559 254 539 254 C 531 254 522 255 513 257 C 503 259 494 261 484 265 C 474 268 465 272 457 276 C 449 280 442 285 436 289 C 439 275 445 260 453 246 C 461 231 469 216 477 200 C 485 184 492 168 498 152 C 504 135 508 118 508 100 C 508 88 506 77 503 67 C 499 56 494 46 488 38 C 481 29 473 22 463 17 C 453 12 442 10 430 10 Z M 420 752 C 417 775 413 804 408 838 C 402 872 397 906 391 940 C 385 974 379 1005 374 1033 C 369 1061 366 1080 365 1092 C 359 1113 353 1131 347 1145 C 340 1159 330 1167 317 1167 C 301 1167 288 1163 278 1155 C 267 1147 256 1138 246 1128 C 235 1118 224 1110 212 1102 C 200 1094 185 1090 168 1090 C 141 1090 121 1097 107 1112 C 93 1127 86 1146 86 1169 C 86 1186 92 1202 104 1217 C 116 1231 132 1239 152 1239 C 170 1239 185 1232 198 1219 C 210 1206 219 1188 225 1165 C 237 1168 251 1172 265 1178 C 279 1183 297 1186 319 1186 C 327 1186 335 1185 344 1183 C 353 1181 362 1178 371 1174 C 380 1170 389 1167 397 1163 C 405 1159 412 1155 418 1151 C 415 1165 410 1179 402 1194 C 394 1208 387 1223 379 1239 C 371 1254 363 1270 357 1287 C 351 1303 348 1321 348 1339 C 348 1350 349 1361 353 1372 C 356 1383 361 1393 368 1401 C 374 1409 383 1416 393 1422 C 403 1427 414 1430 428 1430 C 440 1430 451 1427 461 1422 C 471 1416 479 1409 486 1401 C 492 1393 497 1383 501 1372 C 504 1361 506 1350 506 1339 C 506 1321 502 1303 496 1286 C 489 1269 481 1253 473 1237 C 465 1221 457 1205 449 1191 C 441 1176 436 1163 434 1151 C 440 1155 447 1160 455 1164 C 463 1168 472 1171 482 1175 C 492 1178 501 1181 511 1183 C 520 1185 529 1186 537 1186 C 560 1186 579 1183 593 1178 C 607 1172 619 1168 631 1165 C 636 1187 645 1205 659 1219 C 673 1232 689 1239 709 1239 C 728 1239 743 1231 753 1217 C 763 1202 768 1186 768 1169 C 768 1146 761 1127 748 1112 C 734 1097 715 1090 690 1090 C 672 1090 656 1094 644 1102 C 631 1110 619 1118 608 1128 C 597 1138 586 1147 575 1155 C 564 1163 551 1167 537 1167 C 523 1167 513 1159 507 1145 C 500 1131 494 1113 489 1092 C 487 1080 483 1060 478 1032 C 473 1004 468 973 462 939 C 456 905 451 872 446 838 C 440 804 436 775 434 752 L 420 752 Z" unicode="‡" />
<glyph horiz-adv-x="1946" d="" unicode="℗" />
<glyph horiz-adv-x="530" d="M 422 559 C 422 537 417 516 409 497 C 401 478 389 462 375 448 C 361 434 344 423 325 415 C 305 407 285 403 264 403 C 242 403 222 407 203 415 C 183 423 166 434 152 448 C 138 462 126 478 118 497 C 110 516 106 537 106 559 C 106 581 110 601 118 621 C 126 640 138 657 152 671 C 166 685 183 696 203 704 C 222 712 242 717 264 717 C 285 717 305 712 325 704 C 344 696 361 685 375 671 C 389 657 401 640 409 621 C 417 601 422 581 422 559 Z" unicode="∙" />
<glyph horiz-adv-x="225" d="" unicode=" " />
<glyph horiz-adv-x="664" d="M 179 0 L 179 0 Z M 340 967 C 346 907 354 847 364 788 C 373 728 383 671 393 616 C 403 561 413 509 423 459 C 433 409 442 363 450 321 C 458 279 464 241 469 209 C 473 176 476 149 476 129 C 476 108 472 88 466 70 C 459 51 449 34 437 20 C 424 6 409 -5 391 -13 C 373 -22 352 -26 330 -26 C 307 -26 287 -22 269 -13 C 251 -5 236 6 224 20 C 211 34 201 51 195 70 C 188 88 185 108 185 129 C 185 159 190 203 200 260 C 210 317 222 383 237 458 C 251 532 266 613 282 700 C 298 787 312 876 324 967 L 340 967 Z M 332 1428 C 353 1428 373 1425 391 1417 C 409 1410 425 1400 439 1387 C 453 1373 464 1357 472 1339 C 480 1321 484 1301 484 1280 C 484 1258 480 1238 472 1220 C 464 1201 453 1185 439 1171 C 425 1157 409 1146 391 1138 C 373 1130 353 1126 332 1126 C 310 1126 290 1130 272 1138 C 253 1146 237 1157 223 1171 C 209 1185 199 1201 191 1220 C 183 1238 179 1258 179 1280 C 179 1301 183 1321 191 1339 C 199 1357 209 1373 223 1387 C 237 1400 253 1410 272 1417 C 290 1425 310 1428 332 1428 Z" unicode="¡" />
<glyph horiz-adv-x="973" d="M 299 -225 L 387 147 C 292 178 219 234 167 316 C 115 397 90 499 90 621 C 90 683 100 744 122 803 C 144 861 175 913 215 958 C 255 1003 305 1039 363 1067 C 421 1094 486 1108 559 1108 C 568 1108 577 1107 586 1107 C 594 1106 602 1105 610 1104 L 674 1372 L 707 1366 L 645 1102 C 682 1095 716 1084 746 1070 C 776 1055 801 1038 822 1018 C 843 998 859 975 870 951 C 881 926 887 900 887 874 C 887 837 877 807 858 784 C 839 761 811 750 774 750 C 761 750 748 752 735 756 C 721 760 709 766 699 775 C 688 783 679 794 672 808 C 665 822 662 838 662 858 C 662 880 663 898 667 914 C 671 930 675 943 679 955 C 683 967 686 977 690 987 C 694 996 696 1006 696 1016 C 692 1030 685 1041 675 1051 C 664 1061 652 1069 639 1077 L 449 276 C 467 256 490 240 518 229 C 546 218 576 213 606 213 C 639 213 670 216 698 222 C 726 228 752 237 776 251 C 800 264 822 282 843 304 C 863 326 883 354 903 387 L 920 377 C 884 297 833 235 769 191 C 704 147 629 125 545 125 C 524 125 502 126 480 129 C 457 131 436 135 418 139 L 330 -231 L 299 -225 Z M 608 1085 C 600 1087 593 1089 586 1089 C 579 1089 572 1090 565 1090 C 533 1090 503 1080 475 1062 C 446 1043 421 1015 399 978 C 377 940 359 893 346 836 C 332 779 326 713 326 637 C 326 569 334 506 351 448 C 367 390 392 343 424 307 L 608 1085 Z" unicode="¢" />
<glyph horiz-adv-x="1511" d="M 125 -201 C 82 -201 45 -196 15 -187 C -14 -177 -39 -165 -59 -149 C -78 -133 -92 -114 -101 -92 C -110 -70 -115 -46 -115 -20 C -115 12 -105 43 -85 71 C -65 99 -38 124 -4 145 C 29 165 68 181 112 193 C 156 205 203 211 252 211 C 295 211 341 206 391 197 C 441 188 490 177 539 164 C 544 196 546 230 545 266 C 544 302 543 339 541 379 L 190 379 L 190 408 L 539 408 C 537 438 534 471 532 505 C 529 539 528 569 528 594 L 203 594 L 203 625 L 528 625 C 530 745 545 854 574 953 C 603 1052 644 1137 696 1208 C 748 1278 810 1333 882 1372 C 954 1410 1034 1430 1122 1430 C 1192 1430 1253 1419 1305 1398 C 1357 1377 1400 1350 1434 1317 C 1468 1284 1493 1247 1509 1206 C 1525 1165 1534 1125 1534 1085 C 1534 1035 1525 990 1509 950 C 1493 910 1469 875 1439 846 C 1409 816 1372 794 1330 778 C 1287 762 1240 754 1188 754 C 1149 754 1115 760 1085 772 C 1055 784 1031 800 1011 822 C 991 844 975 870 965 900 C 955 930 950 963 950 999 C 950 1029 953 1057 960 1085 C 966 1112 975 1140 987 1169 L 1004 1165 C 992 1138 984 1112 978 1087 C 972 1061 969 1038 969 1018 C 969 984 974 953 984 927 C 994 901 1009 878 1027 860 C 1045 841 1067 827 1092 817 C 1117 807 1144 803 1174 803 C 1240 803 1289 826 1323 873 C 1357 920 1374 987 1374 1075 C 1374 1119 1369 1162 1359 1203 C 1349 1244 1335 1280 1315 1311 C 1295 1342 1269 1367 1238 1385 C 1207 1403 1170 1413 1128 1413 C 1074 1413 1026 1401 985 1378 C 944 1354 909 1318 881 1269 C 853 1220 831 1157 815 1080 C 799 1003 790 911 788 805 C 788 773 787 741 785 709 C 783 676 781 648 778 625 L 1108 625 L 1108 594 L 774 594 C 771 579 768 563 764 546 C 760 528 755 511 751 495 C 746 478 741 462 736 447 C 730 431 725 418 721 408 L 1092 408 L 1092 379 L 711 379 C 703 358 694 337 685 315 C 675 293 665 272 655 251 C 645 230 634 210 623 192 C 612 174 602 158 592 145 C 634 130 676 114 717 96 C 758 78 799 62 840 46 C 880 30 921 17 961 7 C 1001 -2 1041 -8 1081 -8 C 1137 -8 1182 1 1218 20 C 1253 38 1281 62 1303 91 C 1324 120 1340 152 1350 188 C 1360 224 1368 259 1374 293 L 1393 289 C 1385 233 1372 177 1354 123 C 1336 68 1308 19 1272 -24 C 1236 -67 1189 -102 1131 -129 C 1073 -156 1001 -170 915 -170 C 879 -170 843 -165 807 -157 C 771 -148 736 -137 700 -123 C 664 -109 629 -93 594 -76 C 558 -58 523 -41 489 -25 C 469 -49 445 -71 418 -93 C 390 -114 361 -133 329 -149 C 297 -165 264 -177 229 -187 C 194 -196 159 -201 125 -201 Z M 123 -176 C 155 -176 186 -172 218 -164 C 249 -156 279 -145 309 -131 C 339 -117 367 -99 393 -79 C 419 -59 443 -36 465 -12 C 398 18 335 42 275 58 C 215 74 156 82 96 82 C 42 82 0 70 -31 48 C -62 25 -78 -5 -78 -43 C -78 -60 -73 -77 -65 -93 C -57 -109 -44 -123 -28 -135 C -11 -147 9 -157 34 -165 C 59 -172 89 -176 123 -176 Z" unicode="£" />
<glyph horiz-adv-x="1198" d="M 725 -29 C 654 -29 589 -17 529 5 C 469 27 417 61 373 105 C 328 149 291 203 263 268 C 234 332 215 407 207 492 L 55 492 L 55 522 L 205 522 C 203 551 202 580 202 609 C 202 637 203 664 205 690 L 55 690 L 55 721 L 211 721 C 221 797 241 868 272 935 C 302 1001 342 1059 391 1109 C 440 1159 498 1198 565 1227 C 631 1255 706 1270 788 1270 C 843 1270 893 1263 938 1250 C 982 1236 1020 1218 1052 1195 C 1083 1171 1107 1144 1124 1113 C 1140 1082 1149 1049 1149 1014 C 1149 986 1145 962 1139 942 C 1132 922 1123 906 1113 894 C 1103 882 1091 873 1078 867 C 1064 861 1051 858 1038 858 C 1002 858 974 868 955 890 C 935 911 926 937 926 967 C 926 984 929 999 936 1013 C 942 1027 950 1040 958 1053 C 966 1066 974 1079 981 1092 C 987 1105 991 1119 991 1135 C 988 1151 981 1166 970 1180 C 958 1194 943 1206 925 1216 C 907 1226 886 1235 862 1241 C 838 1247 812 1251 784 1251 C 736 1251 694 1238 658 1214 C 622 1189 590 1154 564 1108 C 538 1062 517 1006 501 941 C 485 875 475 802 469 721 L 918 721 L 918 690 L 467 690 C 467 661 467 631 467 601 C 467 571 467 544 469 522 L 852 522 L 852 492 L 471 492 C 475 430 484 373 500 319 C 515 265 536 217 564 177 C 592 137 625 105 665 82 C 705 58 751 47 803 47 C 845 47 883 53 917 66 C 951 78 982 96 1010 119 C 1038 141 1063 168 1085 199 C 1107 230 1127 264 1145 301 L 1165 289 C 1145 244 1122 202 1096 164 C 1070 125 1040 91 1005 63 C 970 34 930 11 884 -4 C 838 -20 785 -29 725 -29 Z" unicode="¤" />
<glyph horiz-adv-x="1176" d="M 244 14 C 253 14 265 15 280 17 C 294 18 309 19 325 21 C 340 23 354 25 368 27 C 381 29 391 32 399 35 C 417 41 433 52 445 70 C 457 88 463 108 463 131 L 463 317 L 147 317 L 147 348 L 463 348 L 463 512 L 147 512 L 147 543 L 459 543 C 451 560 439 583 425 612 C 411 640 395 672 377 706 C 359 740 341 776 322 813 C 303 849 285 884 268 917 C 250 950 234 980 220 1007 C 205 1033 194 1054 186 1069 C 168 1102 150 1129 132 1150 C 113 1171 93 1188 72 1200 C 56 1209 39 1216 20 1220 C 0 1224 -17 1227 -35 1229 L -35 1243 L 571 1243 L 571 1229 C 555 1227 538 1226 519 1224 C 499 1222 481 1218 464 1214 C 446 1210 432 1204 420 1198 C 408 1191 403 1183 403 1174 C 403 1168 406 1156 414 1138 C 422 1120 432 1097 446 1069 C 460 1041 476 1008 495 972 C 513 936 533 897 555 855 C 577 813 600 770 624 725 C 648 680 673 635 698 590 C 721 630 745 670 770 712 C 794 754 818 794 841 833 C 864 872 886 909 906 945 C 926 981 944 1013 959 1041 C 974 1069 986 1092 995 1112 C 1003 1131 1008 1144 1008 1151 C 1008 1164 1001 1175 989 1185 C 977 1194 961 1202 942 1208 C 923 1214 902 1218 880 1222 C 858 1225 837 1227 817 1229 L 817 1243 L 1225 1243 L 1225 1229 C 1191 1225 1160 1213 1131 1194 C 1101 1174 1077 1151 1059 1124 C 1037 1092 1012 1052 983 1006 C 953 960 923 910 891 858 C 859 805 827 751 795 697 C 763 642 733 591 707 543 L 1034 543 L 1034 512 L 705 512 L 705 348 L 1034 348 L 1034 317 L 705 317 L 705 141 C 705 119 710 100 720 82 C 730 64 745 51 764 43 C 772 39 782 36 795 33 C 807 29 821 26 835 24 C 849 21 862 19 876 17 C 890 15 901 14 911 14 L 911 0 L 244 0 L 244 14 Z" unicode="¥" />
<glyph horiz-adv-x="567" d="M 250 379 L 319 379 L 319 -424 L 250 -424 L 250 379 Z M 250 1528 L 319 1528 L 319 743 L 250 743 L 250 1528 Z" unicode="¦" />
<glyph horiz-adv-x="1090" d="M 481 -465 C 435 -465 396 -456 363 -440 C 329 -423 302 -403 280 -379 C 258 -355 241 -331 231 -305 C 220 -279 215 -256 215 -238 C 215 -190 226 -151 249 -122 C 272 -92 306 -78 350 -78 C 366 -78 380 -81 394 -87 C 408 -93 420 -101 430 -112 C 440 -122 448 -135 454 -149 C 460 -163 463 -178 463 -195 C 463 -215 458 -231 450 -245 C 442 -259 433 -271 423 -282 C 413 -293 403 -304 395 -314 C 387 -324 383 -335 383 -348 C 383 -362 385 -375 391 -387 C 396 -399 403 -409 413 -419 C 423 -428 434 -435 448 -441 C 461 -446 476 -449 492 -449 C 517 -449 540 -443 561 -432 C 582 -420 600 -404 615 -384 C 630 -363 642 -339 650 -311 C 658 -283 662 -252 662 -219 C 662 -194 658 -171 652 -149 C 646 -127 637 -106 626 -85 C 614 -63 600 -42 584 -20 C 568 1 550 24 530 49 C 510 75 490 99 470 122 C 450 144 430 167 409 190 C 387 213 365 238 341 264 C 317 290 292 320 264 354 C 238 384 216 412 198 438 C 180 464 165 489 153 514 C 141 539 132 564 126 590 C 120 616 117 644 117 674 C 117 713 124 748 140 780 C 156 811 176 838 202 862 C 227 885 256 904 288 919 C 320 933 352 944 385 950 C 361 984 341 1023 325 1067 C 309 1111 301 1158 301 1208 C 301 1248 309 1286 325 1323 C 341 1359 364 1391 394 1419 C 423 1447 458 1469 499 1486 C 540 1502 585 1511 635 1511 C 679 1511 718 1502 750 1486 C 782 1470 809 1450 829 1427 C 849 1403 864 1379 874 1353 C 884 1327 889 1304 889 1286 C 889 1262 886 1241 880 1221 C 874 1201 865 1183 854 1169 C 842 1155 828 1144 811 1136 C 794 1128 774 1124 752 1124 C 736 1124 721 1127 707 1133 C 693 1139 682 1147 672 1157 C 662 1167 655 1180 649 1194 C 643 1208 641 1224 641 1241 C 641 1261 646 1279 656 1293 C 666 1307 678 1320 690 1331 C 702 1341 713 1351 723 1361 C 733 1370 739 1381 739 1393 C 739 1420 728 1444 707 1464 C 685 1484 654 1495 614 1495 C 590 1495 568 1489 547 1479 C 526 1468 508 1453 492 1434 C 476 1415 464 1392 455 1365 C 446 1338 442 1308 442 1276 C 442 1250 445 1227 451 1206 C 457 1184 466 1163 478 1142 C 490 1121 504 1100 521 1078 C 537 1056 556 1032 578 1006 C 598 980 617 955 636 933 C 655 910 675 887 696 864 C 716 841 738 816 762 790 C 785 764 811 734 840 700 C 866 669 888 640 907 614 C 926 588 942 562 954 537 C 966 512 976 487 982 462 C 988 436 991 409 991 381 C 991 340 983 304 967 274 C 951 244 930 218 904 196 C 878 174 848 156 815 142 C 782 128 749 117 715 111 C 741 75 764 34 782 -11 C 800 -57 809 -107 809 -160 C 809 -200 801 -238 785 -275 C 769 -311 746 -344 718 -372 C 689 -400 654 -422 614 -439 C 574 -456 529 -465 481 -465 Z M 702 129 C 795 156 842 216 842 309 C 842 325 839 343 834 362 C 828 380 821 399 813 417 C 804 435 794 453 782 471 C 770 488 757 504 745 520 C 712 558 679 597 646 635 C 613 673 581 709 551 745 C 521 780 492 814 466 846 C 440 878 417 907 397 934 C 377 928 359 920 342 910 C 325 900 310 887 298 872 C 285 857 275 839 268 819 C 261 798 258 774 258 748 C 258 732 261 715 267 697 C 273 678 281 659 291 640 C 301 620 312 601 324 583 C 336 564 349 547 362 532 C 393 494 425 456 457 420 C 489 384 519 349 549 315 C 579 281 607 248 633 217 C 659 185 682 156 702 129 Z" unicode="§" />
<glyph horiz-adv-x="1024" d="M 870 1321 C 870 1301 866 1283 859 1267 C 852 1250 842 1235 830 1223 C 818 1210 803 1200 787 1193 C 771 1185 753 1182 735 1182 C 717 1182 699 1185 683 1192 C 667 1199 653 1209 641 1221 C 629 1233 619 1248 612 1264 C 605 1280 602 1298 602 1317 C 602 1335 605 1353 612 1370 C 619 1387 629 1402 641 1415 C 653 1427 667 1437 683 1445 C 699 1452 717 1456 735 1456 C 753 1456 771 1452 788 1445 C 804 1437 819 1427 831 1415 C 843 1403 852 1388 859 1372 C 866 1356 870 1339 870 1321 Z M 422 1321 C 422 1301 418 1283 411 1267 C 404 1250 394 1235 382 1223 C 370 1210 355 1200 339 1193 C 323 1185 305 1182 287 1182 C 269 1182 252 1185 236 1192 C 220 1199 205 1209 193 1221 C 181 1233 171 1248 164 1264 C 157 1280 154 1298 154 1317 C 154 1335 157 1353 164 1370 C 171 1387 181 1402 193 1415 C 205 1427 220 1437 236 1445 C 252 1452 269 1456 287 1456 C 305 1456 323 1452 339 1445 C 355 1437 370 1427 382 1415 C 394 1403 404 1388 411 1372 C 418 1356 422 1339 422 1321 Z" unicode="¨" />
<glyph horiz-adv-x="1946" d="M 1866 514 C 1866 432 1855 354 1834 279 C 1812 203 1782 133 1744 68 C 1706 2 1659 -57 1605 -111 C 1551 -165 1491 -211 1425 -250 C 1359 -288 1288 -318 1212 -339 C 1136 -360 1057 -371 975 -371 C 892 -371 812 -360 736 -339 C 660 -318 588 -288 522 -250 C 456 -211 395 -165 341 -111 C 287 -57 240 2 202 68 C 163 133 133 203 112 279 C 90 354 80 432 80 514 C 80 594 90 672 111 747 C 132 821 162 891 201 957 C 239 1022 286 1081 340 1135 C 394 1189 455 1235 521 1274 C 587 1312 659 1342 735 1363 C 811 1384 891 1395 975 1395 C 1057 1395 1136 1384 1212 1363 C 1288 1342 1359 1312 1425 1274 C 1491 1235 1551 1189 1605 1135 C 1659 1081 1706 1022 1744 957 C 1782 891 1812 821 1834 747 C 1855 672 1866 594 1866 514 Z M 1792 514 C 1792 589 1782 662 1763 732 C 1743 802 1716 867 1681 928 C 1645 989 1603 1045 1554 1095 C 1504 1145 1449 1188 1389 1224 C 1328 1260 1263 1287 1193 1307 C 1123 1327 1051 1337 975 1337 C 899 1337 825 1327 755 1307 C 685 1287 619 1260 559 1224 C 498 1188 443 1145 393 1095 C 343 1045 300 989 265 928 C 229 867 202 802 183 732 C 163 662 154 589 154 514 C 154 437 163 363 183 293 C 202 222 229 156 265 95 C 300 33 343 -22 393 -72 C 443 -122 498 -166 559 -202 C 619 -238 685 -265 755 -285 C 825 -305 899 -315 975 -315 C 1051 -315 1123 -305 1193 -285 C 1263 -265 1328 -238 1389 -202 C 1449 -166 1504 -122 1554 -72 C 1603 -22 1645 33 1681 95 C 1716 156 1743 222 1763 293 C 1782 363 1792 437 1792 514 Z M 1378 313 C 1361 275 1341 239 1318 205 C 1295 171 1268 140 1236 114 C 1204 87 1168 66 1127 50 C 1086 34 1039 27 987 27 C 915 27 849 38 789 60 C 729 82 677 114 634 156 C 591 197 558 247 534 306 C 510 365 498 432 498 506 C 498 576 511 642 537 703 C 563 763 600 816 647 861 C 693 905 748 940 812 966 C 876 991 945 1004 1020 1004 C 1045 1004 1071 1001 1097 997 C 1123 993 1147 987 1170 981 C 1193 974 1213 967 1231 959 C 1249 951 1262 944 1272 938 L 1323 1016 L 1339 1016 L 1348 647 L 1329 647 C 1316 685 1301 723 1284 763 C 1266 802 1245 838 1220 870 C 1195 902 1166 928 1132 948 C 1098 968 1059 979 1014 979 C 975 979 939 968 905 948 C 871 928 842 898 817 859 C 791 819 771 771 757 713 C 742 655 735 590 735 516 C 735 452 741 395 754 343 C 766 291 785 247 811 210 C 836 173 868 144 907 124 C 945 104 990 94 1042 94 C 1079 94 1113 100 1145 112 C 1177 124 1206 140 1232 161 C 1258 181 1281 206 1301 234 C 1321 262 1338 292 1354 324 L 1378 313 Z" unicode="©" />
<glyph horiz-adv-x="735" d="M 252 680 C 199 680 159 692 133 716 C 107 740 94 773 94 813 C 94 837 97 858 104 875 C 110 892 119 907 130 919 C 141 931 154 941 168 949 C 182 957 196 965 211 971 C 227 977 246 983 267 989 C 288 995 309 1000 329 1006 C 349 1011 367 1016 385 1022 C 403 1027 417 1032 428 1038 L 428 1120 C 428 1130 427 1143 425 1158 C 423 1173 419 1187 413 1201 C 407 1215 398 1226 386 1236 C 374 1246 358 1251 338 1251 C 319 1251 304 1248 294 1242 C 283 1236 275 1230 270 1225 C 270 1219 270 1213 272 1205 C 274 1197 276 1188 278 1179 C 280 1169 282 1160 284 1150 C 286 1140 287 1132 287 1124 C 287 1117 285 1110 282 1102 C 278 1094 273 1087 267 1081 C 260 1075 251 1069 241 1065 C 231 1061 219 1059 205 1059 C 178 1059 159 1067 147 1083 C 135 1099 129 1118 129 1139 C 129 1157 135 1175 149 1191 C 163 1207 180 1220 202 1232 C 223 1244 246 1253 272 1260 C 298 1266 322 1270 346 1270 C 375 1270 404 1268 432 1264 C 460 1260 485 1252 507 1240 C 529 1228 546 1210 560 1186 C 573 1162 580 1130 580 1090 C 580 1062 579 1034 578 1006 C 577 977 576 950 575 924 C 574 898 573 876 572 856 C 571 836 571 821 571 811 C 571 805 571 799 573 793 C 575 786 578 779 582 773 C 586 766 591 760 598 756 C 604 752 613 750 623 750 C 633 750 641 753 647 759 C 653 765 659 773 663 783 C 667 793 670 804 672 816 C 674 828 675 840 676 852 L 694 852 C 690 793 677 750 654 723 C 631 695 598 682 555 682 C 519 682 491 689 473 704 C 455 718 441 739 432 766 C 410 741 384 720 354 704 C 324 688 290 680 252 680 Z M 330 737 C 352 737 371 741 385 749 C 399 757 411 768 422 782 L 428 1018 C 403 1009 380 999 359 989 C 338 979 320 967 304 953 C 288 939 276 923 267 905 C 258 886 254 864 254 840 C 254 806 261 780 276 763 C 290 745 308 737 330 737 Z M 104 539 L 651 539 L 651 487 L 104 487 L 104 539 Z" unicode="ª" />
<glyph horiz-adv-x="1143" d="M 586 37 C 552 61 514 89 472 121 C 430 153 388 184 346 216 C 304 247 264 276 227 304 C 190 331 160 353 137 371 C 127 377 119 383 113 389 C 107 395 102 401 98 407 C 94 413 92 421 90 429 C 88 437 88 447 88 459 C 88 470 88 479 90 487 C 91 495 93 502 97 508 C 101 514 105 519 111 525 C 117 530 124 536 133 543 C 147 553 164 567 186 583 C 208 599 232 616 258 636 C 284 655 312 675 342 697 C 371 718 400 739 429 761 C 457 782 485 803 512 823 C 539 843 564 862 586 879 L 594 870 L 303 455 L 594 45 L 586 37 Z M 1022 37 C 988 61 951 89 909 121 C 867 153 826 184 784 216 C 742 247 703 276 666 304 C 629 331 599 353 575 371 C 565 377 557 383 551 389 C 545 395 540 401 536 407 C 532 413 530 421 528 429 C 526 437 526 447 526 459 C 526 470 526 479 528 487 C 529 495 531 502 535 508 C 539 514 543 519 549 525 C 554 530 561 536 569 543 C 583 553 601 567 623 583 C 645 599 670 616 696 636 C 722 655 750 675 780 697 C 809 718 838 739 867 761 C 895 782 923 803 950 823 C 976 843 1000 862 1022 879 L 1032 870 L 741 455 L 1032 45 L 1022 37 Z" unicode="«" />
<glyph horiz-adv-x="1151" d="M 934 516 L 86 516 L 86 600 L 1024 600 L 1024 80 L 934 80 L 934 516 Z" unicode="¬" />
<glyph horiz-adv-x="770" d="M 61 606 L 709 606 L 709 432 L 61 432 L 61 606 Z" unicode="­" />
<glyph horiz-adv-x="971" d="M 858 1067 C 858 1014 848 965 829 920 C 810 874 784 835 750 801 C 716 767 677 741 632 722 C 586 703 537 694 485 694 C 432 694 383 703 338 722 C 292 741 253 767 220 801 C 186 835 160 874 141 920 C 122 965 113 1014 113 1067 C 113 1119 122 1168 141 1214 C 160 1259 186 1298 220 1332 C 253 1366 292 1392 338 1411 C 383 1430 432 1440 485 1440 C 537 1440 586 1430 632 1411 C 677 1392 716 1366 750 1332 C 784 1298 810 1259 829 1214 C 848 1168 858 1119 858 1067 Z M 815 1067 C 815 1114 806 1158 790 1200 C 774 1241 751 1277 722 1307 C 692 1337 657 1361 617 1379 C 577 1396 533 1405 485 1405 C 437 1405 393 1396 353 1379 C 313 1361 278 1337 249 1307 C 219 1277 196 1241 180 1200 C 164 1158 156 1114 156 1067 C 156 1019 164 975 180 934 C 196 892 219 856 249 826 C 278 796 313 772 353 755 C 393 737 437 729 485 729 C 533 729 577 737 617 755 C 657 772 692 796 722 826 C 751 856 774 892 790 934 C 806 975 815 1019 815 1067 Z M 721 952 C 721 922 715 900 703 886 C 691 872 671 866 641 866 C 616 866 595 874 579 892 C 563 909 553 935 549 971 C 547 983 545 995 543 1007 C 541 1019 537 1031 531 1041 C 525 1051 516 1059 506 1065 C 495 1071 481 1075 463 1075 L 432 1075 L 432 924 C 432 916 433 910 436 905 C 438 900 443 896 451 893 C 455 891 461 889 469 888 C 477 887 485 887 492 887 L 492 872 L 291 872 L 291 887 C 296 887 304 887 314 889 C 324 890 330 891 332 893 C 344 899 350 909 350 924 L 350 1239 C 350 1246 348 1252 346 1258 C 344 1264 339 1268 332 1270 C 325 1272 318 1273 310 1275 C 302 1277 296 1278 291 1278 L 291 1292 L 510 1292 C 525 1292 541 1290 557 1287 C 573 1284 588 1279 602 1272 C 616 1265 627 1256 636 1244 C 644 1232 649 1216 649 1198 C 649 1182 645 1168 637 1156 C 629 1144 620 1133 608 1125 C 596 1116 582 1109 567 1104 C 551 1098 536 1094 522 1092 L 522 1085 C 529 1083 538 1081 549 1079 C 559 1076 570 1072 580 1067 C 590 1062 600 1056 608 1048 C 616 1040 622 1031 625 1020 C 629 1003 632 987 635 973 C 637 958 641 944 645 930 C 649 917 653 909 659 906 C 664 902 670 901 676 901 C 684 901 691 904 698 910 C 705 916 709 930 709 952 L 721 952 Z M 561 1186 C 561 1220 553 1244 538 1257 C 523 1269 504 1276 481 1276 L 432 1276 L 432 1092 L 465 1092 C 493 1092 516 1099 534 1114 C 552 1128 561 1152 561 1186 Z" unicode="®" />
<glyph horiz-adv-x="1024" d="M 850 1210 L 174 1210 L 174 1364 L 850 1364 L 850 1210 Z" unicode="¯" />
<glyph horiz-adv-x="786" d="M 389 848 C 346 848 306 854 269 867 C 231 879 199 898 171 923 C 143 948 120 979 104 1016 C 88 1053 80 1096 80 1145 C 80 1189 88 1231 106 1269 C 123 1307 146 1339 175 1367 C 203 1394 236 1415 274 1431 C 311 1446 349 1454 389 1454 C 431 1454 472 1447 510 1435 C 548 1423 582 1404 611 1379 C 640 1354 663 1322 681 1284 C 698 1245 707 1199 707 1147 C 707 1105 698 1065 681 1029 C 663 993 640 961 611 934 C 582 907 548 886 510 871 C 472 855 431 848 389 848 Z M 395 864 C 419 864 440 871 460 886 C 480 901 497 921 511 947 C 525 972 535 1002 543 1036 C 551 1070 555 1105 555 1143 C 555 1182 551 1219 545 1255 C 539 1290 529 1321 516 1348 C 502 1375 485 1396 465 1412 C 444 1428 419 1436 391 1436 C 362 1436 337 1427 317 1411 C 296 1395 279 1373 266 1347 C 253 1320 244 1290 238 1256 C 232 1222 229 1187 229 1153 C 229 1117 232 1081 238 1047 C 244 1012 253 981 267 954 C 280 927 297 905 318 889 C 339 872 365 864 395 864 Z" unicode="°" />
<glyph horiz-adv-x="940" d="M 139 743 C 183 771 224 797 261 821 C 298 845 332 867 363 889 C 393 911 422 932 448 953 C 474 973 500 995 524 1018 C 552 1045 575 1071 594 1097 C 613 1122 628 1147 640 1173 C 652 1199 660 1225 665 1251 C 669 1277 672 1305 672 1335 C 672 1360 668 1383 660 1405 C 652 1426 642 1444 628 1460 C 614 1475 597 1487 577 1496 C 557 1504 534 1509 510 1509 C 472 1509 439 1501 409 1486 C 379 1470 353 1451 331 1427 C 309 1403 293 1378 281 1350 C 269 1322 264 1295 264 1270 C 264 1257 265 1244 269 1232 C 272 1219 277 1208 285 1198 C 293 1188 303 1180 317 1174 C 330 1168 347 1165 367 1165 C 386 1165 404 1169 422 1177 C 439 1185 455 1194 469 1206 C 483 1218 496 1230 508 1244 C 519 1257 528 1269 535 1280 L 547 1272 C 537 1254 524 1234 509 1214 C 493 1193 475 1174 453 1157 C 431 1139 407 1125 379 1113 C 351 1101 320 1096 285 1096 C 234 1096 196 1108 171 1133 C 145 1157 133 1191 133 1235 C 133 1267 142 1300 162 1334 C 181 1368 208 1400 243 1429 C 277 1457 319 1481 368 1500 C 416 1518 470 1528 528 1528 C 578 1528 623 1522 664 1511 C 704 1499 739 1483 767 1463 C 795 1443 817 1418 833 1390 C 848 1362 856 1331 856 1298 C 856 1253 846 1213 828 1178 C 810 1142 782 1109 745 1078 C 708 1046 662 1016 606 986 C 550 956 484 925 408 893 C 404 891 397 887 387 881 C 377 875 367 868 356 861 C 345 853 335 846 325 839 C 315 832 307 827 303 823 L 737 823 C 755 823 771 827 786 835 C 800 843 814 855 827 869 C 839 883 851 899 863 917 C 875 935 887 953 899 973 L 911 967 L 786 690 L 139 690 L 139 743 Z" unicode="²" />
<glyph horiz-adv-x="938" d="M 387 680 C 352 680 317 683 282 691 C 247 699 215 710 187 726 C 159 741 136 761 118 785 C 100 809 92 837 92 870 C 92 888 95 906 102 922 C 109 938 118 951 130 963 C 142 974 155 983 170 989 C 185 995 201 999 217 999 C 242 999 263 991 279 977 C 295 963 303 943 303 918 C 303 899 298 885 288 875 C 278 865 268 856 256 849 C 244 842 233 835 223 829 C 213 823 209 814 209 803 C 209 790 212 777 220 765 C 228 752 239 741 254 731 C 268 721 287 713 309 707 C 331 701 356 698 385 698 C 421 698 456 706 489 722 C 522 738 551 759 576 785 C 600 811 620 841 635 875 C 649 909 657 943 657 979 C 657 999 655 1019 651 1039 C 647 1059 640 1076 631 1091 C 622 1106 610 1118 596 1127 C 581 1136 563 1141 541 1141 C 527 1141 513 1137 499 1131 C 485 1125 471 1117 457 1108 C 443 1098 429 1088 416 1076 C 402 1064 390 1054 379 1044 L 354 1079 C 394 1099 433 1119 469 1139 C 505 1158 536 1178 563 1200 C 589 1222 610 1246 626 1272 C 641 1298 649 1328 649 1362 C 649 1404 637 1439 613 1467 C 589 1495 556 1509 512 1509 C 492 1509 471 1504 447 1495 C 423 1486 401 1474 381 1458 C 360 1442 343 1423 329 1401 C 315 1379 309 1355 309 1329 C 309 1305 315 1285 327 1269 C 339 1253 360 1245 389 1245 C 403 1245 415 1247 427 1251 C 439 1255 449 1259 459 1265 C 468 1271 476 1277 484 1283 C 491 1289 498 1295 504 1300 L 512 1292 C 502 1280 491 1267 477 1255 C 463 1243 447 1231 430 1221 C 413 1211 395 1202 375 1196 C 355 1189 335 1186 315 1186 C 265 1186 229 1196 205 1216 C 181 1236 170 1264 170 1298 C 170 1326 180 1354 201 1382 C 222 1410 250 1434 285 1456 C 320 1477 361 1494 407 1508 C 453 1521 502 1528 553 1528 C 603 1528 646 1522 681 1512 C 715 1502 743 1488 765 1472 C 786 1456 801 1437 811 1416 C 820 1395 825 1374 825 1354 C 825 1334 819 1315 809 1296 C 798 1277 781 1259 759 1242 C 736 1224 707 1209 672 1195 C 637 1181 595 1169 547 1161 C 586 1162 623 1160 659 1155 C 695 1149 726 1139 753 1125 C 780 1111 802 1092 818 1068 C 834 1044 842 1014 842 979 C 842 934 830 893 806 857 C 782 820 750 788 709 762 C 667 736 619 715 564 701 C 508 687 449 680 387 680 Z" unicode="³" />
<glyph horiz-adv-x="1024" d="M 743 1430 C 743 1414 740 1401 736 1389 C 732 1377 725 1365 717 1355 C 709 1345 698 1335 685 1325 C 672 1315 657 1305 641 1294 C 625 1282 607 1270 587 1257 C 567 1244 545 1229 520 1213 C 495 1196 467 1177 436 1155 C 404 1133 370 1109 332 1081 L 322 1094 C 344 1133 364 1168 382 1200 C 399 1231 415 1259 429 1285 C 443 1310 456 1333 468 1354 C 480 1375 492 1395 504 1415 C 524 1450 545 1476 566 1494 C 587 1511 613 1520 643 1520 C 658 1520 672 1517 684 1512 C 696 1507 707 1500 716 1492 C 724 1483 731 1473 736 1463 C 740 1452 743 1441 743 1430 Z" unicode="´" />
<glyph horiz-adv-x="1200" d="M 197 -463 C 185 -463 173 -460 163 -455 C 152 -450 142 -443 134 -434 C 125 -425 118 -414 113 -401 C 108 -388 106 -374 106 -358 C 106 -334 108 -309 112 -284 C 116 -258 120 -234 126 -210 C 132 -186 137 -163 143 -141 C 148 -119 152 -100 154 -84 C 158 -50 160 -15 162 20 C 163 56 164 93 164 129 L 164 940 L 399 940 L 399 276 C 399 242 403 212 411 186 C 419 160 431 139 445 121 C 459 103 475 90 495 81 C 514 72 535 68 557 68 C 587 68 613 71 635 79 C 657 87 677 96 693 108 C 709 119 722 131 732 144 C 742 156 750 168 756 178 L 756 940 L 991 940 L 991 190 C 991 161 998 136 1013 115 C 1028 94 1050 84 1079 84 C 1097 84 1113 88 1127 98 C 1140 107 1151 119 1161 134 C 1170 149 1177 166 1182 186 C 1187 205 1190 224 1192 244 L 1210 244 C 1206 196 1199 155 1188 122 C 1176 88 1161 61 1142 41 C 1123 20 1100 5 1074 -4 C 1048 -13 1018 -18 985 -18 C 925 -18 876 -4 840 23 C 803 50 776 89 760 139 L 754 139 C 712 87 668 48 622 21 C 576 -6 521 -20 459 -20 C 398 -20 347 -7 305 17 C 263 42 229 79 201 127 L 197 127 L 197 4 C 197 -28 201 -60 211 -92 C 221 -123 231 -153 243 -183 C 254 -213 264 -242 274 -270 C 284 -298 289 -325 289 -352 C 289 -370 286 -386 281 -400 C 275 -414 268 -425 260 -435 C 252 -444 242 -451 231 -456 C 220 -460 209 -463 197 -463 Z" unicode="µ" />
<glyph horiz-adv-x="1264" d="M 643 659 L 582 659 C 490 659 415 670 356 693 C 296 715 249 744 214 780 C 179 815 155 854 141 897 C 127 939 121 981 121 1022 C 121 1060 127 1101 140 1145 C 153 1189 175 1229 206 1267 C 237 1305 279 1336 331 1361 C 383 1386 448 1399 526 1399 L 1221 1399 L 1221 1366 L 930 1366 L 930 -256 L 889 -256 L 889 1366 L 684 1366 L 684 -256 L 643 -256 L 643 659 Z" unicode="¶" />
<glyph horiz-adv-x="530" d="M 422 559 C 422 537 417 516 409 497 C 401 478 389 462 375 448 C 361 434 344 423 325 415 C 305 407 285 403 264 403 C 242 403 222 407 203 415 C 183 423 166 434 152 448 C 138 462 126 478 118 497 C 110 516 106 537 106 559 C 106 581 110 601 118 621 C 126 640 138 657 152 671 C 166 685 183 696 203 704 C 222 712 242 717 264 717 C 285 717 305 712 325 704 C 344 696 361 685 375 671 C 389 657 401 640 409 621 C 417 601 422 581 422 559 Z" unicode="·" />
<glyph horiz-adv-x="1024" d="M 727 -272 C 727 -316 715 -352 692 -379 C 668 -406 637 -427 597 -441 C 557 -455 510 -465 457 -470 C 403 -474 347 -477 287 -477 L 287 -449 C 319 -449 351 -447 384 -445 C 417 -443 447 -437 473 -428 C 499 -419 521 -406 538 -388 C 554 -370 563 -347 563 -317 C 563 -300 559 -286 551 -276 C 543 -265 533 -257 519 -251 C 505 -245 490 -241 472 -239 C 454 -237 436 -236 416 -236 L 416 0 L 442 0 L 442 -104 C 482 -103 519 -105 554 -110 C 588 -115 618 -124 644 -137 C 670 -150 690 -167 705 -189 C 719 -211 727 -238 727 -272 Z" unicode="¸" />
<glyph horiz-adv-x="707" d="M 90 709 C 98 709 108 710 122 711 C 135 712 149 713 164 714 C 178 715 192 716 205 718 C 217 720 227 721 233 723 C 247 727 259 734 269 746 C 278 758 283 772 283 788 L 283 1438 C 274 1436 265 1434 255 1433 C 245 1432 233 1432 219 1432 C 192 1432 163 1437 131 1448 C 99 1458 67 1475 37 1499 L 41 1507 C 61 1499 86 1492 116 1485 C 146 1478 175 1475 205 1475 C 231 1475 257 1476 283 1480 C 309 1484 333 1489 356 1495 C 379 1501 400 1507 419 1514 C 437 1521 453 1528 465 1534 L 477 1534 C 469 1504 464 1471 462 1435 C 460 1399 459 1363 459 1325 L 459 793 C 459 778 463 765 471 754 C 479 743 491 735 506 729 C 512 727 521 725 534 723 C 546 721 560 719 574 717 C 588 715 602 713 615 712 C 628 710 638 709 645 709 L 645 694 L 90 694 L 90 709 Z" unicode="¹" />
<glyph horiz-adv-x="752" d="M 371 674 C 333 674 297 680 262 693 C 226 706 195 725 168 750 C 140 775 118 806 101 844 C 84 881 76 924 76 973 C 76 1018 83 1059 99 1096 C 115 1132 136 1163 164 1189 C 191 1215 223 1235 260 1249 C 296 1263 335 1270 377 1270 C 419 1270 459 1263 496 1249 C 532 1235 564 1215 591 1190 C 617 1164 638 1134 653 1098 C 668 1062 676 1021 676 977 C 676 933 668 892 654 855 C 639 818 618 786 592 759 C 565 732 533 711 495 696 C 457 681 416 674 371 674 Z M 377 692 C 403 692 424 700 441 717 C 458 733 471 755 481 782 C 491 809 498 840 502 874 C 506 908 508 942 508 977 C 508 1009 506 1041 502 1074 C 498 1106 491 1136 481 1162 C 471 1188 458 1210 441 1226 C 424 1242 403 1251 377 1251 C 349 1251 327 1242 310 1225 C 292 1207 279 1185 269 1159 C 259 1132 253 1103 249 1071 C 245 1039 244 1008 244 979 C 244 945 245 910 249 876 C 253 842 260 811 270 784 C 280 756 293 734 311 717 C 328 700 350 692 377 692 Z M 102 539 L 649 539 L 649 487 L 102 487 L 102 539 Z" unicode="º" />
<glyph horiz-adv-x="1143" d="M 111 45 L 401 455 L 111 870 L 121 879 C 142 862 166 843 193 823 C 219 803 247 782 276 761 C 304 739 333 718 363 697 C 392 675 420 655 446 636 C 472 616 496 599 518 583 C 539 567 557 553 571 543 C 579 536 586 530 592 525 C 598 519 602 514 606 508 C 610 502 612 495 614 487 C 615 479 616 470 616 459 C 616 447 615 437 614 429 C 612 421 610 413 606 407 C 602 401 597 395 591 389 C 585 383 577 377 567 371 C 543 353 513 331 476 304 C 439 276 400 247 358 216 C 316 184 275 153 233 121 C 191 89 154 61 121 37 L 111 45 Z M 551 45 L 840 455 L 551 870 L 557 879 C 578 862 602 843 629 823 C 656 803 684 782 713 761 C 741 739 770 718 800 697 C 829 675 857 655 883 636 C 909 616 934 599 956 583 C 978 567 996 553 1010 543 C 1018 536 1025 530 1031 525 C 1037 519 1041 514 1045 508 C 1048 502 1050 495 1052 487 C 1054 479 1055 470 1055 459 C 1055 447 1054 437 1052 429 C 1050 421 1048 413 1044 407 C 1040 401 1034 395 1028 389 C 1022 383 1014 377 1006 371 C 982 353 951 331 914 304 C 877 276 838 247 796 216 C 754 184 713 153 671 121 C 629 89 591 61 557 37 L 551 45 Z" unicode="»" />
<glyph horiz-adv-x="1159" d="M 459 -453 C 465 -452 473 -451 483 -451 C 492 -450 502 -449 512 -448 C 522 -446 531 -445 540 -444 C 548 -442 555 -441 561 -440 C 574 -436 584 -428 592 -417 C 600 -406 604 -393 604 -379 L 604 -195 L 170 -195 L 170 -143 L 694 377 L 770 377 L 770 -129 C 812 -129 847 -128 877 -127 C 906 -126 928 -121 944 -111 C 950 -106 955 -100 961 -92 C 966 -84 970 -75 974 -66 C 977 -56 980 -47 982 -37 C 984 -27 985 -18 985 -10 L 997 -10 L 997 -319 L 985 -319 C 983 -299 979 -279 973 -258 C 967 -236 956 -220 942 -209 C 930 -199 909 -195 880 -195 C 850 -195 814 -195 770 -195 L 770 -371 C 770 -385 773 -397 779 -409 C 785 -420 796 -428 811 -434 C 815 -436 822 -438 831 -440 C 839 -442 849 -443 859 -445 C 869 -447 878 -448 888 -450 C 897 -451 905 -452 913 -453 L 913 -465 L 459 -465 L 459 -453 Z M 84 559 L 1073 559 L 1073 500 L 84 500 L 84 559 Z M 604 -129 L 604 254 L 219 -129 L 604 -129 Z M 313 709 C 321 709 331 710 345 711 C 358 712 372 713 387 714 C 401 715 415 716 428 718 C 441 720 451 721 457 723 C 471 727 482 734 492 746 C 501 758 506 772 506 788 L 506 1438 C 497 1436 488 1434 478 1433 C 468 1432 456 1432 442 1432 C 415 1432 386 1437 354 1448 C 322 1458 291 1475 260 1499 L 264 1507 C 284 1499 310 1492 340 1485 C 370 1478 399 1475 428 1475 C 454 1475 481 1476 507 1480 C 533 1484 557 1489 580 1495 C 602 1501 623 1507 642 1514 C 660 1521 676 1528 688 1534 L 700 1534 C 692 1504 687 1471 685 1435 C 683 1399 682 1363 682 1325 L 682 793 C 682 778 686 765 694 754 C 702 743 714 735 729 729 C 735 727 744 725 757 723 C 770 721 784 719 798 717 C 812 715 825 713 838 712 C 851 710 861 709 868 709 L 868 694 L 313 694 L 313 709 Z" unicode="¼" />
<glyph horiz-adv-x="1159" d="M 238 -412 C 282 -384 323 -358 360 -334 C 397 -310 431 -287 462 -265 C 493 -243 522 -222 548 -202 C 574 -181 599 -159 623 -137 C 651 -109 675 -83 694 -58 C 712 -32 727 -7 739 18 C 750 43 758 69 763 95 C 767 121 770 150 770 180 C 770 205 766 228 759 250 C 751 271 741 289 727 305 C 713 320 697 332 677 341 C 657 349 635 354 610 354 C 573 354 539 346 509 331 C 479 315 453 296 431 272 C 409 248 392 223 380 195 C 368 167 362 140 362 115 C 362 101 363 88 367 76 C 370 64 375 53 383 43 C 391 33 401 25 415 19 C 428 13 445 10 465 10 C 485 10 504 14 522 22 C 539 30 555 39 569 51 C 583 63 596 75 607 89 C 617 102 626 114 633 125 L 645 117 C 635 99 622 79 607 59 C 591 38 573 19 551 1 C 529 -17 505 -31 477 -43 C 449 -55 418 -61 383 -61 C 333 -61 296 -48 270 -23 C 244 2 231 36 231 80 C 231 112 240 145 260 179 C 280 213 307 245 342 274 C 377 302 419 326 468 345 C 516 363 570 373 629 373 C 678 373 723 367 763 356 C 803 344 837 328 865 308 C 893 287 915 263 931 235 C 946 207 954 176 954 143 C 954 98 945 58 927 23 C 909 -12 881 -45 845 -77 C 808 -108 762 -138 706 -168 C 650 -198 584 -229 508 -262 C 504 -264 497 -268 487 -274 C 477 -280 466 -286 455 -294 C 443 -301 432 -308 422 -315 C 412 -322 405 -328 401 -332 L 838 -332 C 856 -332 872 -327 886 -319 C 900 -311 914 -300 927 -286 C 939 -272 951 -256 963 -238 C 975 -220 987 -201 999 -182 L 1010 -188 L 885 -465 L 238 -465 L 238 -412 Z M 84 559 L 1073 559 L 1073 500 L 84 500 L 84 559 Z M 313 709 C 321 709 331 710 345 711 C 358 712 372 713 387 714 C 401 715 415 716 428 718 C 441 720 451 721 457 723 C 471 727 482 734 492 746 C 501 758 506 772 506 788 L 506 1438 C 497 1436 488 1434 478 1433 C 468 1432 456 1432 442 1432 C 415 1432 386 1437 354 1448 C 322 1458 291 1475 260 1499 L 264 1507 C 284 1499 310 1492 340 1485 C 370 1478 399 1475 428 1475 C 454 1475 481 1476 507 1480 C 533 1484 557 1489 580 1495 C 602 1501 623 1507 642 1514 C 660 1521 676 1528 688 1534 L 700 1534 C 692 1504 687 1471 685 1435 C 683 1399 682 1363 682 1325 L 682 793 C 682 778 686 765 694 754 C 702 743 714 735 729 729 C 735 727 744 725 757 723 C 770 721 784 719 798 717 C 812 715 825 713 838 712 C 851 710 861 709 868 709 L 868 694 L 313 694 L 313 709 Z" unicode="½" />
<glyph horiz-adv-x="1159" d="M 485 680 C 450 680 415 683 380 691 C 344 699 312 710 284 726 C 256 741 233 761 215 785 C 197 809 188 837 188 870 C 188 888 191 906 198 922 C 205 938 214 951 226 963 C 238 974 251 983 266 989 C 281 995 297 999 313 999 C 340 999 361 991 376 977 C 391 963 399 943 399 918 C 399 899 394 885 384 875 C 374 865 364 856 352 849 C 340 842 329 835 319 829 C 309 823 305 814 305 803 C 305 790 308 777 316 765 C 324 752 335 740 350 730 C 365 720 384 711 406 705 C 428 699 453 696 481 696 C 517 696 552 704 586 720 C 619 736 648 758 673 784 C 697 810 717 841 732 875 C 746 909 754 943 754 979 C 754 999 752 1020 748 1040 C 744 1060 737 1077 727 1092 C 717 1107 705 1119 690 1129 C 675 1138 657 1143 635 1143 C 622 1143 609 1139 595 1133 C 581 1127 567 1119 553 1109 C 539 1099 525 1088 512 1076 C 498 1064 486 1054 475 1044 L 453 1079 C 493 1099 531 1119 567 1139 C 603 1158 634 1178 660 1200 C 686 1222 707 1246 722 1272 C 737 1298 745 1328 745 1362 C 745 1404 733 1439 709 1467 C 685 1495 652 1509 608 1509 C 588 1509 567 1504 544 1495 C 520 1486 499 1474 479 1458 C 459 1442 442 1423 428 1401 C 414 1379 408 1355 408 1329 C 408 1305 413 1285 425 1269 C 437 1253 457 1245 485 1245 C 499 1245 512 1247 524 1251 C 536 1255 546 1259 556 1265 C 565 1271 573 1277 581 1283 C 588 1289 594 1295 600 1300 L 606 1292 C 596 1280 585 1267 571 1255 C 557 1243 542 1231 526 1221 C 509 1211 491 1202 472 1196 C 452 1189 432 1186 412 1186 C 361 1186 324 1196 301 1216 C 277 1236 266 1264 266 1298 C 266 1326 276 1354 297 1382 C 318 1410 346 1434 382 1456 C 417 1477 458 1494 504 1508 C 550 1521 599 1528 651 1528 C 701 1528 743 1522 778 1512 C 813 1502 841 1488 863 1472 C 884 1456 899 1437 909 1416 C 919 1395 924 1374 924 1354 C 924 1334 918 1315 907 1296 C 896 1277 879 1259 856 1242 C 833 1224 804 1209 768 1195 C 732 1181 690 1169 641 1161 C 681 1162 719 1160 755 1155 C 791 1149 822 1139 850 1125 C 878 1111 900 1092 916 1068 C 932 1044 940 1014 940 979 C 940 934 928 893 904 857 C 880 820 847 788 806 762 C 764 736 716 715 661 701 C 606 687 547 680 485 680 Z M 459 -453 C 465 -452 473 -451 483 -451 C 492 -450 502 -449 512 -448 C 522 -446 531 -445 540 -444 C 548 -442 555 -441 561 -440 C 574 -436 584 -428 592 -417 C 600 -406 604 -393 604 -379 L 604 -195 L 170 -195 L 170 -143 L 694 377 L 770 377 L 770 -129 C 812 -129 847 -128 877 -127 C 906 -126 928 -121 944 -111 C 950 -106 955 -100 961 -92 C 966 -84 970 -75 974 -66 C 977 -56 980 -47 982 -37 C 984 -27 985 -18 985 -10 L 997 -10 L 997 -319 L 985 -319 C 983 -299 979 -279 973 -258 C 967 -236 956 -220 942 -209 C 930 -199 909 -195 880 -195 C 850 -195 814 -195 770 -195 L 770 -371 C 770 -385 773 -397 779 -409 C 785 -420 796 -428 811 -434 C 815 -436 822 -438 831 -440 C 839 -442 849 -443 859 -445 C 869 -447 878 -448 888 -450 C 897 -451 905 -452 913 -453 L 913 -465 L 459 -465 L 459 -453 Z M 84 559 L 1073 559 L 1073 500 L 84 500 L 84 559 Z M 604 -129 L 604 254 L 219 -129 L 604 -129 Z" unicode="¾" />
<glyph horiz-adv-x="1008" d="M 123 0 L 123 0 Z M 123 381 C 123 443 134 500 157 552 C 180 604 213 650 256 689 C 299 728 351 760 412 784 C 473 808 542 822 618 827 L 630 1012 L 653 1012 L 655 631 C 608 625 566 615 528 602 C 490 588 459 569 433 545 C 407 521 387 490 373 454 C 359 417 352 373 352 322 C 352 214 371 133 410 79 C 449 25 504 -1 575 -1 C 606 -1 636 3 665 15 C 693 26 714 39 727 55 C 723 65 718 75 713 86 C 708 97 703 109 699 122 C 694 135 690 149 687 165 C 683 181 682 198 682 217 C 682 238 686 257 694 274 C 702 291 712 305 725 317 C 737 328 752 337 768 343 C 784 349 800 352 817 352 C 839 352 859 348 875 341 C 891 333 905 323 916 311 C 926 299 934 284 940 267 C 945 249 948 231 948 211 C 948 181 938 151 920 123 C 901 95 875 70 842 48 C 808 26 768 8 721 -4 C 674 -18 623 -24 567 -24 C 497 -24 434 -15 379 4 C 324 24 278 51 240 87 C 202 123 173 165 153 215 C 133 265 123 320 123 381 Z M 477 1278 C 477 1299 481 1319 489 1338 C 497 1356 508 1373 522 1387 C 536 1401 552 1411 571 1419 C 590 1427 610 1431 632 1431 C 654 1431 674 1427 693 1419 C 712 1411 729 1401 743 1387 C 757 1373 768 1356 776 1338 C 784 1319 788 1299 788 1278 C 788 1256 784 1236 776 1217 C 768 1198 757 1182 743 1168 C 729 1154 712 1142 693 1134 C 674 1126 654 1122 632 1122 C 610 1122 590 1126 571 1134 C 552 1142 536 1154 522 1168 C 508 1182 497 1198 489 1217 C 481 1236 477 1256 477 1278 Z" unicode="¿" />
<glyph horiz-adv-x="1395" d="M 0 0 L 0 0 Z M 1454 0 L 758 0 L 758 14 C 776 14 797 16 821 19 C 845 21 868 25 890 31 C 912 36 932 43 948 52 C 964 60 973 71 975 84 C 976 92 976 100 974 110 C 972 119 970 127 967 133 L 825 508 L 340 508 C 333 490 324 468 314 441 C 303 413 292 385 282 357 C 271 328 261 301 252 277 C 243 252 237 234 233 223 C 225 198 219 174 213 152 C 207 129 205 111 205 98 C 205 80 214 65 233 55 C 252 44 275 36 302 30 C 328 24 356 20 384 18 C 412 16 435 14 453 14 L 453 0 L -59 0 L -59 14 C -41 15 -21 18 1 22 C 23 26 43 33 61 45 C 86 60 108 82 127 110 C 145 138 162 171 178 207 C 196 251 219 304 245 368 C 271 431 300 499 330 573 C 360 647 392 723 424 802 C 456 881 488 958 519 1034 C 550 1109 579 1180 606 1247 C 633 1313 656 1371 676 1421 L 748 1421 C 774 1354 804 1280 836 1198 C 868 1116 902 1031 936 945 C 970 858 1004 772 1038 687 C 1071 601 1102 522 1131 450 C 1159 378 1184 314 1206 260 C 1227 206 1243 167 1253 143 C 1261 122 1271 103 1282 86 C 1292 69 1310 54 1335 41 C 1352 31 1371 25 1393 21 C 1414 17 1434 15 1454 14 L 1454 0 Z M 811 541 L 586 1118 L 352 541 L 811 541 Z M 862 1484 C 824 1512 789 1536 758 1558 C 726 1580 698 1599 673 1616 C 648 1632 625 1647 605 1660 C 585 1673 567 1685 551 1697 C 534 1708 519 1718 507 1728 C 495 1738 484 1748 476 1758 C 468 1768 461 1780 457 1792 C 453 1804 451 1817 451 1833 C 451 1844 453 1855 458 1866 C 462 1876 469 1886 478 1895 C 486 1903 497 1910 509 1915 C 521 1920 535 1923 551 1923 C 580 1923 605 1914 626 1897 C 647 1880 668 1854 690 1818 C 702 1798 714 1778 726 1756 C 738 1734 751 1711 765 1685 C 779 1659 795 1630 813 1599 C 830 1567 850 1533 872 1495 L 862 1484 Z" unicode="À" />
<glyph horiz-adv-x="1395" d="M 0 0 L 0 0 Z M 1454 0 L 758 0 L 758 14 C 776 14 797 16 821 19 C 845 21 868 25 890 31 C 912 36 932 43 948 52 C 964 60 973 71 975 84 C 976 92 976 100 974 110 C 972 119 970 127 967 133 L 825 508 L 340 508 C 333 490 324 468 314 441 C 303 413 292 385 282 357 C 271 328 261 301 252 277 C 243 252 237 234 233 223 C 225 198 219 174 213 152 C 207 129 205 111 205 98 C 205 80 214 65 233 55 C 252 44 275 36 302 30 C 328 24 356 20 384 18 C 412 16 435 14 453 14 L 453 0 L -59 0 L -59 14 C -41 15 -21 18 1 22 C 23 26 43 33 61 45 C 86 60 108 82 127 110 C 145 138 162 171 178 207 C 196 251 219 304 245 368 C 271 431 300 499 330 573 C 360 647 392 723 424 802 C 456 881 488 958 519 1034 C 550 1109 579 1180 606 1247 C 633 1313 656 1371 676 1421 L 748 1421 C 774 1354 804 1280 836 1198 C 868 1116 902 1031 936 945 C 970 858 1004 772 1038 687 C 1071 601 1102 522 1131 450 C 1159 378 1184 314 1206 260 C 1227 206 1243 167 1253 143 C 1261 122 1271 103 1282 86 C 1292 69 1310 54 1335 41 C 1352 31 1371 25 1393 21 C 1414 17 1434 15 1454 14 L 1454 0 Z M 811 541 L 586 1118 L 352 541 L 811 541 Z M 929 1833 C 929 1817 926 1804 922 1792 C 918 1780 911 1768 903 1758 C 895 1748 884 1738 871 1728 C 858 1718 843 1708 827 1697 C 811 1685 793 1673 773 1660 C 753 1647 731 1632 706 1616 C 681 1599 653 1580 622 1558 C 590 1536 556 1512 518 1484 L 508 1497 C 530 1536 550 1571 568 1603 C 585 1634 601 1662 615 1688 C 629 1713 642 1736 654 1757 C 666 1778 678 1798 690 1818 C 710 1853 731 1879 752 1897 C 773 1914 799 1923 829 1923 C 844 1923 858 1920 870 1915 C 882 1910 893 1903 902 1895 C 910 1886 917 1876 922 1866 C 926 1855 929 1844 929 1833 Z" unicode="Á" />
<glyph horiz-adv-x="1395" d="M 0 0 L 0 0 Z M 1454 0 L 758 0 L 758 14 C 776 14 797 16 821 19 C 845 21 868 25 890 31 C 912 36 932 43 948 52 C 964 60 973 71 975 84 C 976 92 976 100 974 110 C 972 119 970 127 967 133 L 825 508 L 340 508 C 333 490 324 468 314 441 C 303 413 292 385 282 357 C 271 328 261 301 252 277 C 243 252 237 234 233 223 C 225 198 219 174 213 152 C 207 129 205 111 205 98 C 205 80 214 65 233 55 C 252 44 275 36 302 30 C 328 24 356 20 384 18 C 412 16 435 14 453 14 L 453 0 L -59 0 L -59 14 C -41 15 -21 18 1 22 C 23 26 43 33 61 45 C 86 60 108 82 127 110 C 145 138 162 171 178 207 C 196 251 219 304 245 368 C 271 431 300 499 330 573 C 360 647 392 723 424 802 C 456 881 488 958 519 1034 C 550 1109 579 1180 606 1247 C 633 1313 656 1371 676 1421 L 748 1421 C 774 1354 804 1280 836 1198 C 868 1116 902 1031 936 945 C 970 858 1004 772 1038 687 C 1071 601 1102 522 1131 450 C 1159 378 1184 314 1206 260 C 1227 206 1243 167 1253 143 C 1261 122 1271 103 1282 86 C 1292 69 1310 54 1335 41 C 1352 31 1371 25 1393 21 C 1414 17 1434 15 1454 14 L 1454 0 Z M 811 541 L 586 1118 L 352 541 L 811 541 Z M 1009 1503 L 696 1753 L 385 1503 L 368 1517 C 418 1593 462 1662 501 1724 C 539 1786 572 1836 598 1876 C 603 1884 608 1891 614 1897 C 619 1902 625 1906 633 1910 C 640 1913 649 1915 660 1917 C 670 1918 684 1919 700 1919 C 716 1919 729 1918 739 1917 C 749 1915 757 1913 764 1910 C 771 1906 777 1902 781 1897 C 785 1892 790 1886 796 1880 C 808 1862 822 1840 839 1815 C 855 1789 873 1761 893 1730 C 913 1698 934 1665 957 1629 C 979 1593 1003 1555 1028 1517 L 1009 1503 Z" unicode="Â" />
<glyph horiz-adv-x="1395" d="M 0 0 L 0 0 Z M 1454 0 L 758 0 L 758 14 C 776 14 797 16 821 19 C 845 21 868 25 890 31 C 912 36 932 43 948 52 C 964 60 973 71 975 84 C 976 92 976 100 974 110 C 972 119 970 127 967 133 L 825 508 L 340 508 C 333 490 324 468 314 441 C 303 413 292 385 282 357 C 271 328 261 301 252 277 C 243 252 237 234 233 223 C 225 198 219 174 213 152 C 207 129 205 111 205 98 C 205 80 214 65 233 55 C 252 44 275 36 302 30 C 328 24 356 20 384 18 C 412 16 435 14 453 14 L 453 0 L -59 0 L -59 14 C -41 15 -21 18 1 22 C 23 26 43 33 61 45 C 86 60 108 82 127 110 C 145 138 162 171 178 207 C 196 251 219 304 245 368 C 271 431 300 499 330 573 C 360 647 392 723 424 802 C 456 881 488 958 519 1034 C 550 1109 579 1180 606 1247 C 633 1313 656 1371 676 1421 L 748 1421 C 774 1354 804 1280 836 1198 C 868 1116 902 1031 936 945 C 970 858 1004 772 1038 687 C 1071 601 1102 522 1131 450 C 1159 378 1184 314 1206 260 C 1227 206 1243 167 1253 143 C 1261 122 1271 103 1282 86 C 1292 69 1310 54 1335 41 C 1352 31 1371 25 1393 21 C 1414 17 1434 15 1454 14 L 1454 0 Z M 811 541 L 586 1118 L 352 541 L 811 541 Z M 1108 1830 C 1100 1804 1089 1776 1074 1744 C 1058 1712 1039 1683 1016 1655 C 992 1627 965 1604 935 1586 C 905 1567 872 1558 836 1558 C 796 1558 762 1563 733 1575 C 704 1587 677 1599 652 1613 C 627 1627 603 1639 579 1651 C 555 1663 530 1669 502 1669 C 464 1669 432 1658 404 1638 C 376 1617 350 1584 326 1538 L 304 1546 C 312 1570 324 1598 340 1629 C 355 1660 374 1689 396 1717 C 418 1745 444 1768 473 1787 C 502 1806 534 1816 570 1816 C 608 1816 642 1810 672 1798 C 702 1786 730 1773 756 1759 C 782 1745 808 1732 833 1720 C 857 1708 883 1703 910 1703 C 951 1703 986 1713 1014 1735 C 1042 1757 1066 1791 1086 1837 L 1108 1830 Z" unicode="Ã" />
<glyph horiz-adv-x="1395" d="M 0 0 L 0 0 Z M 1454 0 L 758 0 L 758 14 C 776 14 797 16 821 19 C 845 21 868 25 890 31 C 912 36 932 43 948 52 C 964 60 973 71 975 84 C 976 92 976 100 974 110 C 972 119 970 127 967 133 L 825 508 L 340 508 C 333 490 324 468 314 441 C 303 413 292 385 282 357 C 271 328 261 301 252 277 C 243 252 237 234 233 223 C 225 198 219 174 213 152 C 207 129 205 111 205 98 C 205 80 214 65 233 55 C 252 44 275 36 302 30 C 328 24 356 20 384 18 C 412 16 435 14 453 14 L 453 0 L -59 0 L -59 14 C -41 15 -21 18 1 22 C 23 26 43 33 61 45 C 86 60 108 82 127 110 C 145 138 162 171 178 207 C 196 251 219 304 245 368 C 271 431 300 499 330 573 C 360 647 392 723 424 802 C 456 881 488 958 519 1034 C 550 1109 579 1180 606 1247 C 633 1313 656 1371 676 1421 L 748 1421 C 774 1354 804 1280 836 1198 C 868 1116 902 1031 936 945 C 970 858 1004 772 1038 687 C 1071 601 1102 522 1131 450 C 1159 378 1184 314 1206 260 C 1227 206 1243 167 1253 143 C 1261 122 1271 103 1282 86 C 1292 69 1310 54 1335 41 C 1352 31 1371 25 1393 21 C 1414 17 1434 15 1454 14 L 1454 0 Z M 811 541 L 586 1118 L 352 541 L 811 541 Z M 1063 1704 C 1063 1684 1059 1666 1052 1650 C 1045 1633 1035 1618 1023 1606 C 1011 1593 996 1583 980 1576 C 964 1568 946 1565 928 1565 C 910 1565 892 1568 876 1575 C 860 1582 846 1592 834 1604 C 822 1616 812 1631 805 1647 C 798 1663 795 1681 795 1700 C 795 1718 798 1736 805 1753 C 812 1770 822 1785 834 1798 C 846 1810 860 1820 876 1828 C 892 1835 910 1839 928 1839 C 946 1839 964 1835 981 1828 C 997 1820 1012 1810 1024 1798 C 1036 1786 1045 1771 1052 1755 C 1059 1739 1063 1722 1063 1704 Z M 615 1704 C 615 1684 611 1666 604 1650 C 597 1633 587 1618 575 1606 C 563 1593 548 1583 532 1576 C 516 1568 498 1565 480 1565 C 462 1565 445 1568 429 1575 C 413 1582 398 1592 386 1604 C 374 1616 364 1631 357 1647 C 350 1663 347 1681 347 1700 C 347 1718 350 1736 357 1753 C 364 1770 374 1785 386 1798 C 398 1810 413 1820 429 1828 C 445 1835 462 1839 480 1839 C 498 1839 516 1835 532 1828 C 548 1820 563 1810 575 1798 C 587 1786 597 1771 604 1755 C 611 1739 615 1722 615 1704 Z" unicode="Ä" />
<glyph horiz-adv-x="1395" d="M 0 0 L 0 0 Z M 1454 0 L 758 0 L 758 14 C 776 14 797 16 821 19 C 845 21 868 25 890 31 C 912 36 932 43 948 52 C 964 60 973 71 975 84 C 976 92 976 100 974 110 C 972 119 970 127 967 133 L 825 508 L 340 508 C 333 490 324 468 314 441 C 303 413 292 385 282 357 C 271 328 261 301 252 277 C 243 252 237 234 233 223 C 225 198 219 174 213 152 C 207 129 205 111 205 98 C 205 80 214 65 233 55 C 252 44 275 36 302 30 C 328 24 356 20 384 18 C 412 16 435 14 453 14 L 453 0 L -59 0 L -59 14 C -41 15 -21 18 1 22 C 23 26 43 33 61 45 C 86 60 108 82 127 110 C 145 138 162 171 178 207 C 196 251 219 304 245 368 C 271 431 300 499 330 573 C 360 647 392 723 424 802 C 456 881 488 958 519 1034 C 550 1109 579 1180 606 1247 C 633 1313 656 1371 676 1421 L 748 1421 C 774 1354 804 1280 836 1198 C 868 1116 902 1031 936 945 C 970 858 1004 772 1038 687 C 1071 601 1102 522 1131 450 C 1159 378 1184 314 1206 260 C 1227 206 1243 167 1253 143 C 1261 122 1271 103 1282 86 C 1292 69 1310 54 1335 41 C 1352 31 1371 25 1393 21 C 1414 17 1434 15 1454 14 L 1454 0 Z M 811 541 L 586 1118 L 352 541 L 811 541 Z M 953 1693 C 953 1663 947 1635 935 1609 C 923 1583 907 1561 886 1543 C 864 1524 838 1509 808 1499 C 778 1489 744 1484 707 1484 C 669 1484 635 1489 605 1499 C 575 1509 549 1523 528 1541 C 506 1559 490 1581 478 1607 C 466 1633 461 1661 461 1693 C 461 1724 467 1752 480 1778 C 493 1804 511 1826 533 1844 C 555 1862 581 1877 611 1887 C 641 1897 673 1902 707 1902 C 742 1902 775 1897 805 1887 C 835 1877 861 1863 883 1845 C 905 1827 922 1805 934 1779 C 946 1753 953 1725 953 1693 Z M 828 1693 C 828 1715 825 1737 821 1759 C 817 1781 810 1801 801 1819 C 791 1837 779 1851 764 1863 C 748 1874 729 1880 707 1880 C 685 1880 666 1874 651 1864 C 635 1853 623 1839 613 1821 C 603 1803 596 1783 592 1761 C 588 1739 586 1716 586 1693 C 586 1671 588 1649 592 1627 C 596 1605 602 1585 612 1568 C 622 1550 634 1536 650 1525 C 665 1514 684 1509 707 1509 C 729 1509 748 1514 764 1525 C 779 1535 791 1549 801 1567 C 810 1584 817 1604 821 1626 C 825 1648 828 1670 828 1693 Z" unicode="Å" />
<glyph horiz-adv-x="2025" d="M -61 14 C -51 14 -40 16 -28 18 C -16 20 -3 22 9 26 C 21 29 34 33 46 38 C 58 42 70 47 80 53 C 94 60 108 71 123 85 C 138 99 153 116 168 135 C 182 154 197 175 211 197 C 225 219 240 242 254 266 C 260 275 272 295 290 327 C 308 358 331 397 358 443 C 384 489 414 540 447 597 C 480 653 514 712 549 772 C 584 832 619 893 654 953 C 688 1013 721 1070 751 1123 C 781 1175 808 1222 832 1264 C 856 1306 874 1338 887 1362 C 877 1365 862 1368 843 1370 C 823 1372 803 1374 782 1376 C 761 1378 741 1379 723 1380 C 704 1380 690 1381 682 1382 L 682 1399 L 1890 1399 L 1890 1059 L 1870 1059 C 1865 1074 1858 1092 1848 1113 C 1838 1133 1827 1155 1813 1177 C 1799 1199 1784 1220 1768 1242 C 1752 1264 1735 1283 1718 1301 C 1701 1319 1684 1333 1666 1345 C 1648 1357 1632 1364 1616 1366 C 1591 1369 1561 1371 1525 1373 C 1489 1375 1454 1376 1421 1376 L 1223 1376 L 1223 737 L 1395 737 C 1423 737 1446 739 1466 743 C 1485 747 1501 752 1515 758 C 1528 764 1539 771 1548 779 C 1556 787 1564 794 1571 801 C 1579 809 1588 822 1598 840 C 1607 858 1616 877 1624 897 C 1632 917 1639 938 1645 958 C 1651 978 1655 994 1657 1008 L 1675 1008 L 1675 432 L 1657 432 C 1655 447 1651 465 1645 487 C 1638 509 1630 530 1622 552 C 1613 573 1604 592 1595 610 C 1585 628 1577 641 1571 649 C 1563 657 1555 664 1546 672 C 1537 680 1526 687 1512 693 C 1498 699 1482 703 1463 707 C 1444 711 1421 713 1395 713 L 1223 713 L 1223 205 C 1223 165 1225 133 1231 109 C 1236 85 1247 67 1264 55 C 1280 42 1304 34 1334 30 C 1364 26 1404 25 1454 25 C 1486 25 1518 25 1550 25 C 1582 25 1613 27 1641 30 C 1669 32 1695 37 1717 44 C 1739 50 1757 60 1769 72 C 1787 90 1806 114 1828 146 C 1849 177 1870 209 1890 243 C 1910 276 1927 308 1943 338 C 1959 368 1970 392 1978 410 L 1997 410 L 1970 0 L 733 0 L 733 14 C 745 14 758 15 773 17 C 787 18 802 20 816 22 C 830 24 844 26 856 28 C 868 30 877 33 885 35 C 909 44 926 56 935 72 C 943 88 948 108 948 133 L 948 582 L 477 582 L 285 240 C 268 208 257 183 253 164 C 248 145 246 128 246 113 C 246 95 253 81 269 69 C 285 57 304 47 328 39 C 352 31 377 26 405 22 C 433 18 459 16 483 16 L 483 0 L -61 0 L -61 14 Z M 948 614 L 948 1360 L 922 1360 C 918 1354 909 1338 895 1313 C 880 1288 862 1256 840 1218 C 818 1180 793 1136 765 1088 C 737 1039 707 988 677 935 C 647 881 616 827 585 772 C 553 717 524 664 496 614 L 948 614 Z" unicode="Æ" />
<glyph horiz-adv-x="1337" d="M 541 -455 C 573 -455 605 -453 638 -451 C 670 -449 700 -443 726 -434 C 752 -425 774 -412 791 -395 C 808 -377 817 -354 817 -324 C 817 -306 813 -292 805 -282 C 797 -271 786 -263 773 -257 C 759 -251 744 -247 726 -245 C 708 -243 688 -242 668 -242 L 668 -27 C 579 -19 497 3 423 40 C 349 76 285 125 231 186 C 177 247 136 319 106 403 C 76 486 61 579 61 682 C 61 790 79 889 115 981 C 151 1072 202 1151 267 1218 C 331 1284 408 1336 497 1374 C 585 1411 682 1430 786 1430 C 827 1430 866 1426 904 1420 C 942 1414 977 1406 1009 1396 C 1041 1386 1071 1374 1097 1362 C 1123 1349 1146 1336 1165 1323 L 1233 1419 L 1253 1419 L 1262 905 L 1241 905 C 1218 977 1191 1043 1160 1104 C 1128 1164 1093 1217 1053 1261 C 1013 1305 968 1339 920 1364 C 871 1388 818 1401 762 1401 C 698 1401 642 1385 593 1353 C 544 1321 503 1276 470 1216 C 436 1156 411 1084 394 998 C 377 912 369 816 369 709 C 369 609 378 519 397 437 C 416 355 444 286 482 228 C 520 170 566 125 622 93 C 678 61 743 45 817 45 C 875 45 928 53 976 69 C 1024 85 1067 108 1106 138 C 1144 167 1179 202 1209 242 C 1239 282 1266 325 1290 373 L 1317 360 C 1295 309 1267 260 1234 213 C 1200 166 1160 124 1114 88 C 1068 52 1014 23 954 1 C 894 -20 826 -31 750 -31 C 740 -31 731 -30 722 -30 C 713 -29 704 -29 696 -29 L 696 -111 C 735 -110 772 -112 807 -117 C 841 -122 871 -131 897 -143 C 923 -155 943 -172 958 -194 C 973 -216 981 -243 981 -276 C 981 -320 969 -356 946 -383 C 922 -410 891 -431 851 -445 C 811 -459 764 -469 711 -474 C 657 -478 601 -481 541 -481 L 541 -455 Z" unicode="Ç" />
<glyph horiz-adv-x="1354" d="M 59 0 L 59 0 Z M 59 0 L 59 14 C 71 14 84 15 99 17 C 113 18 128 20 142 22 C 156 24 170 27 183 29 C 195 31 205 34 213 37 C 237 45 254 57 263 74 C 271 90 276 110 276 133 L 276 1255 C 276 1277 271 1298 263 1316 C 255 1334 238 1348 213 1358 C 203 1361 192 1364 179 1367 C 166 1370 153 1373 139 1375 C 125 1377 111 1379 97 1381 C 83 1382 70 1383 59 1384 L 59 1399 L 1217 1399 L 1217 1059 L 1196 1059 C 1191 1074 1184 1092 1174 1113 C 1164 1133 1153 1155 1139 1177 C 1125 1199 1110 1220 1094 1242 C 1078 1264 1061 1283 1044 1301 C 1027 1319 1010 1333 992 1345 C 974 1357 958 1364 942 1366 C 930 1367 916 1368 900 1370 C 884 1371 868 1372 851 1373 C 834 1374 817 1375 800 1375 C 782 1375 766 1376 750 1376 L 549 1376 L 549 737 L 721 737 C 749 737 773 739 793 743 C 813 747 829 752 843 758 C 856 764 867 771 875 779 C 883 787 891 794 897 801 C 906 809 915 822 925 840 C 934 858 943 877 951 897 C 959 917 965 938 971 958 C 977 978 981 994 983 1008 L 1004 1008 L 1004 432 L 983 432 C 981 447 977 465 971 487 C 964 509 956 530 948 552 C 940 573 931 592 922 610 C 912 628 904 641 897 649 C 890 657 882 664 873 672 C 864 680 853 687 840 693 C 826 699 810 703 791 707 C 771 711 748 713 721 713 L 549 713 L 549 205 C 549 165 551 133 557 109 C 563 85 574 67 591 55 C 607 42 631 34 661 30 C 691 26 730 25 780 25 C 812 25 844 25 876 25 C 908 25 939 27 968 30 C 996 32 1022 37 1044 44 C 1066 50 1084 60 1096 72 C 1108 84 1120 99 1134 117 C 1148 135 1161 155 1175 177 C 1189 198 1202 220 1216 243 C 1230 265 1242 287 1254 308 C 1266 329 1276 348 1285 366 C 1294 384 1301 398 1307 410 L 1325 410 L 1298 0 L 59 0 Z M 872 1484 C 834 1512 799 1536 768 1558 C 736 1580 708 1599 683 1616 C 658 1632 635 1647 615 1660 C 595 1673 577 1685 561 1697 C 544 1708 529 1718 517 1728 C 505 1738 494 1748 486 1758 C 478 1768 471 1780 467 1792 C 463 1804 461 1817 461 1833 C 461 1844 463 1855 468 1866 C 472 1876 479 1886 488 1895 C 496 1903 507 1910 519 1915 C 531 1920 545 1923 561 1923 C 590 1923 615 1914 636 1897 C 657 1880 678 1854 700 1818 C 712 1798 724 1778 736 1756 C 748 1734 761 1711 775 1685 C 789 1659 805 1630 823 1599 C 840 1567 860 1533 882 1495 L 872 1484 Z" unicode="È" />
<glyph horiz-adv-x="1354" d="M 59 0 L 59 0 Z M 1024 1833 C 1024 1817 1021 1804 1017 1792 C 1013 1780 1006 1768 998 1758 C 990 1748 979 1738 966 1728 C 953 1718 938 1708 922 1697 C 906 1685 888 1673 868 1660 C 848 1647 826 1632 801 1616 C 776 1599 748 1580 717 1558 C 685 1536 651 1512 613 1484 L 603 1497 C 625 1536 645 1571 663 1603 C 680 1634 696 1662 710 1688 C 724 1713 737 1736 749 1757 C 761 1778 773 1798 785 1818 C 805 1853 826 1879 847 1897 C 868 1914 894 1923 924 1923 C 939 1923 953 1920 965 1915 C 977 1910 988 1903 997 1895 C 1005 1886 1012 1876 1017 1866 C 1021 1855 1024 1844 1024 1833 Z M 59 0 L 59 14 C 71 14 84 15 99 17 C 113 18 128 20 142 22 C 156 24 170 27 183 29 C 195 31 205 34 213 37 C 237 45 254 57 263 74 C 271 90 276 110 276 133 L 276 1255 C 276 1277 271 1298 263 1316 C 255 1334 238 1348 213 1358 C 203 1361 192 1364 179 1367 C 166 1370 153 1373 139 1375 C 125 1377 111 1379 97 1381 C 83 1382 70 1383 59 1384 L 59 1399 L 1217 1399 L 1217 1059 L 1196 1059 C 1191 1074 1184 1092 1174 1113 C 1164 1133 1153 1155 1139 1177 C 1125 1199 1110 1220 1094 1242 C 1078 1264 1061 1283 1044 1301 C 1027 1319 1010 1333 992 1345 C 974 1357 958 1364 942 1366 C 930 1367 916 1368 900 1370 C 884 1371 868 1372 851 1373 C 834 1374 817 1375 800 1375 C 782 1375 766 1376 750 1376 L 549 1376 L 549 737 L 721 737 C 749 737 773 739 793 743 C 813 747 829 752 843 758 C 856 764 867 771 875 779 C 883 787 891 794 897 801 C 906 809 915 822 925 840 C 934 858 943 877 951 897 C 959 917 965 938 971 958 C 977 978 981 994 983 1008 L 1004 1008 L 1004 432 L 983 432 C 981 447 977 465 971 487 C 964 509 956 530 948 552 C 940 573 931 592 922 610 C 912 628 904 641 897 649 C 890 657 882 664 873 672 C 864 680 853 687 840 693 C 826 699 810 703 791 707 C 771 711 748 713 721 713 L 549 713 L 549 205 C 549 165 551 133 557 109 C 563 85 574 67 591 55 C 607 42 631 34 661 30 C 691 26 730 25 780 25 C 812 25 844 25 876 25 C 908 25 939 27 968 30 C 996 32 1022 37 1044 44 C 1066 50 1084 60 1096 72 C 1108 84 1120 99 1134 117 C 1148 135 1161 155 1175 177 C 1189 198 1202 220 1216 243 C 1230 265 1242 287 1254 308 C 1266 329 1276 348 1285 366 C 1294 384 1301 398 1307 410 L 1325 410 L 1298 0 L 59 0 Z" unicode="É" />
<glyph horiz-adv-x="1354" d="M 59 0 L 59 0 Z M 997 1503 L 684 1753 L 373 1503 L 356 1517 C 406 1593 450 1662 489 1724 C 527 1786 560 1836 586 1876 C 591 1884 596 1891 602 1897 C 607 1902 613 1906 621 1910 C 628 1913 637 1915 648 1917 C 658 1918 672 1919 688 1919 C 704 1919 717 1918 727 1917 C 737 1915 745 1913 752 1910 C 759 1906 765 1902 769 1897 C 773 1892 778 1886 784 1880 C 796 1862 810 1840 827 1815 C 843 1789 861 1761 881 1730 C 901 1698 922 1665 945 1629 C 967 1593 991 1555 1016 1517 L 997 1503 Z M 59 0 L 59 14 C 71 14 84 15 99 17 C 113 18 128 20 142 22 C 156 24 170 27 183 29 C 195 31 205 34 213 37 C 237 45 254 57 263 74 C 271 90 276 110 276 133 L 276 1255 C 276 1277 271 1298 263 1316 C 255 1334 238 1348 213 1358 C 203 1361 192 1364 179 1367 C 166 1370 153 1373 139 1375 C 125 1377 111 1379 97 1381 C 83 1382 70 1383 59 1384 L 59 1399 L 1217 1399 L 1217 1059 L 1196 1059 C 1191 1074 1184 1092 1174 1113 C 1164 1133 1153 1155 1139 1177 C 1125 1199 1110 1220 1094 1242 C 1078 1264 1061 1283 1044 1301 C 1027 1319 1010 1333 992 1345 C 974 1357 958 1364 942 1366 C 930 1367 916 1368 900 1370 C 884 1371 868 1372 851 1373 C 834 1374 817 1375 800 1375 C 782 1375 766 1376 750 1376 L 549 1376 L 549 737 L 721 737 C 749 737 773 739 793 743 C 813 747 829 752 843 758 C 856 764 867 771 875 779 C 883 787 891 794 897 801 C 906 809 915 822 925 840 C 934 858 943 877 951 897 C 959 917 965 938 971 958 C 977 978 981 994 983 1008 L 1004 1008 L 1004 432 L 983 432 C 981 447 977 465 971 487 C 964 509 956 530 948 552 C 940 573 931 592 922 610 C 912 628 904 641 897 649 C 890 657 882 664 873 672 C 864 680 853 687 840 693 C 826 699 810 703 791 707 C 771 711 748 713 721 713 L 549 713 L 549 205 C 549 165 551 133 557 109 C 563 85 574 67 591 55 C 607 42 631 34 661 30 C 691 26 730 25 780 25 C 812 25 844 25 876 25 C 908 25 939 27 968 30 C 996 32 1022 37 1044 44 C 1066 50 1084 60 1096 72 C 1108 84 1120 99 1134 117 C 1148 135 1161 155 1175 177 C 1189 198 1202 220 1216 243 C 1230 265 1242 287 1254 308 C 1266 329 1276 348 1285 366 C 1294 384 1301 398 1307 410 L 1325 410 L 1298 0 L 59 0 Z" unicode="Ê" />
<glyph horiz-adv-x="1354" d="M 59 0 L 59 0 Z M 1040 1704 C 1040 1684 1036 1666 1029 1650 C 1022 1633 1012 1618 1000 1606 C 988 1593 973 1583 957 1576 C 941 1568 923 1565 905 1565 C 887 1565 869 1568 853 1575 C 837 1582 823 1592 811 1604 C 799 1616 789 1631 782 1647 C 775 1663 772 1681 772 1700 C 772 1718 775 1736 782 1753 C 789 1770 799 1785 811 1798 C 823 1810 837 1820 853 1828 C 869 1835 887 1839 905 1839 C 923 1839 941 1835 958 1828 C 974 1820 989 1810 1001 1798 C 1013 1786 1022 1771 1029 1755 C 1036 1739 1040 1722 1040 1704 Z M 592 1704 C 592 1684 588 1666 581 1650 C 574 1633 564 1618 552 1606 C 540 1593 525 1583 509 1576 C 493 1568 475 1565 457 1565 C 439 1565 422 1568 406 1575 C 390 1582 375 1592 363 1604 C 351 1616 341 1631 334 1647 C 327 1663 324 1681 324 1700 C 324 1718 327 1736 334 1753 C 341 1770 351 1785 363 1798 C 375 1810 390 1820 406 1828 C 422 1835 439 1839 457 1839 C 475 1839 493 1835 509 1828 C 525 1820 540 1810 552 1798 C 564 1786 574 1771 581 1755 C 588 1739 592 1722 592 1704 Z M 59 0 L 59 14 C 71 14 84 15 99 17 C 113 18 128 20 142 22 C 156 24 170 27 183 29 C 195 31 205 34 213 37 C 237 45 254 57 263 74 C 271 90 276 110 276 133 L 276 1255 C 276 1277 271 1298 263 1316 C 255 1334 238 1348 213 1358 C 203 1361 192 1364 179 1367 C 166 1370 153 1373 139 1375 C 125 1377 111 1379 97 1381 C 83 1382 70 1383 59 1384 L 59 1399 L 1217 1399 L 1217 1059 L 1196 1059 C 1191 1074 1184 1092 1174 1113 C 1164 1133 1153 1155 1139 1177 C 1125 1199 1110 1220 1094 1242 C 1078 1264 1061 1283 1044 1301 C 1027 1319 1010 1333 992 1345 C 974 1357 958 1364 942 1366 C 930 1367 916 1368 900 1370 C 884 1371 868 1372 851 1373 C 834 1374 817 1375 800 1375 C 782 1375 766 1376 750 1376 L 549 1376 L 549 737 L 721 737 C 749 737 773 739 793 743 C 813 747 829 752 843 758 C 856 764 867 771 875 779 C 883 787 891 794 897 801 C 906 809 915 822 925 840 C 934 858 943 877 951 897 C 959 917 965 938 971 958 C 977 978 981 994 983 1008 L 1004 1008 L 1004 432 L 983 432 C 981 447 977 465 971 487 C 964 509 956 530 948 552 C 940 573 931 592 922 610 C 912 628 904 641 897 649 C 890 657 882 664 873 672 C 864 680 853 687 840 693 C 826 699 810 703 791 707 C 771 711 748 713 721 713 L 549 713 L 549 205 C 549 165 551 133 557 109 C 563 85 574 67 591 55 C 607 42 631 34 661 30 C 691 26 730 25 780 25 C 812 25 844 25 876 25 C 908 25 939 27 968 30 C 996 32 1022 37 1044 44 C 1066 50 1084 60 1096 72 C 1108 84 1120 99 1134 117 C 1148 135 1161 155 1175 177 C 1189 198 1202 220 1216 243 C 1230 265 1242 287 1254 308 C 1266 329 1276 348 1285 366 C 1294 384 1301 398 1307 410 L 1325 410 L 1298 0 L 59 0 Z" unicode="Ë" />
<glyph horiz-adv-x="831" d="M 70 0 L 70 0 Z M 553 139 C 553 116 557 96 567 78 C 576 60 592 46 616 37 C 622 34 631 31 643 29 C 655 27 669 24 683 22 C 697 20 712 18 726 17 C 740 15 753 14 764 14 L 764 0 L 70 0 L 70 14 C 81 14 94 15 108 17 C 122 18 136 19 150 21 C 164 23 177 25 189 27 C 201 29 210 32 217 35 C 241 43 258 55 267 72 C 276 88 281 108 281 131 L 281 1255 C 281 1277 276 1298 267 1316 C 258 1334 241 1348 217 1358 C 208 1360 197 1363 185 1366 C 173 1369 160 1372 146 1374 C 132 1376 119 1378 106 1380 C 92 1382 80 1383 70 1384 L 70 1399 L 764 1399 L 764 1384 C 754 1383 743 1382 730 1381 C 716 1379 703 1378 689 1376 C 675 1374 661 1371 648 1369 C 635 1367 624 1364 616 1362 C 590 1354 573 1341 565 1323 C 557 1305 553 1284 553 1262 L 553 139 Z M 576 1484 C 538 1512 503 1536 472 1558 C 440 1580 412 1599 387 1616 C 362 1632 339 1647 319 1660 C 299 1673 281 1685 265 1697 C 248 1708 233 1718 221 1728 C 209 1738 198 1748 190 1758 C 182 1768 175 1780 171 1792 C 167 1804 165 1817 165 1833 C 165 1844 167 1855 172 1866 C 176 1876 183 1886 192 1895 C 200 1903 211 1910 223 1915 C 235 1920 249 1923 265 1923 C 294 1923 319 1914 340 1897 C 361 1880 382 1854 404 1818 C 416 1798 428 1778 440 1756 C 452 1734 465 1711 479 1685 C 493 1659 509 1630 527 1599 C 544 1567 564 1533 586 1495 L 576 1484 Z" unicode="Ì" />
<glyph horiz-adv-x="831" d="M 70 0 L 70 0 Z M 553 139 C 553 116 557 96 567 78 C 576 60 592 46 616 37 C 622 34 631 31 643 29 C 655 27 669 24 683 22 C 697 20 712 18 726 17 C 740 15 753 14 764 14 L 764 0 L 70 0 L 70 14 C 81 14 94 15 108 17 C 122 18 136 19 150 21 C 164 23 177 25 189 27 C 201 29 210 32 217 35 C 241 43 258 55 267 72 C 276 88 281 108 281 131 L 281 1255 C 281 1277 276 1298 267 1316 C 258 1334 241 1348 217 1358 C 208 1360 197 1363 185 1366 C 173 1369 160 1372 146 1374 C 132 1376 119 1378 106 1380 C 92 1382 80 1383 70 1384 L 70 1399 L 764 1399 L 764 1384 C 754 1383 743 1382 730 1381 C 716 1379 703 1378 689 1376 C 675 1374 661 1371 648 1369 C 635 1367 624 1364 616 1362 C 590 1354 573 1341 565 1323 C 557 1305 553 1284 553 1262 L 553 139 Z M 678 1833 C 678 1817 675 1804 671 1792 C 667 1780 660 1768 652 1758 C 644 1748 633 1738 620 1728 C 607 1718 592 1708 576 1697 C 560 1685 542 1673 522 1660 C 502 1647 480 1632 455 1616 C 430 1599 402 1580 371 1558 C 339 1536 305 1512 267 1484 L 257 1497 C 279 1536 299 1571 317 1603 C 334 1634 350 1662 364 1688 C 378 1713 391 1736 403 1757 C 415 1778 427 1798 439 1818 C 459 1853 480 1879 501 1897 C 522 1914 548 1923 578 1923 C 593 1923 607 1920 619 1915 C 631 1910 642 1903 651 1895 C 659 1886 666 1876 671 1866 C 675 1855 678 1844 678 1833 Z" unicode="Í" />
<glyph horiz-adv-x="831" d="M 70 0 L 70 0 Z M 553 139 C 553 116 557 96 567 78 C 576 60 592 46 616 37 C 622 34 631 31 643 29 C 655 27 669 24 683 22 C 697 20 712 18 726 17 C 740 15 753 14 764 14 L 764 0 L 70 0 L 70 14 C 81 14 94 15 108 17 C 122 18 136 19 150 21 C 164 23 177 25 189 27 C 201 29 210 32 217 35 C 241 43 258 55 267 72 C 276 88 281 108 281 131 L 281 1255 C 281 1277 276 1298 267 1316 C 258 1334 241 1348 217 1358 C 208 1360 197 1363 185 1366 C 173 1369 160 1372 146 1374 C 132 1376 119 1378 106 1380 C 92 1382 80 1383 70 1384 L 70 1399 L 764 1399 L 764 1384 C 754 1383 743 1382 730 1381 C 716 1379 703 1378 689 1376 C 675 1374 661 1371 648 1369 C 635 1367 624 1364 616 1362 C 590 1354 573 1341 565 1323 C 557 1305 553 1284 553 1262 L 553 139 Z M 728 1503 L 415 1753 L 104 1503 L 87 1517 C 137 1593 181 1662 220 1724 C 258 1786 291 1836 317 1876 C 322 1884 327 1891 333 1897 C 338 1902 344 1906 352 1910 C 359 1913 368 1915 379 1917 C 389 1918 403 1919 419 1919 C 435 1919 448 1918 458 1917 C 468 1915 476 1913 483 1910 C 490 1906 496 1902 500 1897 C 504 1892 509 1886 515 1880 C 527 1862 541 1840 558 1815 C 574 1789 592 1761 612 1730 C 632 1698 653 1665 676 1629 C 698 1593 722 1555 747 1517 L 728 1503 Z" unicode="Î" />
<glyph horiz-adv-x="831" d="M 59 0 L 59 0 Z M 553 139 C 553 116 557 96 567 78 C 576 60 592 46 616 37 C 622 34 631 31 643 29 C 655 27 669 24 683 22 C 697 20 712 18 726 17 C 740 15 753 14 764 14 L 764 0 L 70 0 L 70 14 C 81 14 94 15 108 17 C 122 18 136 19 150 21 C 164 23 177 25 189 27 C 201 29 210 32 217 35 C 241 43 258 55 267 72 C 276 88 281 108 281 131 L 281 1255 C 281 1277 276 1298 267 1316 C 258 1334 241 1348 217 1358 C 208 1360 197 1363 185 1366 C 173 1369 160 1372 146 1374 C 132 1376 119 1378 106 1380 C 92 1382 80 1383 70 1384 L 70 1399 L 764 1399 L 764 1384 C 754 1383 743 1382 730 1381 C 716 1379 703 1378 689 1376 C 675 1374 661 1371 648 1369 C 635 1367 624 1364 616 1362 C 590 1354 573 1341 565 1323 C 557 1305 553 1284 553 1262 L 553 139 Z M 775 1704 C 775 1684 771 1666 764 1650 C 757 1633 747 1618 735 1606 C 723 1593 708 1583 692 1576 C 676 1568 658 1565 640 1565 C 622 1565 604 1568 588 1575 C 572 1582 558 1592 546 1604 C 534 1616 524 1631 517 1647 C 510 1663 507 1681 507 1700 C 507 1718 510 1736 517 1753 C 524 1770 534 1785 546 1798 C 558 1810 572 1820 588 1828 C 604 1835 622 1839 640 1839 C 658 1839 676 1835 693 1828 C 709 1820 724 1810 736 1798 C 748 1786 757 1771 764 1755 C 771 1739 775 1722 775 1704 Z M 327 1704 C 327 1684 323 1666 316 1650 C 309 1633 299 1618 287 1606 C 275 1593 260 1583 244 1576 C 228 1568 210 1565 192 1565 C 174 1565 157 1568 141 1575 C 125 1582 110 1592 98 1604 C 86 1616 76 1631 69 1647 C 62 1663 59 1681 59 1700 C 59 1718 62 1736 69 1753 C 76 1770 86 1785 98 1798 C 110 1810 125 1820 141 1828 C 157 1835 174 1839 192 1839 C 210 1839 228 1835 244 1828 C 260 1820 275 1810 287 1798 C 299 1786 309 1771 316 1755 C 323 1739 327 1722 327 1704 Z" unicode="Ï" />
<glyph horiz-adv-x="1577" d="M 66 14 C 78 14 91 15 105 17 C 119 18 133 19 147 21 C 161 23 173 25 185 27 C 197 29 206 32 213 35 C 237 43 254 55 263 72 C 271 88 276 108 276 131 L 276 713 L 88 713 L 88 762 L 276 762 L 276 1255 C 276 1277 271 1298 263 1317 C 254 1336 237 1350 213 1360 C 192 1368 169 1373 143 1377 C 117 1380 92 1382 70 1384 L 70 1399 L 748 1399 C 795 1399 847 1394 904 1385 C 960 1376 1017 1361 1074 1340 C 1131 1318 1186 1290 1240 1255 C 1293 1219 1340 1175 1382 1123 C 1423 1070 1456 1008 1481 937 C 1505 865 1518 783 1518 690 C 1518 610 1507 538 1486 473 C 1465 408 1436 350 1399 299 C 1361 247 1317 203 1266 166 C 1215 128 1160 97 1100 73 C 1040 48 978 30 912 18 C 846 6 780 0 713 0 L 66 0 L 66 14 Z M 745 25 C 825 25 895 41 953 73 C 1011 105 1058 151 1096 209 C 1133 267 1161 338 1179 420 C 1197 502 1206 592 1206 692 C 1206 792 1194 885 1171 969 C 1147 1053 1114 1125 1070 1185 C 1026 1245 974 1292 912 1326 C 850 1359 781 1376 705 1376 C 694 1376 682 1375 668 1375 C 654 1375 640 1374 626 1374 C 612 1374 598 1373 584 1373 C 570 1373 559 1372 549 1372 L 549 762 L 829 762 L 829 713 L 549 713 L 549 170 C 552 122 569 85 599 61 C 629 37 678 25 745 25 Z" unicode="Ð" />
<glyph horiz-adv-x="1544" d="M 0 0 L 0 0 Z M 1561 1384 C 1552 1382 1539 1381 1523 1380 C 1507 1378 1489 1376 1471 1373 C 1452 1369 1434 1365 1416 1360 C 1398 1354 1384 1347 1372 1339 C 1360 1330 1349 1316 1341 1298 C 1333 1280 1326 1258 1321 1233 C 1316 1207 1312 1179 1310 1147 C 1308 1115 1307 1082 1307 1047 L 1307 -10 L 1245 -10 L 303 1186 L 303 346 C 303 303 304 266 307 235 C 310 203 314 176 320 154 C 326 131 333 112 341 98 C 349 83 359 71 371 63 C 381 55 395 49 414 43 C 432 37 452 32 473 28 C 493 24 513 20 531 18 C 549 16 562 14 571 14 L 571 0 L 16 0 L 16 14 C 24 14 37 16 54 18 C 71 20 89 23 108 27 C 127 31 145 35 163 40 C 181 45 195 51 205 59 C 228 77 245 109 255 154 C 265 198 270 260 270 340 L 270 1149 C 270 1164 268 1180 265 1196 C 262 1212 258 1227 252 1242 C 246 1257 238 1271 230 1284 C 221 1297 211 1309 201 1319 C 189 1329 175 1337 159 1345 C 143 1352 126 1358 108 1363 C 90 1367 71 1371 53 1374 C 34 1377 16 1380 0 1382 L 0 1399 L 467 1399 L 1274 379 L 1274 1044 C 1274 1120 1268 1184 1256 1234 C 1244 1284 1227 1319 1204 1339 C 1194 1347 1179 1353 1161 1359 C 1143 1365 1124 1369 1104 1373 C 1084 1376 1065 1378 1047 1380 C 1029 1382 1014 1383 1004 1384 L 1004 1399 L 1561 1399 L 1561 1384 Z M 1222 1830 C 1214 1804 1203 1776 1188 1744 C 1172 1712 1153 1683 1130 1655 C 1106 1627 1079 1604 1049 1586 C 1019 1567 986 1558 950 1558 C 910 1558 876 1563 847 1575 C 818 1587 791 1599 766 1613 C 741 1627 717 1639 693 1651 C 669 1663 644 1669 616 1669 C 578 1669 546 1658 518 1638 C 490 1617 464 1584 440 1538 L 418 1546 C 426 1570 438 1598 454 1629 C 469 1660 488 1689 510 1717 C 532 1745 558 1768 587 1787 C 616 1806 648 1816 684 1816 C 722 1816 756 1810 786 1798 C 816 1786 844 1773 870 1759 C 896 1745 922 1732 947 1720 C 971 1708 997 1703 1024 1703 C 1065 1703 1100 1713 1128 1735 C 1156 1757 1180 1791 1200 1837 L 1222 1830 Z" unicode="Ñ" />
<glyph horiz-adv-x="1573" d="M 61 0 L 61 0 Z M 1509 709 C 1509 598 1491 496 1456 402 C 1420 308 1364 226 1288 156 C 1223 94 1149 47 1065 15 C 981 -17 885 -33 778 -33 C 682 -33 592 -16 507 16 C 421 49 345 97 279 160 C 211 222 158 297 119 385 C 80 472 61 572 61 684 C 61 802 79 906 117 997 C 154 1088 207 1167 276 1233 C 345 1299 423 1348 509 1382 C 595 1415 687 1432 786 1432 C 883 1432 975 1416 1062 1384 C 1148 1352 1228 1301 1300 1233 C 1365 1171 1416 1095 1453 1006 C 1490 917 1509 818 1509 709 Z M 1200 702 C 1200 761 1197 820 1191 878 C 1185 936 1175 991 1161 1043 C 1147 1095 1130 1144 1109 1188 C 1087 1232 1061 1271 1031 1303 C 1000 1335 964 1361 924 1379 C 883 1397 837 1407 786 1407 C 720 1407 661 1390 610 1358 C 558 1326 515 1279 480 1218 C 445 1156 418 1082 400 994 C 382 906 373 806 373 694 C 373 596 380 505 396 420 C 412 334 436 260 470 197 C 504 133 547 83 599 47 C 651 10 713 -8 786 -8 C 858 -8 920 10 972 46 C 1024 82 1067 132 1101 196 C 1135 259 1160 334 1176 421 C 1192 507 1200 601 1200 702 Z M 964 1484 C 926 1512 891 1536 860 1558 C 828 1580 800 1599 775 1616 C 750 1632 727 1647 707 1660 C 687 1673 669 1685 653 1697 C 636 1708 621 1718 609 1728 C 597 1738 586 1748 578 1758 C 570 1768 563 1780 559 1792 C 555 1804 553 1817 553 1833 C 553 1844 555 1855 560 1866 C 564 1876 571 1886 580 1895 C 588 1903 599 1910 611 1915 C 623 1920 637 1923 653 1923 C 682 1923 707 1914 728 1897 C 749 1880 770 1854 792 1818 C 804 1798 816 1778 828 1756 C 840 1734 853 1711 867 1685 C 881 1659 897 1630 915 1599 C 932 1567 952 1533 974 1495 L 964 1484 Z" unicode="Ò" />
<glyph horiz-adv-x="1573" d="M 61 0 L 61 0 Z M 1011 1833 C 1011 1817 1008 1804 1004 1792 C 1000 1780 993 1768 985 1758 C 977 1748 966 1738 953 1728 C 940 1718 925 1708 909 1697 C 893 1685 875 1673 855 1660 C 835 1647 813 1632 788 1616 C 763 1599 735 1580 704 1558 C 672 1536 638 1512 600 1484 L 590 1497 C 612 1536 632 1571 650 1603 C 667 1634 683 1662 697 1688 C 711 1713 724 1736 736 1757 C 748 1778 760 1798 772 1818 C 792 1853 813 1879 834 1897 C 855 1914 881 1923 911 1923 C 926 1923 940 1920 952 1915 C 964 1910 975 1903 984 1895 C 992 1886 999 1876 1004 1866 C 1008 1855 1011 1844 1011 1833 Z M 1509 709 C 1509 598 1491 496 1456 402 C 1420 308 1364 226 1288 156 C 1223 94 1149 47 1065 15 C 981 -17 885 -33 778 -33 C 682 -33 592 -16 507 16 C 421 49 345 97 279 160 C 211 222 158 297 119 385 C 80 472 61 572 61 684 C 61 802 79 906 117 997 C 154 1088 207 1167 276 1233 C 345 1299 423 1348 509 1382 C 595 1415 687 1432 786 1432 C 883 1432 975 1416 1062 1384 C 1148 1352 1228 1301 1300 1233 C 1365 1171 1416 1095 1453 1006 C 1490 917 1509 818 1509 709 Z M 1200 702 C 1200 761 1197 820 1191 878 C 1185 936 1175 991 1161 1043 C 1147 1095 1130 1144 1109 1188 C 1087 1232 1061 1271 1031 1303 C 1000 1335 964 1361 924 1379 C 883 1397 837 1407 786 1407 C 720 1407 661 1390 610 1358 C 558 1326 515 1279 480 1218 C 445 1156 418 1082 400 994 C 382 906 373 806 373 694 C 373 596 380 505 396 420 C 412 334 436 260 470 197 C 504 133 547 83 599 47 C 651 10 713 -8 786 -8 C 858 -8 920 10 972 46 C 1024 82 1067 132 1101 196 C 1135 259 1160 334 1176 421 C 1192 507 1200 601 1200 702 Z" unicode="Ó" />
<glyph horiz-adv-x="1573" d="M 61 0 L 61 0 Z M 1097 1503 L 784 1753 L 473 1503 L 456 1517 C 506 1593 550 1662 589 1724 C 627 1786 660 1836 686 1876 C 691 1884 696 1891 702 1897 C 707 1902 713 1906 721 1910 C 728 1913 737 1915 748 1917 C 758 1918 772 1919 788 1919 C 804 1919 817 1918 827 1917 C 837 1915 845 1913 852 1910 C 859 1906 865 1902 869 1897 C 873 1892 878 1886 884 1880 C 896 1862 910 1840 927 1815 C 943 1789 961 1761 981 1730 C 1001 1698 1022 1665 1045 1629 C 1067 1593 1091 1555 1116 1517 L 1097 1503 Z M 1509 709 C 1509 598 1491 496 1456 402 C 1420 308 1364 226 1288 156 C 1223 94 1149 47 1065 15 C 981 -17 885 -33 778 -33 C 682 -33 592 -16 507 16 C 421 49 345 97 279 160 C 211 222 158 297 119 385 C 80 472 61 572 61 684 C 61 802 79 906 117 997 C 154 1088 207 1167 276 1233 C 345 1299 423 1348 509 1382 C 595 1415 687 1432 786 1432 C 883 1432 975 1416 1062 1384 C 1148 1352 1228 1301 1300 1233 C 1365 1171 1416 1095 1453 1006 C 1490 917 1509 818 1509 709 Z M 1200 702 C 1200 761 1197 820 1191 878 C 1185 936 1175 991 1161 1043 C 1147 1095 1130 1144 1109 1188 C 1087 1232 1061 1271 1031 1303 C 1000 1335 964 1361 924 1379 C 883 1397 837 1407 786 1407 C 720 1407 661 1390 610 1358 C 558 1326 515 1279 480 1218 C 445 1156 418 1082 400 994 C 382 906 373 806 373 694 C 373 596 380 505 396 420 C 412 334 436 260 470 197 C 504 133 547 83 599 47 C 651 10 713 -8 786 -8 C 858 -8 920 10 972 46 C 1024 82 1067 132 1101 196 C 1135 259 1160 334 1176 421 C 1192 507 1200 601 1200 702 Z" unicode="Ô" />
</font>
</defs>
</svg>
